<?xml version="1.0" standalone="no"?><!DOCTYPE svg PUBLIC "-//W3C//DTD SVG 1.1//EN" "http://www.w3.org/Graphics/SVG/1.1/DTD/svg11.dtd"><svg xmlns:xlink="http://www.w3.org/1999/xlink" height="400" width="600" xmlns="http://www.w3.org/2000/svg" style="font-family:'lucida grande', 'lucida sans unicode', verdana, arial, helvetica, sans-serif;font-size:12px;" version="1.1"><desc>Created with Highcharts 3.0.10</desc><defs><clipPath id="highcharts-11"><rect height="240" width="530" y="0" x="0"></rect></clipPath></defs><rect class=" highcharts-background" fill="#FFFFFF" height="400" width="600" y="0" x="0"></rect><path stroke-dasharray="3,1" stroke-width="1" stroke="#7f7f7f" d="M 489.5 75 L 489.5 315" fill="none"></path><path stroke-width="2" stroke="black" d="M 30 195 L 560 195" fill="none"></path><image xlink:href="../..//global/images/icons/icon_interactive.gif" height="17" width="69" y="23" x="625" preserveAspectRatio="none"></image><g  class="highcharts-grid"></g><g  class="highcharts-grid"><path opacity="1"  stroke-width="1" stroke="#C0C0C0" d="M 30 74.5 L 560 74.5" fill="none"></path><path opacity="1"  stroke-width="1" stroke="#C0C0C0" d="M 30 115.5 L 560 115.5" fill="none"></path><path opacity="1"  stroke-width="1" stroke="#C0C0C0" d="M 30 155.5 L 560 155.5" fill="none"></path><path opacity="1"  stroke-width="1" stroke="#C0C0C0" d="M 30 195.5 L 560 195.5" fill="none"></path><path opacity="1"  stroke-width="1" stroke="#C0C0C0" d="M 30 235.5 L 560 235.5" fill="none"></path><path opacity="1"  stroke-width="1" stroke="#C0C0C0" d="M 30 275.5 L 560 275.5" fill="none"></path><path opacity="1"  stroke-width="1" stroke="#C0C0C0" d="M 30 315.5 L 560 315.5" fill="none"></path></g><g  class="highcharts-grid"><path opacity="1"  stroke-width="1" stroke="#C0C0C0" d="M 30 74.5 L 560 74.5" fill="none"></path><path opacity="1"  stroke-width="1" stroke="#C0C0C0" d="M 30 115.5 L 560 115.5" fill="none"></path><path opacity="1"  stroke-width="1" stroke="#C0C0C0" d="M 30 155.5 L 560 155.5" fill="none"></path><path opacity="1"  stroke-width="1" stroke="#C0C0C0" d="M 30 195.5 L 560 195.5" fill="none"></path><path opacity="1"  stroke-width="1" stroke="#C0C0C0" d="M 30 235.5 L 560 235.5" fill="none"></path><path opacity="1"  stroke-width="1" stroke="#C0C0C0" d="M 30 275.5 L 560 275.5" fill="none"></path><path opacity="1"  stroke-width="1" stroke="#C0C0C0" d="M 30 315.5 L 560 315.5" fill="none"></path></g><g  class="highcharts-axis"><path opacity="1" stroke-width="1" stroke="#C0D0E0" d="M 69.5 315 L 69.5 320" fill="none"></path><path opacity="1" stroke-width="1" stroke="#C0D0E0" d="M 102.5 315 L 102.5 320" fill="none"></path><path opacity="1" stroke-width="1" stroke="#C0D0E0" d="M 134.5 315 L 134.5 320" fill="none"></path><path opacity="1" stroke-width="1" stroke="#C0D0E0" d="M 166.5 315 L 166.5 320" fill="none"></path><path opacity="1" stroke-width="1" stroke="#C0D0E0" d="M 199.5 315 L 199.5 320" fill="none"></path><path opacity="1" stroke-width="1" stroke="#C0D0E0" d="M 231.5 315 L 231.5 320" fill="none"></path><path opacity="1" stroke-width="1" stroke="#C0D0E0" d="M 263.5 315 L 263.5 320" fill="none"></path><path opacity="1" stroke-width="1" stroke="#C0D0E0" d="M 296.5 315 L 296.5 320" fill="none"></path><path opacity="1" stroke-width="1" stroke="#C0D0E0" d="M 328.5 315 L 328.5 320" fill="none"></path><path opacity="1" stroke-width="1" stroke="#C0D0E0" d="M 361.5 315 L 361.5 320" fill="none"></path><path opacity="1" stroke-width="1" stroke="#C0D0E0" d="M 393.5 315 L 393.5 320" fill="none"></path><path opacity="1" stroke-width="1" stroke="#C0D0E0" d="M 425.5 315 L 425.5 320" fill="none"></path><path opacity="1" stroke-width="1" stroke="#C0D0E0" d="M 458.5 315 L 458.5 320" fill="none"></path><path opacity="1" stroke-width="1" stroke="#C0D0E0" d="M 490.5 315 L 490.5 320" fill="none"></path><path opacity="1" stroke-width="1" stroke="#C0D0E0" d="M 523.5 315 L 523.5 320" fill="none"></path><path opacity="1" stroke-width="1" stroke="#C0D0E0" d="M 555.5 315 L 555.5 320" fill="none"></path><path opacity="1" stroke-width="1" stroke="#C0D0E0" d="M 37.5 315 L 37.5 320" fill="none"></path><path visibility="visible"  stroke-width="1" stroke="#a8a9a9" d="M 30 315.5 L 560 315.5" fill="none"></path></g><g  class="highcharts-axis"></g><g  class="highcharts-axis"></g><text style="position:absolute;color:#0096d7;font-family:arial;fill:#0096d7;font-size:10px;"  y="62" x="15"><tspan x="15">percent change (year-on-year)</tspan></text><text style="position:absolute;color:rgb(189, 115, 42);font-family:arial;fill:rgb(189, 115, 42);font-size:10px;"  y="62" x="490"><tspan x="490">price per barrel (real 2010 dollars)</tspan></text><text style="position:absolute;color:gray;font-family:arial;fill:gray;font-size:10px;"  y="387" x="10"><tspan x="10">Source: </tspan><tspan dx="0">U.S. Energy Information Administration</tspan><tspan dx="0">, </tspan><tspan dx="0">Thomson Reuters</tspan><tspan dx="0">.</tspan></text><text style="position:absolute;color:gray;font-family:arial;fill:gray;font-size:10px;"  y="399" x="10"><tspan x="10">Updated: Monthly | Last Updated: 02/10/2015</tspan></text><g  class="highcharts-series-group"><g clip-path="url(#highcharts-11)" style="" transform="translate(30,75) scale(1 1)"  visibility="visible" class="highcharts-series highcharts-tracker"><rect ry="0" rx="0" fill="rgb(0,150,215)" fill-opacity="1" height="31" width="3" y="90" x="8"></rect><rect ry="0" rx="0" fill="rgb(0,150,215)" fill-opacity="1" height="5" width="3" y="116" x="16"></rect><rect ry="0" rx="0" fill="rgb(0,150,215)" fill-opacity="1" height="13" width="3" y="121" x="24"></rect><rect ry="0" rx="0" fill="rgb(0,150,215)" fill-opacity="1" height="17" width="3" y="121" x="32"></rect><rect ry="0" rx="0" fill="rgb(0,150,215)" fill-opacity="1" height="30" width="3" y="121" x="40"></rect><rect ry="0" rx="0" fill="rgb(0,150,215)" fill-opacity="1" height="10" width="3" y="121" x="48"></rect><rect ry="0" rx="0" fill="rgb(0,150,215)" fill-opacity="1" height="2" width="3" y="119" x="56"></rect><rect ry="0" rx="0" fill="rgb(0,150,215)" fill-opacity="1" height="35" width="3" y="86" x="64"></rect><rect ry="0" rx="0" fill="rgb(0,150,215)" fill-opacity="1" height="51" width="3" y="70" x="73"></rect><rect ry="0" rx="0" fill="rgb(0,150,215)" fill-opacity="1" height="36" width="3" y="85" x="81"></rect><rect ry="0" rx="0" fill="rgb(0,150,215)" fill-opacity="1" height="14" width="3" y="107" x="89"></rect><rect ry="0" rx="0" fill="rgb(0,150,215)" fill-opacity="1" height="17" width="3" y="104" x="97"></rect><rect ry="0" rx="0" fill="rgb(0,150,215)" fill-opacity="1" height="22" width="3" y="99" x="105"></rect><rect ry="0" rx="0" fill="rgb(0,150,215)" fill-opacity="1" height="32" width="3" y="89" x="113"></rect><rect ry="0" rx="0" fill="rgb(0,150,215)" fill-opacity="1" height="44" width="3" y="77" x="121"></rect><rect ry="0" rx="0" fill="rgb(0,150,215)" fill-opacity="1" height="37" width="3" y="84" x="129"></rect><rect ry="0" rx="0" fill="rgb(0,150,215)" fill-opacity="1" height="31" width="3" y="90" x="137"></rect><rect ry="0" rx="0" fill="rgb(0,150,215)" fill-opacity="1" height="24" width="3" y="97" x="145"></rect><rect ry="0" rx="0" fill="rgb(0,150,215)" fill-opacity="1" height="9" width="3" y="112" x="153"></rect><rect ry="0" rx="0" fill="rgb(0,150,215)" fill-opacity="1" height="11" width="3" y="121" x="162"></rect><rect ry="0" rx="0" fill="rgb(0,150,215)" fill-opacity="1" height="10" width="3" y="121" x="170"></rect><rect ry="0" rx="0" fill="rgb(0,150,215)" fill-opacity="1" height="13" width="3" y="121" x="178"></rect><rect ry="0" rx="0" fill="rgb(0,150,215)" fill-opacity="1" height="8" width="3" y="121" x="186"></rect><rect ry="0" rx="0" fill="rgb(0,150,215)" fill-opacity="1" height="5" width="3" y="121" x="194"></rect><rect ry="0" rx="0" fill="rgb(0,150,215)" fill-opacity="1" height="27" width="3" y="121" x="202"></rect><rect ry="0" rx="0" fill="rgb(0,150,215)" fill-opacity="1" height="6" width="3" y="115" x="210"></rect><rect ry="0" rx="0" fill="rgb(0,150,215)" fill-opacity="1" height="2" width="3" y="121" x="218"></rect><rect ry="0" rx="0" fill="rgb(0,150,215)" fill-opacity="1" height="4" width="3" y="117" x="226"></rect><rect ry="0" rx="0" fill="rgb(0,150,215)" fill-opacity="1" height="32" width="3" y="121" x="234"></rect><rect ry="0" rx="0" fill="rgb(0,150,215)" fill-opacity="1" height="37" width="3" y="121" x="243"></rect><rect ry="0" rx="0" fill="rgb(0,150,215)" fill-opacity="1" height="92" width="3" y="121" x="251"></rect><rect ry="0" rx="0" fill="rgb(0,150,215)" fill-opacity="1" height="107" width="3" y="121" x="259"></rect><rect ry="0" rx="0" fill="rgb(0,150,215)" fill-opacity="1" height="97" width="3" y="121" x="267"></rect><rect ry="0" rx="0" fill="rgb(0,150,215)" fill-opacity="1" height="117" width="3" y="121" x="275"></rect><rect ry="0" rx="0" fill="rgb(0,150,215)" fill-opacity="1" height="71" width="3" y="121" x="283"></rect><rect ry="0" rx="0" fill="rgb(0,150,215)" fill-opacity="1" height="54" width="3" y="121" x="291"></rect><rect ry="0" rx="0" fill="rgb(0,150,215)" fill-opacity="1" height="23" width="3" y="121" x="299"></rect><rect ry="0" rx="0" fill="rgb(0,150,215)" fill-opacity="1" height="34" width="3" y="87" x="307"></rect><rect ry="0" rx="0" fill="rgb(0,150,215)" fill-opacity="1" height="71" width="3" y="50" x="315"></rect><rect ry="0" rx="0" fill="rgb(0,150,215)" fill-opacity="1" height="33" width="3" y="88" x="323"></rect><rect ry="0" rx="0" fill="rgb(0,150,215)" fill-opacity="1" height="3" width="3" y="118" x="332"></rect><rect ry="0" rx="0" fill="rgb(0,150,215)" fill-opacity="1" height="39" width="3" y="121" x="340"></rect><rect ry="0" rx="0" fill="rgb(0,150,215)" fill-opacity="1" height="27" width="3" y="121" x="348"></rect><rect ry="0" rx="0" fill="rgb(0,150,215)" fill-opacity="1" height="41" width="3" y="121" x="356"></rect><rect ry="0" rx="0" fill="rgb(0,150,215)" fill-opacity="1" height="29" width="3" y="121" x="364"></rect><rect ry="0" rx="0" fill="rgb(0,150,215)" fill-opacity="1" height="8" width="3" y="113" x="372"></rect><rect ry="0" rx="0" fill="rgb(0,150,215)" fill-opacity="1" height="40" width="3" y="121" x="380"></rect><rect ry="0" rx="0" fill="rgb(0,150,215)" fill-opacity="1" height="14" width="3" y="121" x="388"></rect><rect ry="0" rx="0" fill="rgb(0,150,215)" fill-opacity="1" height="13" width="3" y="121" x="396"></rect><rect ry="0" rx="0" fill="rgb(0,150,215)" fill-opacity="1" height="7" width="3" y="114" x="404"></rect><rect ry="0" rx="0" fill="rgb(0,150,215)" fill-opacity="1" height="23" width="3" y="98" x="412"></rect><rect ry="0" rx="0" fill="rgb(0,150,215)" fill-opacity="1" height="14" width="3" y="107" x="421"></rect><rect ry="0" rx="0" fill="rgb(0,150,215)" fill-opacity="1" height="6" width="3" y="121" x="429"></rect><rect ry="0" rx="0" fill="rgb(0,150,215)" fill-opacity="1" height="35" width="3" y="121" x="437"></rect><rect ry="0" rx="0" fill="rgb(0,150,215)" fill-opacity="1" height="23" width="3" y="121" x="445"></rect><rect ry="0" rx="0" fill="rgb(0,150,215)" fill-opacity="1" height="14" width="3" y="107" x="453"></rect><rect ry="0" rx="0" fill="rgb(0,150,215)" fill-opacity="1" height="24" width="3" y="97" x="461"></rect><rect ry="0" rx="0" fill="rgb(0,150,215)" fill-opacity="1" height="16" width="3" y="105" x="469"></rect><rect ry="0" rx="0" fill="rgb(0,150,215)" fill-opacity="1" height="4" width="3" y="117" x="477"></rect><rect ry="0" rx="0" fill="rgb(0,150,215)" fill-opacity="1" height="18" width="3" y="121" x="485"></rect><rect ry="0" rx="0" fill="rgb(0,150,215)" fill-opacity="1" height="0" width="3" y="121" x="494"></rect><rect ry="0" rx="0" fill="rgb(0,150,215)" fill-opacity="1" height="3" width="3" y="121" x="502"></rect><rect ry="0" rx="0" fill="rgb(0,150,215)" fill-opacity="1" height="0" width="3" y="121" x="510"></rect><rect ry="0" rx="0" fill="rgb(0,150,215)" fill-opacity="1" height="7" width="3" y="121" x="518"></rect></g><g clip-path="none" transform="translate(30,75) scale(1 1)"  visibility="visible" class="highcharts-markers"></g><g clip-path="url(#highcharts-11)" transform="translate(30,75) scale(1 1)"  visibility="visible" class="highcharts-series"><path stroke-linecap="round" stroke-linejoin="round"  stroke-width="2" stroke="rgb(189,115,42)" stroke-opacity="1" d="M 9.088487099774582 91.92713227571167 L 17.065024882110677 92.9995606475546 L 25.133926464612777 94.28577591235353 L 33.29149729527424 100.38758681276934 L 41.452762677942346 99.24350631345084 L 49.42930046027844 94.94393057373861 L 57.49820204278054 93.06462677808554 L 65.655772873442 93.32118432952717 L 73.81703825611011 87.96177755313832 L 81.7935760384462 92.85741438534401 L 89.8624776209483 91.85804985505914 L 98.02004845160977 91.08538710163717 L 106.18131383427786 87.61005076729646 L 114.24652086477333 85.04578996759167 L 122.31542244727542 80.27520285963826 L 130.4729932779369 76.57059724859263 L 138.63425866060498 75.69657850506823 L 146.61079644294108 73.07090206731178 L 154.67969802544317 64.6156416558656 L 162.83726885610466 67.81208980471837 L 170.99853423877275 65.3859909823484 L 178.97507202110884 59.71950004757423 L 187.04397360361094 60.13215660514092 L 195.20154443427242 69.19008647926762 L 203.3628098169405 71.34331471088748 L 211.3393475992766 65.877165213137 L 219.4082491817787 57.3465090873334 L 227.56582001244016 44.9650754337672 L 235.72708539510828 39.487044409880355 L 243.79229242560373 18.546963479278247 L 251.86119400810583 24.036307832843136 L 260.0187648387673 72.65796890576294 L 268.1800302214354 85.27207919796419 L 276.1565680037715 71.80329715984743 L 284.2254695862736 64.70571073867163 L 292.38304041693505 58.51836279608315 L 300.54430579960314 56.64409164618917 L 308.52084358193923 57.616858715996045 L 316.58974516444135 59.2879323898932 L 324.74731599510284 52.41457035041802 L 332.90858137777093 46.06125011825452 L 340.885119160107 39.76206497628448 L 348.9540207426091 49.98607127917194 L 357.1115915732706 46.74954888570559 L 365.27285695593866 40.24721816177069 L 373.3380639864341 47.90421913491264 L 381.40696556893624 49.18305282426803 L 389.5645363995977 52.687047285868346 L 397.7258017822658 48.04621177560628 L 405.7023395646019 48.444414291750775 L 413.771241147104 39.85183247053783 L 421.92881197776546 46.56561919159665 L 430.09007736043355 45.746988566119484 L 438.06661514276965 42.69525111169551 L 446.13551672527177 47.11913733261852 L 454.2930875559332 65.7903745996889 L 462.45435293860135 85.84208293658457 L 470.43089072093744 82.58619830615493 L 478.4997923034395 78.37623832015885 L 486.657363134101 73.51429698991853 L 494.8186285167691 70.89040497275505 L 502.88383554726454 68.22439583176083 L 510.95273712976666 67.95076068130689 L 519.1103079604281 69.14424074697791" fill="none"></path><path style="" class=" highcharts-tracker"  stroke-width="22" stroke="rgb(192,192,192)" stroke-opacity="0.0001" visibility="visible" stroke-linejoin="round" d="M -0.9115129002254179 91.92713227571167 L 9.088487099774582 91.92713227571167 L 17.065024882110677 92.9995606475546 L 25.133926464612777 94.28577591235353 L 33.29149729527424 100.38758681276934 L 41.452762677942346 99.24350631345084 L 49.42930046027844 94.94393057373861 L 57.49820204278054 93.06462677808554 L 65.655772873442 93.32118432952717 L 73.81703825611011 87.96177755313832 L 81.7935760384462 92.85741438534401 L 89.8624776209483 91.85804985505914 L 98.02004845160977 91.08538710163717 L 106.18131383427786 87.61005076729646 L 114.24652086477333 85.04578996759167 L 122.31542244727542 80.27520285963826 L 130.4729932779369 76.57059724859263 L 138.63425866060498 75.69657850506823 L 146.61079644294108 73.07090206731178 L 154.67969802544317 64.6156416558656 L 162.83726885610466 67.81208980471837 L 170.99853423877275 65.3859909823484 L 178.97507202110884 59.71950004757423 L 187.04397360361094 60.13215660514092 L 195.20154443427242 69.19008647926762 L 203.3628098169405 71.34331471088748 L 211.3393475992766 65.877165213137 L 219.4082491817787 57.3465090873334 L 227.56582001244016 44.9650754337672 L 235.72708539510828 39.487044409880355 L 243.79229242560373 18.546963479278247 L 251.86119400810583 24.036307832843136 L 260.0187648387673 72.65796890576294 L 268.1800302214354 85.27207919796419 L 276.1565680037715 71.80329715984743 L 284.2254695862736 64.70571073867163 L 292.38304041693505 58.51836279608315 L 300.54430579960314 56.64409164618917 L 308.52084358193923 57.616858715996045 L 316.58974516444135 59.2879323898932 L 324.74731599510284 52.41457035041802 L 332.90858137777093 46.06125011825452 L 340.885119160107 39.76206497628448 L 348.9540207426091 49.98607127917194 L 357.1115915732706 46.74954888570559 L 365.27285695593866 40.24721816177069 L 373.3380639864341 47.90421913491264 L 381.40696556893624 49.18305282426803 L 389.5645363995977 52.687047285868346 L 397.7258017822658 48.04621177560628 L 405.7023395646019 48.444414291750775 L 413.771241147104 39.85183247053783 L 421.92881197776546 46.56561919159665 L 430.09007736043355 45.746988566119484 L 438.06661514276965 42.69525111169551 L 446.13551672527177 47.11913733261852 L 454.2930875559332 65.7903745996889 L 462.45435293860135 85.84208293658457 L 470.43089072093744 82.58619830615493 L 478.4997923034395 78.37623832015885 L 486.657363134101 73.51429698991853 L 494.8186285167691 70.89040497275505 L 502.88383554726454 68.22439583176083 L 510.95273712976666 67.95076068130689 L 519.1103079604281 69.14424074697791 L 529.1103079604281 69.14424074697791" fill="none"></path></g><g clip-path="none" style="" transform="translate(30,75) scale(1 1)"  visibility="visible" class="highcharts-markers highcharts-tracker"></g></g><text style="color:black;font-size:16px;font-weight:bold;font-family:arial;fill:black;width:536px;"  class="highcharts-title" text-anchor="start" y="30" x="15"><tspan x="15">OECD liquid fuels consumption and WTI crude oil price </tspan></text><g transform="translate(136,343)"  class="highcharts-legend"><g ><g><g transform="translate(8,3)"  class="highcharts-legend-item"><text  text-anchor="start" style="color:#189bd7;font-size:12px;cursor:pointer;font-family:arial;text-decoration:none;fill:#189bd7;" y="15" x="21"><tspan x="21">OECD liquid fuels consumption</tspan></text><rect fill="rgb(0,150,215)" fill-opacity="1" stroke-opacity="1"  ry="2" rx="2" height="12" width="16" y="4" x="0"></rect></g><g transform="translate(205,3)"  class="highcharts-legend-item"><path stroke-width="2" stroke="rgb(189,115,42)" stroke-opacity="1" d="M 0 11 L 16 11" fill="none"></path><text  text-anchor="start" style="color:#189bd7;font-size:12px;cursor:pointer;font-family:arial;text-decoration:none;fill:#189bd7;" y="15" x="21"><tspan x="21">WTI crude oil price</tspan></text></g></g></g></g><g  class="highcharts-axis-labels highcharts-xaxis-labels"><text opacity="1" style="color:black;cursor:default;font-size:11px;font-family:arial;fill:black;" text-anchor="middle" y="335" x="37.82864486551029"><tspan x="37.82864486551029">2001</tspan></text><text opacity="1" style="color:black;cursor:default;font-size:11px;font-family:arial;fill:black;" text-anchor="middle" y="335" x="70.19292044367805"><tspan x="70.19292044367805">2002</tspan></text><text opacity="1" style="color:black;cursor:default;font-size:11px;font-family:arial;fill:black;" text-anchor="middle" y="335" x="102.55719602184581"><tspan x="102.55719602184581">2003</tspan></text><text opacity="1" style="color:black;cursor:default;font-size:11px;font-family:arial;fill:black;" text-anchor="middle" y="335" x="134.92147160001358"><tspan x="134.92147160001358">2004</tspan></text><text opacity="1" style="color:black;cursor:default;font-size:11px;font-family:arial;fill:black;" text-anchor="middle" y="335" x="167.3744164263407"><tspan x="167.3744164263407">2005</tspan></text><text opacity="1" style="color:black;cursor:default;font-size:11px;font-family:arial;fill:black;" text-anchor="middle" y="335" x="199.73869200450847"><tspan x="199.73869200450847">2006</tspan></text><text opacity="1" style="color:black;cursor:default;font-size:11px;font-family:arial;fill:black;" text-anchor="middle" y="335" x="232.10296758267623"><tspan x="232.10296758267623">2007</tspan></text><text opacity="1" style="color:black;cursor:default;font-size:11px;font-family:arial;fill:black;" text-anchor="middle" y="335" x="264.46724316084396"><tspan x="264.46724316084396">2008</tspan></text><text opacity="1" style="color:black;cursor:default;font-size:11px;font-family:arial;fill:black;" text-anchor="middle" y="335" x="296.9201879871711"><tspan x="296.9201879871711">2009</tspan></text><text opacity="1" style="color:black;cursor:default;font-size:11px;font-family:arial;fill:black;" text-anchor="middle" y="335" x="329.28446356533885"><tspan x="329.28446356533885">2010</tspan></text><text opacity="1" style="color:black;cursor:default;font-size:11px;font-family:arial;fill:black;" text-anchor="middle" y="335" x="361.64873914350665"><tspan x="361.64873914350665">2011</tspan></text><text opacity="1" style="color:black;cursor:default;font-size:11px;font-family:arial;fill:black;" text-anchor="middle" y="335" x="394.0130147216744"><tspan x="394.0130147216744">2012</tspan></text><text opacity="1" style="color:black;cursor:default;font-size:11px;font-family:arial;fill:black;" text-anchor="middle" y="335" x="426.46595954800154"><tspan x="426.46595954800154">2013</tspan></text><text opacity="1" style="color:black;cursor:default;font-size:11px;font-family:arial;fill:black;" text-anchor="middle" y="335" x="458.83023512616927"><tspan x="458.83023512616927">2014</tspan></text><text opacity="1" style="color:black;cursor:default;font-size:11px;font-family:arial;fill:black;" text-anchor="middle" y="335" x="491.194510704337"><tspan x="491.194510704337">2015</tspan></text><text opacity="1" style="color:black;cursor:default;font-size:11px;font-family:arial;fill:black;" text-anchor="middle" y="335" x="523.5587862825048"><tspan x="523.5587862825048">2016</tspan></text><text style="color:black;cursor:default;font-size:11px;font-family:arial;fill:black;" text-anchor="middle" y="-9999" x="0"><tspan x="0">2017</tspan></text></g><g  class="highcharts-axis-labels highcharts-yaxis-labels"><text opacity="1" style="width:10px;color:rgb(0, 150, 215);cursor:default;font-size:11px;font-family:arial;fill:rgb(0, 150, 215);" text-anchor="end" y="320.5" x="22"><tspan x="22">-6</tspan></text><text opacity="1" style="width:10px;color:rgb(0, 150, 215);cursor:default;font-size:11px;font-family:arial;fill:rgb(0, 150, 215);" text-anchor="end" y="280.5" x="22"><tspan x="22">-4</tspan></text><text opacity="1" style="width:10px;color:rgb(0, 150, 215);cursor:default;font-size:11px;font-family:arial;fill:rgb(0, 150, 215);" text-anchor="end" y="240.5" x="22"><tspan x="22">-2</tspan></text><text opacity="1" style="width:10px;color:rgb(0, 150, 215);cursor:default;font-size:11px;font-family:arial;fill:rgb(0, 150, 215);" text-anchor="end" y="200.5" x="22"><tspan x="22">0</tspan></text><text opacity="1" style="width:10px;color:rgb(0, 150, 215);cursor:default;font-size:11px;font-family:arial;fill:rgb(0, 150, 215);" text-anchor="end" y="160.5" x="22"><tspan x="22">2</tspan></text><text opacity="1" style="width:10px;color:rgb(0, 150, 215);cursor:default;font-size:11px;font-family:arial;fill:rgb(0, 150, 215);" text-anchor="end" y="120.5" x="22"><tspan x="22">4</tspan></text><text opacity="1" style="width:10px;color:rgb(0, 150, 215);cursor:default;font-size:11px;font-family:arial;fill:rgb(0, 150, 215);" text-anchor="end" y="80.5" x="22"><tspan x="22">6</tspan></text></g><g  class="highcharts-axis-labels highcharts-yaxis-labels"><text opacity="1" style="width:10px;color:rgb(189, 115, 42);cursor:default;font-size:11px;font-family:arial;fill:rgb(189, 115, 42);" text-anchor="start" y="327" x="568"></text><text opacity="1" style="width:10px;color:rgb(189, 115, 42);cursor:default;font-size:11px;font-family:arial;fill:rgb(189, 115, 42);" text-anchor="start" y="287" x="568"></text><text opacity="1" style="width:10px;color:rgb(189, 115, 42);cursor:default;font-size:11px;font-family:arial;fill:rgb(189, 115, 42);" text-anchor="start" y="247" x="568"></text><text opacity="1" style="width:10px;color:rgb(189, 115, 42);cursor:default;font-size:11px;font-family:arial;fill:rgb(189, 115, 42);" text-anchor="start" y="200.5" x="568"><tspan x="568">0</tspan></text><text opacity="1" style="width:10px;color:rgb(189, 115, 42);cursor:default;font-size:11px;font-family:arial;fill:rgb(189, 115, 42);" text-anchor="start" y="160.5" x="568"><tspan x="568">50</tspan></text><text opacity="1" style="width:10px;color:rgb(189, 115, 42);cursor:default;font-size:11px;font-family:arial;fill:rgb(189, 115, 42);" text-anchor="start" y="120.5" x="568"><tspan x="568">100</tspan></text><text opacity="1" style="width:10px;color:rgb(189, 115, 42);cursor:default;font-size:11px;font-family:arial;fill:rgb(189, 115, 42);" text-anchor="start" y="80.5" x="568"><tspan x="568">150</tspan></text></g><g transform="translate(0,-9999)" style="cursor:default;padding:0;white-space:nowrap;"  class="highcharts-tooltip"><rect transform="translate(1, 1)" stroke-width="5" stroke-opacity="0.049999999999999996" stroke="black"  ry="3" rx="3" fill-opacity="0.85" fill="none" height="10" width="10" y="0.5" x="0.5"></rect><rect transform="translate(1, 1)" stroke-width="3" stroke-opacity="0.09999999999999999" stroke="black"  ry="3" rx="3" fill-opacity="0.85" fill="none" height="10" width="10" y="0.5" x="0.5"></rect><rect transform="translate(1, 1)" stroke-width="1" stroke-opacity="0.15" stroke="black"  ry="3" rx="3" fill-opacity="0.85" fill="none" height="10" width="10" y="0.5" x="0.5"></rect><rect ry="3" rx="3" fill-opacity="0.85" fill="rgb(255,255,255)" height="10" width="10" y="0.5" x="0.5"></rect><text style="font-size:12px;font-family:arial;color:#333333;fill:#333333;"  y="18" x="5"></text></g></svg>