<?xml version="1.0" standalone="no"?><!DOCTYPE svg PUBLIC "-//W3C//DTD SVG 1.1//EN" "http://www.w3.org/Graphics/SVG/1.1/DTD/svg11.dtd"><svg xmlns:xlink="http://www.w3.org/1999/xlink" height="400" width="600" xmlns="http://www.w3.org/2000/svg" style="font-family:'lucida grande', 'lucida sans unicode', verdana, arial, helvetica, sans-serif;font-size:12px;" version="1.1"><desc>Created with Highcharts 3.0.10</desc><defs><clipPath id="highcharts-15"><rect height="255" width="552" y="0" x="0"></rect></clipPath></defs><rect class=" highcharts-background" fill="#FFFFFF" height="400" width="600" y="0" x="0"></rect><image xlink:href="../../global/images/icons/icon_interactive.gif" height="17" width="69" y="23" x="625" preserveAspectRatio="none"></image><g  class="highcharts-grid"></g><g  class="highcharts-grid"><path opacity="1"  stroke-width="1" stroke="#C0C0C0" d="M 38 59.5 L 590 59.5" fill="none"></path><path opacity="1"  stroke-width="1" stroke="#C0C0C0" d="M 38 103.5 L 590 103.5" fill="none"></path><path opacity="1"  stroke-width="1" stroke="#C0C0C0" d="M 38 145.5 L 590 145.5" fill="none"></path><path opacity="1"  stroke-width="1" stroke="#C0C0C0" d="M 38 188.5 L 590 188.5" fill="none"></path><path opacity="1"  stroke-width="1" stroke="#C0C0C0" d="M 38 230.5 L 590 230.5" fill="none"></path><path opacity="1"  stroke-width="1" stroke="#C0C0C0" d="M 38 273.5 L 590 273.5" fill="none"></path><path opacity="1"  stroke-width="1" stroke="#C0C0C0" d="M 38 315.5 L 590 315.5" fill="none"></path></g><g  class="highcharts-axis"><path opacity="1" stroke-width="1" stroke="#C0D0E0" d="M 123.5 315 L 123.5 320" fill="none"></path><path opacity="1" stroke-width="1" stroke="#C0D0E0" d="M 181.5 315 L 181.5 320" fill="none"></path><path opacity="1" stroke-width="1" stroke="#C0D0E0" d="M 239.5 315 L 239.5 320" fill="none"></path><path opacity="1" stroke-width="1" stroke="#C0D0E0" d="M 297.5 315 L 297.5 320" fill="none"></path><path opacity="1" stroke-width="1" stroke="#C0D0E0" d="M 355.5 315 L 355.5 320" fill="none"></path><path opacity="1" stroke-width="1" stroke="#C0D0E0" d="M 413.5 315 L 413.5 320" fill="none"></path><path opacity="1" stroke-width="1" stroke="#C0D0E0" d="M 471.5 315 L 471.5 320" fill="none"></path><path opacity="1" stroke-width="1" stroke="#C0D0E0" d="M 529.5 315 L 529.5 320" fill="none"></path><path opacity="1" stroke-width="1" stroke="#C0D0E0" d="M 586.5 315 L 586.5 320" fill="none"></path><path opacity="1" stroke-width="1" stroke="#C0D0E0" d="M 66.5 315 L 66.5 320" fill="none"></path><path visibility="visible"  stroke-width="1" stroke="#000000" d="M 38 315.5 L 590 315.5" fill="none"></path></g><g  class="highcharts-axis"></g><text style="position:absolute;color:black;font-family:arial;fill:black;font-size:10px;"  y="47" x="13"><tspan x="13">price per barrel (real 2010 dollars)</tspan></text><text style="position:absolute;color:gray;font-family:arial;fill:gray;font-size:10px;"  y="377" x="18"><tspan x="18">Source: </tspan><tspan dx="0">U.S. Energy Information Administration</tspan><tspan dx="0">,  </tspan><tspan dx="0">Thomson Reuters</tspan><tspan dx="0">.</tspan></text><text style="position:absolute;color:gray;font-family:arial;fill:gray;font-size:10px;"  y="389" x="18"><tspan x="18">Updated: quarterly | Last Updated: 12/31/2014</tspan></text><g  class="highcharts-series-group"><g clip-path="url(#highcharts-15)" transform="translate(38,60) scale(1 1)"  visibility="visible" class="highcharts-series"><path stroke-linecap="round" stroke-linejoin="round"  stroke-width="2" stroke="rgb(0,150,215)" stroke-opacity="1" d="M 5.411764705882352 230.70231641202562 L 8.295933314797225 230.9512195121951 L 11.1787813336897 231.19507484307098 L 14.0946441031421 231.52380952380952 L 17.011827462616896 232.5683317624882 L 19.864301910994243 232.85016286644952 L 22.747149929886717 233.1551170261588 L 25.663012699339117 233.4322609877662 L 28.58019605881391 232.51563896336015 L 31.432670507191258 232.82282944028208 L 34.315518526083736 233.006993006993 L 37.23138129553613 233.2916307161346 L 40.14856465501093 232.107051826678 L 43.00103910338827 232.40461215932913 L 45.88388712228075 232.62972187629722 L 48.79974989173315 232.81391519143682 L 51.71693325120794 232.80210867802109 L 54.60110186012282 232.93631600161225 L 57.48394987901529 233.14770459081836 L 60.39981264846769 233.42333464722114 L 63.316996007942485 227.96960249415432 L 66.16947045631983 228.3742802303263 L 69.0523184752123 228.87570621468927 L 71.9681812446647 229.3870014771049 L 74.8853646041395 183.58644436389994 L 77.73651846249444 177.17109144542772 L 80.62068707140932 181.00389863547758 L 83.53654984086172 183.4280303030303 L 86.45373320033652 182.5925925925926 L 89.30488705869146 180.7823567289118 L 92.18905566760634 179.13371296003373 L 95.10491843705874 176.52354283343703 L 98.02210179653353 185.1221640488656 L 100.90627040544841 185.41056910569105 L 103.78911842434088 185.8335841107433 L 106.70498119379327 186.65138519175787 L 109.62216455326808 183.83682576639504 L 112.47463900164543 184.06907768848066 L 115.3574870205379 184.9177771477176 L 118.27334978999029 185.92767295597486 L 121.1905331494651 187.59502324309543 L 124.04300759784243 188.88381668456856 L 126.9258556167349 189.93882580758736 L 129.84171838618732 190.0517330574237 L 132.75890174566211 186.17916137229986 L 135.61137619403945 173.9933829611249 L 138.49422421293193 155.69565921606738 L 141.4100869823843 145.71524966261808 L 144.32727034185913 127.32151189920673 L 147.211438950774 122.58371385083714 L 150.09428696966648 124.22785092613256 L 153.01014973911887 125.36192544335867 L 155.92733309859366 115.54237288135593 L 158.779807546971 121.48918469217969 L 161.66265556586347 130.15968675519238 L 164.5785183353159 132.72228907607968 L 167.49570169479068 137.217167721519 L 170.34817614316802 144.93355481727576 L 173.2310241620605 146.4698516663456 L 176.1468869315129 147.86458333333331 L 179.0640702909877 157.978012978013 L 181.91654473936504 163.80773563650018 L 184.7993927582575 162.5560510343119 L 187.71525552770993 162.96631009467603 L 190.63243888718472 165.3880778588808 L 193.5166074960996 165.21112317529256 L 196.39945551499207 166.8925387422964 L 199.31531828444446 168.55504041844983 L 202.23250164391925 173.39680300893275 L 205.0849760922966 173.15697266993692 L 207.9678241111891 176.29245775997214 L 210.88368688064148 176.36935688719547 L 213.80087024011627 199.07560611283466 L 216.65334468849363 217.47839771101573" fill="none"></path><path style="" class=" highcharts-tracker"  stroke-width="22" stroke="rgb(192,192,192)" stroke-opacity="0.0001" visibility="visible" stroke-linejoin="round" d="M -4.588235294117648 230.70231641202562 L 5.411764705882352 230.70231641202562 L 8.295933314797225 230.9512195121951 L 11.1787813336897 231.19507484307098 L 14.0946441031421 231.52380952380952 L 17.011827462616896 232.5683317624882 L 19.864301910994243 232.85016286644952 L 22.747149929886717 233.1551170261588 L 25.663012699339117 233.4322609877662 L 28.58019605881391 232.51563896336015 L 31.432670507191258 232.82282944028208 L 34.315518526083736 233.006993006993 L 37.23138129553613 233.2916307161346 L 40.14856465501093 232.107051826678 L 43.00103910338827 232.40461215932913 L 45.88388712228075 232.62972187629722 L 48.79974989173315 232.81391519143682 L 51.71693325120794 232.80210867802109 L 54.60110186012282 232.93631600161225 L 57.48394987901529 233.14770459081836 L 60.39981264846769 233.42333464722114 L 63.316996007942485 227.96960249415432 L 66.16947045631983 228.3742802303263 L 69.0523184752123 228.87570621468927 L 71.9681812446647 229.3870014771049 L 74.8853646041395 183.58644436389994 L 77.73651846249444 177.17109144542772 L 80.62068707140932 181.00389863547758 L 83.53654984086172 183.4280303030303 L 86.45373320033652 182.5925925925926 L 89.30488705869146 180.7823567289118 L 92.18905566760634 179.13371296003373 L 95.10491843705874 176.52354283343703 L 98.02210179653353 185.1221640488656 L 100.90627040544841 185.41056910569105 L 103.78911842434088 185.8335841107433 L 106.70498119379327 186.65138519175787 L 109.62216455326808 183.83682576639504 L 112.47463900164543 184.06907768848066 L 115.3574870205379 184.9177771477176 L 118.27334978999029 185.92767295597486 L 121.1905331494651 187.59502324309543 L 124.04300759784243 188.88381668456856 L 126.9258556167349 189.93882580758736 L 129.84171838618732 190.0517330574237 L 132.75890174566211 186.17916137229986 L 135.61137619403945 173.9933829611249 L 138.49422421293193 155.69565921606738 L 141.4100869823843 145.71524966261808 L 144.32727034185913 127.32151189920673 L 147.211438950774 122.58371385083714 L 150.09428696966648 124.22785092613256 L 153.01014973911887 125.36192544335867 L 155.92733309859366 115.54237288135593 L 158.779807546971 121.48918469217969 L 161.66265556586347 130.15968675519238 L 164.5785183353159 132.72228907607968 L 167.49570169479068 137.217167721519 L 170.34817614316802 144.93355481727576 L 173.2310241620605 146.4698516663456 L 176.1468869315129 147.86458333333331 L 179.0640702909877 157.978012978013 L 181.91654473936504 163.80773563650018 L 184.7993927582575 162.5560510343119 L 187.71525552770993 162.96631009467603 L 190.63243888718472 165.3880778588808 L 193.5166074960996 165.21112317529256 L 196.39945551499207 166.8925387422964 L 199.31531828444446 168.55504041844983 L 202.23250164391925 173.39680300893275 L 205.0849760922966 173.15697266993692 L 207.9678241111891 176.29245775997214 L 210.88368688064148 176.36935688719547 L 213.80087024011627 199.07560611283466 L 216.65334468849363 217.47839771101573 L 226.65334468849363 217.47839771101573" fill="none"></path></g><g clip-path="none" style="" transform="translate(38,60) scale(1 1)"  visibility="visible" class="highcharts-markers highcharts-tracker"><path d="M 213 191.07560611283466 C 223.656 191.07560611283466 223.656 207.07560611283466 213 207.07560611283466 C 202.344 207.07560611283466 202.344 191.07560611283466 213 191.07560611283466 Z" fill="#000000"></path><path d="M 144 119.32151189920673 C 154.656 119.32151189920673 154.656 135.3215118992067 144 135.3215118992067 C 133.344 135.3215118992067 133.344 119.32151189920673 144 119.32151189920673 Z" fill="#000000"></path><path d="M 121 179.59502324309543 C 131.656 179.59502324309543 131.656 195.59502324309543 121 195.59502324309543 C 110.344 195.59502324309543 110.344 179.59502324309543 121 179.59502324309543 Z" fill="#000000"></path><path d="M 63 219.96960249415432 C 73.656 219.96960249415432 73.656 235.96960249415432 63 235.96960249415432 C 52.344 235.96960249415432 52.344 219.96960249415432 63 219.96960249415432 Z" fill="#000000"></path><path d="M 40 224.107051826678 C 50.656 224.107051826678 50.656 240.107051826678 40 240.107051826678 C 29.344 240.107051826678 29.344 224.107051826678 40 224.107051826678 Z" fill="#000000"></path></g><g clip-path="url(#highcharts-15)" transform="translate(38,60) scale(1 1)"  visibility="visible" class="highcharts-series"><path stroke-linecap="round" stroke-linejoin="round"  stroke-width="2" stroke="rgb(189,115,42)" stroke-opacity="1" d="M 219.5361927073861 214.7462244258278 L 222.4520554768385 210.45774528141473 L 225.3692388363133 202.67325005626827 L 228.22171328469062 199.71294433266263 L 231.1045613035831 197.28339159869043 L 234.0204240730355 202.6200539320896 L 236.9376074325103 208.4681629532547 L 239.82177604142518 207.35788847422793 L 242.70462406031766 213.6031644216378 L 245.62048682977004 215.0710043482872 L 248.53767018924484 205.56045108838185 L 251.3901446376222 200.95265534963403 L 254.27299265651467 204.22168960362868 L 257.18885542596706 201.87151924651926 L 260.10603878544185 198.74301336573512 L 262.9585132338192 209.57721988374425 L 265.8413612527117 188.0664580539413 L 268.7572240221641 174.8412205461895 L 271.6744073816389 200.56183504148365 L 274.52688183001624 203.69754702346324 L 277.4097298489087 201.8395168663683 L 280.3255926183611 201.95433658816773 L 283.2427759778359 209.04441902583167 L 286.12694458675077 203.80679073732063 L 289.00979260564327 202.9206730769231 L 291.92565537509563 206.10191947565545 L 294.8428387345704 207.9637387701904 L 297.69531318294776 208.35697760503425 L 300.57816120184026 213.2474245768948 L 303.4940239712927 216.66968657057882 L 306.41120733076747 220.56422164549468 L 309.2636817791448 213.89298174074577 L 312.14652979803725 212.49502050380784 L 315.06239256748967 214.66290221385677 L 317.97957592696446 213.22045454545454 L 320.8320503753418 211.19024801455257 L 323.7148983942343 214.78535788404645 L 326.6307611636867 214.32414974953863 L 329.5479445231615 210.95572745946419 L 332.4321131320764 206.82593173110416 L 335.3149611509688 205.4207258834766 L 338.23082392042124 200.7984104358343 L 341.14800727989604 205.17638978321528 L 344.00048172827337 211.49636098981077 L 346.8833297471659 211.90896681170548 L 349.79919251661823 211.73410724156992 L 352.716375876093 220.43203430123958 L 355.56885032447036 223.32168424619817 L 358.45169834336286 224.3807715033342 L 361.3675611128153 227.24241659304136 L 364.2847444722901 227.09654190739346 L 367.1372189206674 217.43927066382943 L 370.02006693955985 208.93518749480336 L 372.93592970901227 203.08545416925304 L 375.85311306848706 194.62793658616724 L 378.73728167740194 195.06191292983746 L 381.62012969629444 189.57638466220328 L 384.5359924657468 189.15784800419743 L 387.4531758252216 196.06284843380257 L 390.305650273599 198.32114695340502 L 393.18849829249143 201.01381445754436 L 396.10436106194385 213.8310578178796 L 399.02154442141864 211.43037475345167 L 401.874018869796 202.38973391502574 L 404.7568668886885 198.4497397973158 L 407.67272965814084 198.9949406499319 L 410.58991301761563 187.74170341146436 L 413.442387465993 198.01808157915028 L 416.32523548488547 195.91491238160972 L 419.2410982543379 194.29498187368824 L 422.1582816138127 186.99742745810164 L 425.04245022272755 181.6482898289829 L 427.92529824162 171.59252217997465 L 430.8411610110724 163.81795298908014 L 433.7583443705472 161.98573210093898 L 436.61081881892454 156.47094166484595 L 439.49366683781705 138.74256854256856 L 442.4095296072694 145.44343000358037 L 445.3267129667442 140.3736544815091 L 448.1791874151216 128.45163336504913 L 451.06203543401404 129.32076990376203 L 453.97789820346645 148.32165027551093 L 456.89508156294124 152.84931884807725 L 459.7462354212962 141.35123640978156 L 462.6304040302111 123.46395980723878 L 465.54626679966344 97.50762215870424 L 468.46345015913823 86.00656381107052 L 471.34629817803074 42.130484560730025 L 474.2304667869456 53.64997826159663 L 477.14632955639803 155.62184817820525 L 480.0635129158728 182.09334399360384 L 482.9146667742277 153.84242666933628 L 485.7988353831426 138.90624478488704 L 488.714698152595 125.92026887624374 L 491.6318815120698 122.00583631781404 L 494.4830353704248 124.02575022283847 L 497.36720397933965 127.53156528311807 L 500.283066748792 113.10155304888019 L 503.20025010826686 99.71673177083335 L 506.05140396662176 86.49605713916361 L 508.93557257553664 108.02161832257235 L 511.85143534498906 101.20332948421864 L 514.7686187044638 87.57348905482164 L 517.6514667233563 103.65183279334224 L 520.5356353322712 106.36488665465237 L 523.4514981017236 113.69104769104771 L 526.3686814611984 103.99293785310735 L 529.2198353195533 104.7771934766958 L 532.1040039284682 86.70975183938148 L 535.0198666979206 100.77635911773842 L 537.9370500573954 99.07560839680477 L 540.7882039157504 92.67039329822293 L 543.6723725246652 101.93999386126458 L 546.5882352941177 140.45797261619697" fill="none"></path><path style="" class=" highcharts-tracker"  stroke-width="22" stroke="rgb(192,192,192)" stroke-opacity="0.0001" visibility="visible" stroke-linejoin="round" d="M 209.5361927073861 214.7462244258278 L 219.5361927073861 214.7462244258278 L 222.4520554768385 210.45774528141473 L 225.3692388363133 202.67325005626827 L 228.22171328469062 199.71294433266263 L 231.1045613035831 197.28339159869043 L 234.0204240730355 202.6200539320896 L 236.9376074325103 208.4681629532547 L 239.82177604142518 207.35788847422793 L 242.70462406031766 213.6031644216378 L 245.62048682977004 215.0710043482872 L 248.53767018924484 205.56045108838185 L 251.3901446376222 200.95265534963403 L 254.27299265651467 204.22168960362868 L 257.18885542596706 201.87151924651926 L 260.10603878544185 198.74301336573512 L 262.9585132338192 209.57721988374425 L 265.8413612527117 188.0664580539413 L 268.7572240221641 174.8412205461895 L 271.6744073816389 200.56183504148365 L 274.52688183001624 203.69754702346324 L 277.4097298489087 201.8395168663683 L 280.3255926183611 201.95433658816773 L 283.2427759778359 209.04441902583167 L 286.12694458675077 203.80679073732063 L 289.00979260564327 202.9206730769231 L 291.92565537509563 206.10191947565545 L 294.8428387345704 207.9637387701904 L 297.69531318294776 208.35697760503425 L 300.57816120184026 213.2474245768948 L 303.4940239712927 216.66968657057882 L 306.41120733076747 220.56422164549468 L 309.2636817791448 213.89298174074577 L 312.14652979803725 212.49502050380784 L 315.06239256748967 214.66290221385677 L 317.97957592696446 213.22045454545454 L 320.8320503753418 211.19024801455257 L 323.7148983942343 214.78535788404645 L 326.6307611636867 214.32414974953863 L 329.5479445231615 210.95572745946419 L 332.4321131320764 206.82593173110416 L 335.3149611509688 205.4207258834766 L 338.23082392042124 200.7984104358343 L 341.14800727989604 205.17638978321528 L 344.00048172827337 211.49636098981077 L 346.8833297471659 211.90896681170548 L 349.79919251661823 211.73410724156992 L 352.716375876093 220.43203430123958 L 355.56885032447036 223.32168424619817 L 358.45169834336286 224.3807715033342 L 361.3675611128153 227.24241659304136 L 364.2847444722901 227.09654190739346 L 367.1372189206674 217.43927066382943 L 370.02006693955985 208.93518749480336 L 372.93592970901227 203.08545416925304 L 375.85311306848706 194.62793658616724 L 378.73728167740194 195.06191292983746 L 381.62012969629444 189.57638466220328 L 384.5359924657468 189.15784800419743 L 387.4531758252216 196.06284843380257 L 390.305650273599 198.32114695340502 L 393.18849829249143 201.01381445754436 L 396.10436106194385 213.8310578178796 L 399.02154442141864 211.43037475345167 L 401.874018869796 202.38973391502574 L 404.7568668886885 198.4497397973158 L 407.67272965814084 198.9949406499319 L 410.58991301761563 187.74170341146436 L 413.442387465993 198.01808157915028 L 416.32523548488547 195.91491238160972 L 419.2410982543379 194.29498187368824 L 422.1582816138127 186.99742745810164 L 425.04245022272755 181.6482898289829 L 427.92529824162 171.59252217997465 L 430.8411610110724 163.81795298908014 L 433.7583443705472 161.98573210093898 L 436.61081881892454 156.47094166484595 L 439.49366683781705 138.74256854256856 L 442.4095296072694 145.44343000358037 L 445.3267129667442 140.3736544815091 L 448.1791874151216 128.45163336504913 L 451.06203543401404 129.32076990376203 L 453.97789820346645 148.32165027551093 L 456.89508156294124 152.84931884807725 L 459.7462354212962 141.35123640978156 L 462.6304040302111 123.46395980723878 L 465.54626679966344 97.50762215870424 L 468.46345015913823 86.00656381107052 L 471.34629817803074 42.130484560730025 L 474.2304667869456 53.64997826159663 L 477.14632955639803 155.62184817820525 L 480.0635129158728 182.09334399360384 L 482.9146667742277 153.84242666933628 L 485.7988353831426 138.90624478488704 L 488.714698152595 125.92026887624374 L 491.6318815120698 122.00583631781404 L 494.4830353704248 124.02575022283847 L 497.36720397933965 127.53156528311807 L 500.283066748792 113.10155304888019 L 503.20025010826686 99.71673177083335 L 506.05140396662176 86.49605713916361 L 508.93557257553664 108.02161832257235 L 511.85143534498906 101.20332948421864 L 514.7686187044638 87.57348905482164 L 517.6514667233563 103.65183279334224 L 520.5356353322712 106.36488665465237 L 523.4514981017236 113.69104769104771 L 526.3686814611984 103.99293785310735 L 529.2198353195533 104.7771934766958 L 532.1040039284682 86.70975183938148 L 535.0198666979206 100.77635911773842 L 537.9370500573954 99.07560839680477 L 540.7882039157504 92.67039329822293 L 543.6723725246652 101.93999386126458 L 546.5882352941177 140.45797261619697 L 556.5882352941177 140.45797261619697" fill="none"></path></g><g clip-path="none" style="" transform="translate(38,60) scale(1 1)"  visibility="visible" class="highcharts-markers highcharts-tracker"><path d="M 480 174.09334399360384 C 490.656 174.09334399360384 490.656 190.09334399360384 480 190.09334399360384 C 469.344 190.09334399360384 469.344 174.09334399360384 480 174.09334399360384 Z" fill="#000000"></path><path d="M 474 45.64997826159663 C 484.656 45.64997826159663 484.656 61.64997826159663 474 61.64997826159663 C 463.344 61.64997826159663 463.344 45.64997826159663 474 45.64997826159663 Z" fill="#000000"></path><path d="M 433 153.98573210093898 C 443.656 153.98573210093898 443.656 169.98573210093898 433 169.98573210093898 C 422.344 169.98573210093898 422.344 153.98573210093898 433 153.98573210093898 Z" fill="#000000"></path><path d="M 393 193.01381445754436 C 403.656 193.01381445754436 403.656 209.01381445754436 393 209.01381445754436 C 382.344 209.01381445754436 382.344 193.01381445754436 393 193.01381445754436 Z" fill="#000000"></path><path d="M 364 219.09654190739346 C 374.656 219.09654190739346 374.656 235.09654190739346 364 235.09654190739346 C 353.344 235.09654190739346 353.344 219.09654190739346 364 219.09654190739346 Z" fill="#000000"></path><path d="M 341 197.17638978321528 C 351.656 197.17638978321528 351.656 213.17638978321528 341 213.17638978321528 C 330.344 213.17638978321528 330.344 197.17638978321528 341 197.17638978321528 Z" fill="#000000"></path><path d="M 271 192.56183504148365 C 281.656 192.56183504148365 281.656 208.56183504148365 271 208.56183504148365 C 260.344 208.56183504148365 260.344 192.56183504148365 271 192.56183504148365 Z" fill="#000000"></path></g></g><text style="color:black;font-size:16px;font-weight:bold;font-family:arial;fill:black;width:536px;"  class="highcharts-title" text-anchor="start" y="25" x="10"><tspan x="10">Crude oil prices and key geopolitical and economic events</tspan></text><g transform="translate(38,60) scale(1 1)"  visibility="visible" class="highcharts-data-labels"><g transform="translate(33,222)" style="cursor:default;" ><text style="font-size:11px;color:#ffffff;fill:#ffffff;"  y="15" x="3"><tspan x="3">1</tspan></text></g><g transform="translate(56,218)" style="cursor:default;" ><text style="font-size:11px;color:#ffffff;fill:#ffffff;"  y="15" x="3"><tspan x="3">2</tspan></text></g><g transform="translate(114,178)" style="cursor:default;" ><text style="font-size:11px;color:#ffffff;fill:#ffffff;"  y="15" x="3"><tspan x="3">3</tspan></text></g><g transform="translate(137,117)" style="cursor:default;" ><text style="font-size:11px;color:#ffffff;fill:#ffffff;"  y="15" x="3"><tspan x="3">4</tspan></text></g><g transform="translate(206,189)" style="cursor:default;" ><text style="font-size:11px;color:#ffffff;fill:#ffffff;"  y="15" x="3"><tspan x="3">5</tspan></text></g></g><g transform="translate(38,60) scale(1 1)"  visibility="visible" class="highcharts-data-labels"><g transform="translate(264,191)" style="cursor:default;" ><text style="font-size:11px;color:#ffffff;fill:#ffffff;"  y="15" x="3"><tspan x="3">6</tspan></text></g><g transform="translate(334,195)" style="cursor:default;" ><text style="font-size:11px;color:#ffffff;fill:#ffffff;"  y="15" x="3"><tspan x="3">7</tspan></text></g><g transform="translate(357,217)" style="cursor:default;" ><text style="font-size:11px;color:#ffffff;fill:#ffffff;"  y="15" x="3"><tspan x="3">8</tspan></text></g><g transform="translate(386,191)" style="cursor:default;" ><text style="font-size:11px;color:#ffffff;fill:#ffffff;"  y="15" x="3"><tspan x="3">9</tspan></text></g><g transform="translate(423,152)" style="cursor:default;" ><text style="font-size:11px;color:#ffffff;fill:#ffffff;"  y="15" x="3"><tspan x="3">10</tspan></text></g><g transform="translate(463,44)" style="cursor:default;" ><text style="font-size:11px;color:#ffffff;fill:#ffffff;"  y="15" x="3"><tspan x="3">11</tspan></text></g><g transform="translate(469,172)" style="cursor:default;" ><text style="font-size:11px;color:#ffffff;fill:#ffffff;"  y="15" x="3"><tspan x="3">12</tspan></text></g></g><g transform="translate(103,338)"  class="highcharts-legend"><g ><g><g transform="translate(8,3)"  class="highcharts-legend-item"><path stroke-width="2" stroke="rgb(0,150,215)" stroke-opacity="1" d="M 0 11 L 16 11" fill="none"></path><path fill-opacity="1" d="M 8 11 C 8 11 8 11 8 11 C 8 11 8 11 8 11 Z" fill="rgb(0,150,215)"></path><text  text-anchor="start" style="color:#189bd7;font-size:12px;cursor:pointer;font-family:arial;text-decoration:none;fill:#189bd7;" y="15" x="21"><tspan x="21">imported refiner acquisition cost of crude oil</tspan></text></g><g transform="translate(270.3333282470703,3)"  class="highcharts-legend-item"><path stroke-width="2" stroke="rgb(189,115,42)" stroke-opacity="1" d="M 0 11 L 16 11" fill="none"></path><path fill-opacity="1" d="M 8 11 L 8 11 8 11 8 11 Z" fill="rgb(189,115,42)"></path><text  text-anchor="start" style="color:#189bd7;font-size:12px;cursor:pointer;font-family:arial;text-decoration:none;fill:#189bd7;" y="15" x="21"><tspan x="21">WTI crude oil price</tspan></text></g></g></g></g><g  class="highcharts-axis-labels highcharts-xaxis-labels"><text opacity="1" style="color:black;cursor:default;font-size:11px;font-family:arial;fill:black;" text-anchor="middle" y="335" x="66.57359310870193"><tspan x="66.57359310870193">1970</tspan></text><text opacity="1" style="color:black;cursor:default;font-size:11px;font-family:arial;fill:black;" text-anchor="middle" y="335" x="124.44713025022453"><tspan x="124.44713025022453">1975</tspan></text><text opacity="1" style="color:black;cursor:default;font-size:11px;font-family:arial;fill:black;" text-anchor="middle" y="335" x="182.32066739174715"><tspan x="182.32066739174715">1980</tspan></text><text opacity="1" style="color:black;cursor:default;font-size:11px;font-family:arial;fill:black;" text-anchor="middle" y="335" x="240.22589869380727"><tspan x="240.22589869380727">1985</tspan></text><text opacity="1" style="color:black;cursor:default;font-size:11px;font-family:arial;fill:black;" text-anchor="middle" y="335" x="298.09943583532987"><tspan x="298.09943583532987">1990</tspan></text><text opacity="1" style="color:black;cursor:default;font-size:11px;font-family:arial;fill:black;" text-anchor="middle" y="335" x="355.9729729768525"><tspan x="355.9729729768525">1995</tspan></text><text opacity="1" style="color:black;cursor:default;font-size:11px;font-family:arial;fill:black;" text-anchor="middle" y="335" x="413.8465101183751"><tspan x="413.8465101183751">2000</tspan></text><text opacity="1" style="color:black;cursor:default;font-size:11px;font-family:arial;fill:black;" text-anchor="middle" y="335" x="471.7517414204352"><tspan x="471.7517414204352">2005</tspan></text><text opacity="1" style="color:black;cursor:default;font-size:11px;font-family:arial;fill:black;" text-anchor="middle" y="335" x="529.6252785619579"><tspan x="529.6252785619579">2010</tspan></text><text opacity="1" style="color:black;cursor:default;font-size:11px;font-family:arial;fill:black;" text-anchor="middle" y="335" x="586.7666664123535"><tspan x="586.7666664123535">2015</tspan></text></g><g  class="highcharts-axis-labels highcharts-yaxis-labels"><text opacity="1" style="width:178px;color:black;cursor:default;font-size:11px;font-family:arial;fill:black;" text-anchor="end" y="320.5" x="30"><tspan x="30">0</tspan></text><text opacity="1" style="width:178px;color:black;cursor:default;font-size:11px;font-family:arial;fill:black;" text-anchor="end" y="278" x="30"><tspan x="30">25</tspan></text><text opacity="1" style="width:178px;color:black;cursor:default;font-size:11px;font-family:arial;fill:black;" text-anchor="end" y="235.5" x="30"><tspan x="30">50</tspan></text><text opacity="1" style="width:178px;color:black;cursor:default;font-size:11px;font-family:arial;fill:black;" text-anchor="end" y="193" x="30"><tspan x="30">75</tspan></text><text opacity="1" style="width:178px;color:black;cursor:default;font-size:11px;font-family:arial;fill:black;" text-anchor="end" y="150.5" x="30"><tspan x="30">100</tspan></text><text opacity="1" style="width:178px;color:black;cursor:default;font-size:11px;font-family:arial;fill:black;" text-anchor="end" y="108" x="30"><tspan x="30">125</tspan></text><text opacity="1" style="width:178px;color:black;cursor:default;font-size:11px;font-family:arial;fill:black;" text-anchor="end" y="65.5" x="30"><tspan x="30">150</tspan></text></g><g transform="translate(0,-9999)" style="cursor:default;padding:0;white-space:nowrap;"  class="highcharts-tooltip"><rect transform="translate(1, 1)" stroke-width="5" stroke-opacity="0.049999999999999996" stroke="black"  ry="3" rx="3" fill-opacity="0.85" fill="none" height="10" width="10" y="0.5" x="0.5"></rect><rect transform="translate(1, 1)" stroke-width="3" stroke-opacity="0.09999999999999999" stroke="black"  ry="3" rx="3" fill-opacity="0.85" fill="none" height="10" width="10" y="0.5" x="0.5"></rect><rect transform="translate(1, 1)" stroke-width="1" stroke-opacity="0.15" stroke="black"  ry="3" rx="3" fill-opacity="0.85" fill="none" height="10" width="10" y="0.5" x="0.5"></rect><rect ry="3" rx="3" fill-opacity="0.85" fill="rgb(255,255,255)" height="10" width="10" y="0.5" x="0.5"></rect><text style="font-size:12px;font-family:arial;color:#333333;fill:#333333;"  y="18" x="5"></text></g></svg>