<?xml version="1.0" standalone="no"?><!DOCTYPE svg PUBLIC "-//W3C//DTD SVG 1.1//EN" "http://www.w3.org/Graphics/SVG/1.1/DTD/svg11.dtd"><svg xmlns:xlink="http://www.w3.org/1999/xlink" height="400" width="600" xmlns="http://www.w3.org/2000/svg" style="font-family:'lucida grande', 'lucida sans unicode', verdana, arial, helvetica, sans-serif;font-size:12px;" version="1.1"><desc>Created with Highcharts 3.0.10</desc><defs><clipPath id="highcharts-7"><rect height="245" width="528" y="0" x="0"></rect></clipPath></defs><rect class=" highcharts-background" fill="#FFFFFF" height="400" width="600" y="0" x="0"></rect><path stroke-width="2" stroke="black" d="M 42 206 L 570 206" fill="none"></path><image xlink:href="../..//global/images/icons/icon_interactive.gif" height="17" width="69" y="23" x="625" preserveAspectRatio="none"></image><g  class="highcharts-grid"></g><g  class="highcharts-grid"><path opacity="1"  stroke-width="1" stroke="#C0C0C0" d="M 42 70.5 L 570 70.5" fill="none"></path><path opacity="1"  stroke-width="1" stroke="#C0C0C0" d="M 42 97.5 L 570 97.5" fill="none"></path><path opacity="1"  stroke-width="1" stroke="#C0C0C0" d="M 42 124.5 L 570 124.5" fill="none"></path><path opacity="1"  stroke-width="1" stroke="#C0C0C0" d="M 42 152.5 L 570 152.5" fill="none"></path><path opacity="1"  stroke-width="1" stroke="#C0C0C0" d="M 42 179.5 L 570 179.5" fill="none"></path><path opacity="1"  stroke-width="1" stroke="#C0C0C0" d="M 42 206.5 L 570 206.5" fill="none"></path><path opacity="1"  stroke-width="1" stroke="#C0C0C0" d="M 42 233.5 L 570 233.5" fill="none"></path><path opacity="1"  stroke-width="1" stroke="#C0C0C0" d="M 42 261.5 L 570 261.5" fill="none"></path><path opacity="1"  stroke-width="1" stroke="#C0C0C0" d="M 42 288.5 L 570 288.5" fill="none"></path><path opacity="1"  stroke-width="1" stroke="#C0C0C0" d="M 42 315.5 L 570 315.5" fill="none"></path></g><g  class="highcharts-grid"><path opacity="1"  stroke-width="1" stroke="#C0C0C0" d="M 42 69.5 L 570 69.5" fill="none"></path><path opacity="1"  stroke-width="1" stroke="#C0C0C0" d="M 42 97.5 L 570 97.5" fill="none"></path><path opacity="1"  stroke-width="1" stroke="#C0C0C0" d="M 42 124.5 L 570 124.5" fill="none"></path><path opacity="1"  stroke-width="1" stroke="#C0C0C0" d="M 42 152.5 L 570 152.5" fill="none"></path><path opacity="1"  stroke-width="1" stroke="#C0C0C0" d="M 42 179.5 L 570 179.5" fill="none"></path><path opacity="1"  stroke-width="1" stroke="#C0C0C0" d="M 42 206.5 L 570 206.5" fill="none"></path><path opacity="1"  stroke-width="1" stroke="#C0C0C0" d="M 42 233.5 L 570 233.5" fill="none"></path><path opacity="1"  stroke-width="1" stroke="#C0C0C0" d="M 42 261.5 L 570 261.5" fill="none"></path><path opacity="1"  stroke-width="1" stroke="#C0C0C0" d="M 42 288.5 L 570 288.5" fill="none"></path><path opacity="1"  stroke-width="1" stroke="#C0C0C0" d="M 42 315.5 L 570 315.5" fill="none"></path></g><g  class="highcharts-axis"><path opacity="1" stroke-width="1" stroke="#C0D0E0" d="M 88.5 315 L 88.5 320" fill="none"></path><path opacity="1" stroke-width="1" stroke="#C0D0E0" d="M 125.5 315 L 125.5 320" fill="none"></path><path opacity="1" stroke-width="1" stroke="#C0D0E0" d="M 162.5 315 L 162.5 320" fill="none"></path><path opacity="1" stroke-width="1" stroke="#C0D0E0" d="M 199.5 315 L 199.5 320" fill="none"></path><path opacity="1" stroke-width="1" stroke="#C0D0E0" d="M 236.5 315 L 236.5 320" fill="none"></path><path opacity="1" stroke-width="1" stroke="#C0D0E0" d="M 273.5 315 L 273.5 320" fill="none"></path><path opacity="1" stroke-width="1" stroke="#C0D0E0" d="M 310.5 315 L 310.5 320" fill="none"></path><path opacity="1" stroke-width="1" stroke="#C0D0E0" d="M 347.5 315 L 347.5 320" fill="none"></path><path opacity="1" stroke-width="1" stroke="#C0D0E0" d="M 384.5 315 L 384.5 320" fill="none"></path><path opacity="1" stroke-width="1" stroke="#C0D0E0" d="M 421.5 315 L 421.5 320" fill="none"></path><path opacity="1" stroke-width="1" stroke="#C0D0E0" d="M 458.5 315 L 458.5 320" fill="none"></path><path opacity="1" stroke-width="1" stroke="#C0D0E0" d="M 495.5 315 L 495.5 320" fill="none"></path><path opacity="1" stroke-width="1" stroke="#C0D0E0" d="M 532.5 315 L 532.5 320" fill="none"></path><path opacity="1" stroke-width="1" stroke="#C0D0E0" d="M 569.5 315 L 569.5 320" fill="none"></path><path opacity="1" stroke-width="1" stroke="#C0D0E0" d="M 51.5 315 L 51.5 320" fill="none"></path><path visibility="visible"  stroke-width="1" stroke="#a8a9a9" d="M 42 315.5 L 570 315.5" fill="none"></path></g><g  class="highcharts-axis"></g><g  class="highcharts-axis"></g><text style="position:absolute;color:rgb(0, 150, 215);font-family:arial;fill:rgb(0, 150, 215);font-size:10px;"  y="57" x="17"><tspan x="17">million barrels change (year-on-year)</tspan></text><text style="position:absolute;color:rgb(189, 115, 42);font-family:arial;fill:rgb(189, 115, 42);font-size:10px;"  y="57" x="562"><tspan x="562"> $/bbl change (year-on-year)</tspan></text><text style="position:absolute;color:gray;font-family:arial;fill:gray;font-size:10px;"  y="387" x="22"><tspan x="22">Source: </tspan><tspan dx="0">U.S. Energy Information Administration</tspan><tspan dx="0">, </tspan><tspan dx="0">Thomson Reuters</tspan><tspan dx="0">.</tspan></text><text style="position:absolute;color:gray;font-family:arial;fill:gray;font-size:10px;"  y="399" x="22"><tspan x="22">Updated: Quarterly | Last Updated: 12/31/2014</tspan></text><g  class="highcharts-series-group"><g clip-path="url(#highcharts-7)" style="" transform="translate(42,70) scale(1 1)"  visibility="visible" class="highcharts-series highcharts-tracker"><rect ry="0" rx="0" fill="rgb(0,150,215)" fill-opacity="1" height="59" width="5" y="78" x="7"></rect><rect ry="0" rx="0" fill="rgb(0,150,215)" fill-opacity="1" height="49" width="5" y="88" x="17"></rect><rect ry="0" rx="0" fill="rgb(0,150,215)" fill-opacity="1" height="67" width="5" y="70" x="26"></rect><rect ry="0" rx="0" fill="rgb(0,150,215)" fill-opacity="1" height="54" width="5" y="83" x="35"></rect><rect ry="0" rx="0" fill="rgb(0,150,215)" fill-opacity="1" height="43" width="5" y="94" x="44"></rect><rect ry="0" rx="0" fill="rgb(0,150,215)" fill-opacity="1" height="28" width="5" y="109" x="54"></rect><rect ry="0" rx="0" fill="rgb(0,150,215)" fill-opacity="1" height="49" width="5" y="137" x="63"></rect><rect ry="0" rx="0" fill="rgb(0,150,215)" fill-opacity="1" height="87" width="5" y="137" x="72"></rect><rect ry="0" rx="0" fill="rgb(0,150,215)" fill-opacity="1" height="102" width="5" y="137" x="81"></rect><rect ry="0" rx="0" fill="rgb(0,150,215)" fill-opacity="1" height="61" width="5" y="137" x="91"></rect><rect ry="0" rx="0" fill="rgb(0,150,215)" fill-opacity="1" height="8" width="5" y="129" x="100"></rect><rect ry="0" rx="0" fill="rgb(0,150,215)" fill-opacity="1" height="21" width="5" y="116" x="109"></rect><rect ry="0" rx="0" fill="rgb(0,150,215)" fill-opacity="1" height="18" width="5" y="119" x="118"></rect><rect ry="0" rx="0" fill="rgb(0,150,215)" fill-opacity="1" height="5" width="5" y="137" x="128"></rect><rect ry="0" rx="0" fill="rgb(0,150,215)" fill-opacity="1" height="15" width="5" y="137" x="137"></rect><rect ry="0" rx="0" fill="rgb(0,150,215)" fill-opacity="1" height="13" width="5" y="124" x="146"></rect><rect ry="0" rx="0" fill="rgb(0,150,215)" fill-opacity="1" height="40" width="5" y="97" x="155"></rect><rect ry="0" rx="0" fill="rgb(0,150,215)" fill-opacity="1" height="39" width="5" y="98" x="165"></rect><rect ry="0" rx="0" fill="rgb(0,150,215)" fill-opacity="1" height="30" width="5" y="107" x="174"></rect><rect ry="0" rx="0" fill="rgb(0,150,215)" fill-opacity="1" height="26" width="5" y="111" x="183"></rect><rect ry="0" rx="0" fill="rgb(0,150,215)" fill-opacity="1" height="26" width="5" y="111" x="192"></rect><rect ry="0" rx="0" fill="rgb(0,150,215)" fill-opacity="1" height="20" width="5" y="117" x="202"></rect><rect ry="0" rx="0" fill="rgb(0,150,215)" fill-opacity="1" height="73" width="5" y="64" x="211"></rect><rect ry="0" rx="0" fill="rgb(0,150,215)" fill-opacity="1" height="43" width="5" y="94" x="220"></rect><rect ry="0" rx="0" fill="rgb(0,150,215)" fill-opacity="1" height="2" width="5" y="137" x="229"></rect><rect ry="0" rx="0" fill="rgb(0,150,215)" fill-opacity="1" height="2" width="5" y="137" x="239"></rect><rect ry="0" rx="0" fill="rgb(0,150,215)" fill-opacity="1" height="71" width="5" y="137" x="248"></rect><rect ry="0" rx="0" fill="rgb(0,150,215)" fill-opacity="1" height="60" width="5" y="137" x="257"></rect><rect ry="0" rx="0" fill="rgb(0,150,215)" fill-opacity="1" height="19" width="5" y="137" x="266"></rect><rect ry="0" rx="0" fill="rgb(0,150,215)" fill-opacity="1" height="37" width="5" y="137" x="276"></rect><rect ry="0" rx="0" fill="rgb(0,150,215)" fill-opacity="1" height="0" width="5" y="137" x="285"></rect><rect ry="0" rx="0" fill="rgb(0,150,215)" fill-opacity="1" height="61" width="5" y="76" x="294"></rect><rect ry="0" rx="0" fill="rgb(0,150,215)" fill-opacity="1" height="94" width="5" y="43" x="304"></rect><rect ry="0" rx="0" fill="rgb(0,150,215)" fill-opacity="1" height="85" width="5" y="52" x="313"></rect><rect ry="0" rx="0" fill="rgb(0,150,215)" fill-opacity="1" height="67" width="5" y="70" x="322"></rect><rect ry="0" rx="0" fill="rgb(0,150,215)" fill-opacity="1" height="20" width="5" y="137" x="331"></rect><rect ry="0" rx="0" fill="rgb(0,150,215)" fill-opacity="1" height="36" width="5" y="137" x="340"></rect><rect ry="0" rx="0" fill="rgb(0,150,215)" fill-opacity="1" height="0" width="5" y="137" x="350"></rect><rect ry="0" rx="0" fill="rgb(0,150,215)" fill-opacity="1" height="17" width="5" y="137" x="359"></rect><rect ry="0" rx="0" fill="rgb(0,150,215)" fill-opacity="1" height="10" width="5" y="127" x="368"></rect><rect ry="0" rx="0" fill="rgb(0,150,215)" fill-opacity="1" height="20" width="5" y="137" x="377"></rect><rect ry="0" rx="0" fill="rgb(0,150,215)" fill-opacity="1" height="44" width="5" y="137" x="387"></rect><rect ry="0" rx="0" fill="rgb(0,150,215)" fill-opacity="1" height="46" width="5" y="137" x="396"></rect><rect ry="0" rx="0" fill="rgb(0,150,215)" fill-opacity="1" height="41" width="5" y="137" x="405"></rect><rect ry="0" rx="0" fill="rgb(0,150,215)" fill-opacity="1" height="3" width="5" y="134" x="414"></rect><rect ry="0" rx="0" fill="rgb(0,150,215)" fill-opacity="1" height="2" width="5" y="137" x="424"></rect><rect ry="0" rx="0" fill="rgb(0,150,215)" fill-opacity="1" height="28" width="5" y="109" x="433"></rect><rect ry="0" rx="0" fill="rgb(0,150,215)" fill-opacity="1" height="27" width="5" y="110" x="442"></rect><rect ry="0" rx="0" fill="rgb(0,150,215)" fill-opacity="1" height="4" width="5" y="133" x="452"></rect><rect ry="0" rx="0" fill="rgb(0,150,215)" fill-opacity="1" height="15" width="5" y="137" x="461"></rect><rect ry="0" rx="0" fill="rgb(0,150,215)" fill-opacity="1" height="16" width="5" y="137" x="470"></rect><rect ry="0" rx="0" fill="rgb(0,150,215)" fill-opacity="1" height="52" width="5" y="137" x="479"></rect><rect ry="0" rx="0" fill="rgb(0,150,215)" fill-opacity="1" height="45" width="5" y="137" x="489"></rect><rect ry="0" rx="0" fill="rgb(0,150,215)" fill-opacity="1" height="4" width="5" y="137" x="498"></rect><rect ry="0" rx="0" fill="rgb(0,150,215)" fill-opacity="1" height="11" width="5" y="126" x="507"></rect><rect ry="0" rx="0" fill="rgb(0,150,215)" fill-opacity="1" height="86" width="5" y="51" x="516"></rect></g><g clip-path="none" transform="translate(42,70) scale(1 1)"  visibility="visible" class="highcharts-markers"></g><g clip-path="url(#highcharts-7)" transform="translate(42,70) scale(1 1)"  visibility="visible" class="highcharts-series"><path stroke-linecap="round" stroke-linejoin="round"  stroke-width="2" stroke="rgb(189,115,42)" stroke-opacity="1" d="M 9.644294976831755 123.80666666666667 L 18.76287829591997 107.25555555555556 L 27.978557641091065 122.00999999999999 L 37.2997761450479 114.8777777777778 L 46.62521621535617 139.92222222222222 L 55.743799534444385 141.28333333333333 L 64.95947887961547 165.62 L 74.28069738357232 178.25111111111113 L 83.60613745388058 156.69111111111113 L 92.7247207729688 146.56444444444446 L 101.94040011813989 121.79222222222222 L 111.26161862209673 121.19333333333331 L 120.587058692405 127.83555555555556 L 129.8069596039275 124.13333333333333 L 139.02263894909862 154.18666666666667 L 148.34385745305545 124.73222222222222 L 157.66929752336372 112.1011111111111 L 166.78788084245193 112.04666666666665 L 176.00356018762304 98.8711111111111 L 185.32477869157987 108.83444444444444 L 194.65021876188814 119.61444444444443 L 203.76880208097634 136.98222222222222 L 212.98448142614745 106.71111111111111 L 222.30569993010428 120.15888888888888 L 231.63114000041256 131.26555555555555 L 240.74550175314934 139.05111111111108 L 249.96540266467187 201.39 L 259.2866211686287 198.17777777777778 L 268.6120612389369 184.24 L 277.827740584108 140.73888888888888 L 287.04764149563056 89.50666666666666 L 296.3688599995874 25.316666666666663 L 305.6943000698957 50.905555555555566 L 314.8086618226325 112.26444444444445 L 324.02856273415495 123.91555555555554 L 333.3497812381118 189.63 L 342.6752213084201 183.96777777777777 L 351.78958306115686 142.91666666666666 L 361.0094839726794 131.26555555555555 L 370.33070247663625 147.16333333333336 L 379.65614254694447 143.29777777777778 L 388.77050429968125 132.02777777777777 L 397.9904052112038 153.26111111111112 L 407.31162371516064 158.37888888888887 L 416.6370637854689 130.1222222222222 L 425.85274313064 141.55555555555554 L 435.07264404216255 141.5011111111111 L 444.39386254611935 122.99 L 453.7193026164276 163.98666666666668 L 462.8336643691644 190.82777777777778 L 472.05356528068694 191.26333333333332 L 481.3747837846438 178.85 L 490.70022385495207 170.4111111111111 L 499.81458560768885 147.27222222222224 L 509.0344865192113 110.52222222222221 L 518.3557050231683 64.35333333333332" fill="none"></path><path style="" class=" highcharts-tracker"  stroke-width="22" stroke="rgb(192,192,192)" stroke-opacity="0.0001" visibility="visible" stroke-linejoin="round" d="M -0.3557050231682446 123.80666666666667 L 9.644294976831755 123.80666666666667 L 18.76287829591997 107.25555555555556 L 27.978557641091065 122.00999999999999 L 37.2997761450479 114.8777777777778 L 46.62521621535617 139.92222222222222 L 55.743799534444385 141.28333333333333 L 64.95947887961547 165.62 L 74.28069738357232 178.25111111111113 L 83.60613745388058 156.69111111111113 L 92.7247207729688 146.56444444444446 L 101.94040011813989 121.79222222222222 L 111.26161862209673 121.19333333333331 L 120.587058692405 127.83555555555556 L 129.8069596039275 124.13333333333333 L 139.02263894909862 154.18666666666667 L 148.34385745305545 124.73222222222222 L 157.66929752336372 112.1011111111111 L 166.78788084245193 112.04666666666665 L 176.00356018762304 98.8711111111111 L 185.32477869157987 108.83444444444444 L 194.65021876188814 119.61444444444443 L 203.76880208097634 136.98222222222222 L 212.98448142614745 106.71111111111111 L 222.30569993010428 120.15888888888888 L 231.63114000041256 131.26555555555555 L 240.74550175314934 139.05111111111108 L 249.96540266467187 201.39 L 259.2866211686287 198.17777777777778 L 268.6120612389369 184.24 L 277.827740584108 140.73888888888888 L 287.04764149563056 89.50666666666666 L 296.3688599995874 25.316666666666663 L 305.6943000698957 50.905555555555566 L 314.8086618226325 112.26444444444445 L 324.02856273415495 123.91555555555554 L 333.3497812381118 189.63 L 342.6752213084201 183.96777777777777 L 351.78958306115686 142.91666666666666 L 361.0094839726794 131.26555555555555 L 370.33070247663625 147.16333333333336 L 379.65614254694447 143.29777777777778 L 388.77050429968125 132.02777777777777 L 397.9904052112038 153.26111111111112 L 407.31162371516064 158.37888888888887 L 416.6370637854689 130.1222222222222 L 425.85274313064 141.55555555555554 L 435.07264404216255 141.5011111111111 L 444.39386254611935 122.99 L 453.7193026164276 163.98666666666668 L 462.8336643691644 190.82777777777778 L 472.05356528068694 191.26333333333332 L 481.3747837846438 178.85 L 490.70022385495207 170.4111111111111 L 499.81458560768885 147.27222222222224 L 509.0344865192113 110.52222222222221 L 518.3557050231683 64.35333333333332 L 528.3557050231683 64.35333333333332" fill="none"></path></g><g clip-path="none" style="" transform="translate(42,70) scale(1 1)"  visibility="visible" class="highcharts-markers highcharts-tracker"></g></g><text style="color:black;font-size:16px;font-weight:bold;font-family:arial;fill:black;width:536px;"  class="highcharts-title" text-anchor="start" y="30" x="15"><tspan x="15">OECD liquid fuels inventories and WTI futures spread</tspan></text><g transform="translate(87,343)"  class="highcharts-legend"><g ><g><g transform="translate(8,3)"  class="highcharts-legend-item"><text  text-anchor="start" style="color:#189bd7;font-size:12px;cursor:pointer;font-family:arial;text-decoration:none;fill:#189bd7;" y="15" x="21"><tspan x="21">OECD liquid fuels inventory</tspan></text><rect fill="rgb(0,150,215)" fill-opacity="1" stroke-opacity="1"  ry="2" rx="2" height="12" width="16" y="4" x="0"></rect></g><g transform="translate(185.6666717529297,3)"  class="highcharts-legend-item"><path stroke-width="2" stroke="rgb(189,115,42)" stroke-opacity="1" d="M 0 11 L 16 11" fill="none"></path><text  text-anchor="start" style="color:#189bd7;font-size:12px;cursor:pointer;font-family:arial;text-decoration:none;fill:#189bd7;" y="15" x="21"><tspan x="21">WTI crude 12th - 1st futures price spread</tspan></text></g></g></g></g><g  class="highcharts-axis-labels highcharts-xaxis-labels"><text opacity="1" style="color:black;cursor:default;font-size:11px;font-family:arial;fill:black;" text-anchor="middle" y="335" x="51.62318714507461"><tspan x="51.62318714507461">2001</tspan></text><text opacity="1" style="color:black;cursor:default;font-size:11px;font-family:arial;fill:black;" text-anchor="middle" y="335" x="88.60410838359903"><tspan x="88.60410838359903">2002</tspan></text><text opacity="1" style="color:black;cursor:default;font-size:11px;font-family:arial;fill:black;" text-anchor="middle" y="335" x="125.58502962212343"><tspan x="125.58502962212343">2003</tspan></text><text opacity="1" style="color:black;cursor:default;font-size:11px;font-family:arial;fill:black;" text-anchor="middle" y="335" x="162.56595086064783"><tspan x="162.56595086064783">2004</tspan></text><text opacity="1" style="color:black;cursor:default;font-size:11px;font-family:arial;fill:black;" text-anchor="middle" y="335" x="199.64818969160658"><tspan x="199.64818969160658">2005</tspan></text><text opacity="1" style="color:black;cursor:default;font-size:11px;font-family:arial;fill:black;" text-anchor="middle" y="335" x="236.629110930131"><tspan x="236.629110930131">2006</tspan></text><text opacity="1" style="color:black;cursor:default;font-size:11px;font-family:arial;fill:black;" text-anchor="middle" y="335" x="273.6100321686554"><tspan x="273.6100321686554">2007</tspan></text><text opacity="1" style="color:black;cursor:default;font-size:11px;font-family:arial;fill:black;" text-anchor="middle" y="335" x="310.59095340717977"><tspan x="310.59095340717977">2008</tspan></text><text opacity="1" style="color:black;cursor:default;font-size:11px;font-family:arial;fill:black;" text-anchor="middle" y="335" x="347.67319223813854"><tspan x="347.67319223813854">2009</tspan></text><text opacity="1" style="color:black;cursor:default;font-size:11px;font-family:arial;fill:black;" text-anchor="middle" y="335" x="384.6541134766629"><tspan x="384.6541134766629">2010</tspan></text><text opacity="1" style="color:black;cursor:default;font-size:11px;font-family:arial;fill:black;" text-anchor="middle" y="335" x="421.6350347151873"><tspan x="421.6350347151873">2011</tspan></text><text opacity="1" style="color:black;cursor:default;font-size:11px;font-family:arial;fill:black;" text-anchor="middle" y="335" x="458.61595595371176"><tspan x="458.61595595371176">2012</tspan></text><text opacity="1" style="color:black;cursor:default;font-size:11px;font-family:arial;fill:black;" text-anchor="middle" y="335" x="495.6981947846705"><tspan x="495.6981947846705">2013</tspan></text><text opacity="1" style="color:black;cursor:default;font-size:11px;font-family:arial;fill:black;" text-anchor="middle" y="335" x="532.6791160231949"><tspan x="532.6791160231949">2014</tspan></text><text opacity="1" style="color:black;cursor:default;font-size:11px;font-family:arial;fill:black;" text-anchor="middle" y="335" x="569.6600372617194"><tspan x="569.6600372617194">2015</tspan></text></g><g  class="highcharts-axis-labels highcharts-yaxis-labels"><text opacity="1" style="width:178px;color:rgb(0, 150, 215);cursor:default;font-size:11px;font-family:arial;fill:rgb(0, 150, 215);" text-anchor="end" y="320.5" x="34"><tspan x="34">-200</tspan></text><text opacity="1" style="width:178px;color:rgb(0, 150, 215);cursor:default;font-size:11px;font-family:arial;fill:rgb(0, 150, 215);" text-anchor="end" y="293.27777777777777" x="34"><tspan x="34">-150</tspan></text><text opacity="1" style="width:178px;color:rgb(0, 150, 215);cursor:default;font-size:11px;font-family:arial;fill:rgb(0, 150, 215);" text-anchor="end" y="266.05555555555554" x="34"><tspan x="34">-100</tspan></text><text opacity="1" style="width:178px;color:rgb(0, 150, 215);cursor:default;font-size:11px;font-family:arial;fill:rgb(0, 150, 215);" text-anchor="end" y="238.83333333333337" x="34"><tspan x="34">-50</tspan></text><text opacity="1" style="width:178px;color:rgb(0, 150, 215);cursor:default;font-size:11px;font-family:arial;fill:rgb(0, 150, 215);" text-anchor="end" y="211.6111111111111" x="34"><tspan x="34">0</tspan></text><text opacity="1" style="width:178px;color:rgb(0, 150, 215);cursor:default;font-size:11px;font-family:arial;fill:rgb(0, 150, 215);" text-anchor="end" y="184.3888888888889" x="34"><tspan x="34">50</tspan></text><text opacity="1" style="width:178px;color:rgb(0, 150, 215);cursor:default;font-size:11px;font-family:arial;fill:rgb(0, 150, 215);" text-anchor="end" y="157.16666666666669" x="34"><tspan x="34">100</tspan></text><text opacity="1" style="width:178px;color:rgb(0, 150, 215);cursor:default;font-size:11px;font-family:arial;fill:rgb(0, 150, 215);" text-anchor="end" y="129.94444444444446" x="34"><tspan x="34">150</tspan></text><text opacity="1" style="width:178px;color:rgb(0, 150, 215);cursor:default;font-size:11px;font-family:arial;fill:rgb(0, 150, 215);" text-anchor="end" y="102.72222222222223" x="34"><tspan x="34">200</tspan></text><text opacity="1" style="width:178px;color:rgb(0, 150, 215);cursor:default;font-size:11px;font-family:arial;fill:rgb(0, 150, 215);" text-anchor="end" y="75.50000000000003" x="34"><tspan x="34">250</tspan></text></g><g  class="highcharts-axis-labels highcharts-yaxis-labels"><text opacity="1" style="width:178px;color:rgb(189, 115, 42);cursor:default;font-size:11px;font-family:arial;fill:rgb(189, 115, 42);" text-anchor="start" y="320.5" x="578"><tspan x="578">-20</tspan></text><text opacity="1" style="width:178px;color:rgb(189, 115, 42);cursor:default;font-size:11px;font-family:arial;fill:rgb(189, 115, 42);" text-anchor="start" y="293.27777777777777" x="578"><tspan x="578">-15</tspan></text><text opacity="1" style="width:178px;color:rgb(189, 115, 42);cursor:default;font-size:11px;font-family:arial;fill:rgb(189, 115, 42);" text-anchor="start" y="266.05555555555554" x="578"><tspan x="578">-10</tspan></text><text opacity="1" style="width:178px;color:rgb(189, 115, 42);cursor:default;font-size:11px;font-family:arial;fill:rgb(189, 115, 42);" text-anchor="start" y="238.83333333333331" x="578"><tspan x="578">-5</tspan></text><text opacity="1" style="width:178px;color:rgb(189, 115, 42);cursor:default;font-size:11px;font-family:arial;fill:rgb(189, 115, 42);" text-anchor="start" y="211.6111111111111" x="578"><tspan x="578">0</tspan></text><text opacity="1" style="width:178px;color:rgb(189, 115, 42);cursor:default;font-size:11px;font-family:arial;fill:rgb(189, 115, 42);" text-anchor="start" y="184.3888888888889" x="578"><tspan x="578">5</tspan></text><text opacity="1" style="width:178px;color:rgb(189, 115, 42);cursor:default;font-size:11px;font-family:arial;fill:rgb(189, 115, 42);" text-anchor="start" y="157.16666666666666" x="578"><tspan x="578">10</tspan></text><text opacity="1" style="width:178px;color:rgb(189, 115, 42);cursor:default;font-size:11px;font-family:arial;fill:rgb(189, 115, 42);" text-anchor="start" y="129.94444444444443" x="578"><tspan x="578">15</tspan></text><text opacity="1" style="width:178px;color:rgb(189, 115, 42);cursor:default;font-size:11px;font-family:arial;fill:rgb(189, 115, 42);" text-anchor="start" y="102.72222222222223" x="578"><tspan x="578">20</tspan></text><text opacity="1" style="width:178px;color:rgb(189, 115, 42);cursor:default;font-size:11px;font-family:arial;fill:rgb(189, 115, 42);" text-anchor="start" y="75.5" x="578"><tspan x="578">25</tspan></text></g><g transform="translate(0,-9999)" style="cursor:default;padding:0;white-space:nowrap;"  class="highcharts-tooltip"><rect transform="translate(1, 1)" stroke-width="5" stroke-opacity="0.049999999999999996" stroke="black"  ry="3" rx="3" fill-opacity="0.85" fill="none" height="10" width="10" y="0.5" x="0.5"></rect><rect transform="translate(1, 1)" stroke-width="3" stroke-opacity="0.09999999999999999" stroke="black"  ry="3" rx="3" fill-opacity="0.85" fill="none" height="10" width="10" y="0.5" x="0.5"></rect><rect transform="translate(1, 1)" stroke-width="1" stroke-opacity="0.15" stroke="black"  ry="3" rx="3" fill-opacity="0.85" fill="none" height="10" width="10" y="0.5" x="0.5"></rect><rect ry="3" rx="3" fill-opacity="0.85" fill="rgb(255,255,255)" height="10" width="10" y="0.5" x="0.5"></rect><text style="font-size:12px;font-family:arial;color:#333333;fill:#333333;"  y="18" x="5"></text></g></svg>