<?xml version="1.0" standalone="no"?><!DOCTYPE svg PUBLIC "-//W3C//DTD SVG 1.1//EN" "http://www.w3.org/Graphics/SVG/1.1/DTD/svg11.dtd"><svg xmlns:xlink="http://www.w3.org/1999/xlink" height="400" width="600" xmlns="http://www.w3.org/2000/svg" style="font-family:'lucida grande', 'lucida sans unicode', verdana, arial, helvetica, sans-serif;font-size:12px;" version="1.1"><desc>Created with Highcharts 3.0.10</desc><defs><clipPath id="highcharts-17"><rect height="255" width="523" y="0" x="0"></rect></clipPath></defs><rect class=" highcharts-background" fill="#FFFFFF" height="400" width="600" y="0" x="0"></rect><path stroke-dasharray="3,1" stroke-width="1" stroke="#7f7f7f" d="M 489.5 70 L 489.5 325" fill="none"></path><path stroke-width="2" stroke="black" d="M 39 261 L 562 261" fill="none"></path><image xlink:href="../..//global/images/icons/icon_interactive.gif" height="17" width="69" y="23" x="625" preserveAspectRatio="none"></image><g  class="highcharts-grid"></g><g  class="highcharts-grid"><path opacity="1"  stroke-width="1" stroke="#C0C0C0" d="M 39 69.5 L 562 69.5" fill="none"></path><path opacity="1"  stroke-width="1" stroke="#C0C0C0" d="M 39 102.5 L 562 102.5" fill="none"></path><path opacity="1"  stroke-width="1" stroke="#C0C0C0" d="M 39 134.5 L 562 134.5" fill="none"></path><path opacity="1"  stroke-width="1" stroke="#C0C0C0" d="M 39 166.5 L 562 166.5" fill="none"></path><path opacity="1"  stroke-width="1" stroke="#C0C0C0" d="M 39 198.5 L 562 198.5" fill="none"></path><path opacity="1"  stroke-width="1" stroke="#C0C0C0" d="M 39 229.5 L 562 229.5" fill="none"></path><path opacity="1"  stroke-width="1" stroke="#C0C0C0" d="M 39 261.5 L 562 261.5" fill="none"></path><path opacity="1"  stroke-width="1" stroke="#C0C0C0" d="M 39 293.5 L 562 293.5" fill="none"></path><path opacity="1"  stroke-width="1" stroke="#C0C0C0" d="M 39 325.5 L 562 325.5" fill="none"></path></g><g  class="highcharts-grid"><path opacity="1"  stroke-width="1" stroke="#C0C0C0" d="M 39 69.5 L 562 69.5" fill="none"></path><path opacity="1"  stroke-width="1" stroke="#C0C0C0" d="M 39 102.5 L 562 102.5" fill="none"></path><path opacity="1"  stroke-width="1" stroke="#C0C0C0" d="M 39 134.5 L 562 134.5" fill="none"></path><path opacity="1"  stroke-width="1" stroke="#C0C0C0" d="M 39 166.5 L 562 166.5" fill="none"></path><path opacity="1"  stroke-width="1" stroke="#C0C0C0" d="M 39 198.5 L 562 198.5" fill="none"></path><path opacity="1"  stroke-width="1" stroke="#C0C0C0" d="M 39 229.5 L 562 229.5" fill="none"></path><path opacity="1"  stroke-width="1" stroke="#C0C0C0" d="M 39 261.5 L 562 261.5" fill="none"></path><path opacity="1"  stroke-width="1" stroke="#C0C0C0" d="M 39 293.5 L 562 293.5" fill="none"></path><path opacity="1"  stroke-width="1" stroke="#C0C0C0" d="M 39 325.5 L 562 325.5" fill="none"></path></g><g  class="highcharts-axis"><path opacity="1" stroke-width="1" stroke="#C0D0E0" d="M 74.5 325 L 74.5 330" fill="none"></path><path opacity="1" stroke-width="1" stroke="#C0D0E0" d="M 106.5 325 L 106.5 330" fill="none"></path><path opacity="1" stroke-width="1" stroke="#C0D0E0" d="M 138.5 325 L 138.5 330" fill="none"></path><path opacity="1" stroke-width="1" stroke="#C0D0E0" d="M 171.5 325 L 171.5 330" fill="none"></path><path opacity="1" stroke-width="1" stroke="#C0D0E0" d="M 203.5 325 L 203.5 330" fill="none"></path><path opacity="1" stroke-width="1" stroke="#C0D0E0" d="M 235.5 325 L 235.5 330" fill="none"></path><path opacity="1" stroke-width="1" stroke="#C0D0E0" d="M 267.5 325 L 267.5 330" fill="none"></path><path opacity="1" stroke-width="1" stroke="#C0D0E0" d="M 299.5 325 L 299.5 330" fill="none"></path><path opacity="1" stroke-width="1" stroke="#C0D0E0" d="M 332.5 325 L 332.5 330" fill="none"></path><path opacity="1" stroke-width="1" stroke="#C0D0E0" d="M 364.5 325 L 364.5 330" fill="none"></path><path opacity="1" stroke-width="1" stroke="#C0D0E0" d="M 396.5 325 L 396.5 330" fill="none"></path><path opacity="1" stroke-width="1" stroke="#C0D0E0" d="M 428.5 325 L 428.5 330" fill="none"></path><path opacity="1" stroke-width="1" stroke="#C0D0E0" d="M 460.5 325 L 460.5 330" fill="none"></path><path opacity="1" stroke-width="1" stroke="#C0D0E0" d="M 493.5 325 L 493.5 330" fill="none"></path><path opacity="1" stroke-width="1" stroke="#C0D0E0" d="M 525.5 325 L 525.5 330" fill="none"></path><path opacity="1" stroke-width="1" stroke="#C0D0E0" d="M 557.5 325 L 557.5 330" fill="none"></path><path opacity="1" stroke-width="1" stroke="#C0D0E0" d="M 42.5 325 L 42.5 330" fill="none"></path><path visibility="visible"  stroke-width="1" stroke="#a8a9a9" d="M 39 325.5 L 562 325.5" fill="none"></path></g><g  class="highcharts-axis"></g><g  class="highcharts-axis"></g><text style="position:absolute;color:rgb(0, 150, 215);font-family:arial;fill:rgb(0, 150, 215);font-size:10px;"  y="57" x="19"><tspan x="19">million barrels per day change (year-on-year)</tspan></text><text style="position:absolute;color:rgb(189, 115, 42);font-family:arial;fill:rgb(189, 115, 42);font-size:10px;"  y="57" x="529"><tspan x="529">price per barrel (real 2010 dollars)</tspan></text><text style="position:absolute;color:gray;font-family:arial;fill:gray;font-size:10px;"  y="387" x="19"><tspan x="19">Source: </tspan><tspan dx="0">U.S. Energy Information Administration</tspan><tspan dx="0">, </tspan><tspan dx="0">Thomson Reuters</tspan><tspan dx="0">.</tspan></text><text style="position:absolute;color:gray;font-family:arial;fill:gray;font-size:10px;"  y="399" x="19"><tspan x="19">Updated: Monthly | Last Updated:  02/10/2015</tspan></text><g  class="highcharts-series-group"><g clip-path="url(#highcharts-17)" style="" transform="translate(39,70) scale(1 1)"  visibility="visible" class="highcharts-series highcharts-tracker"><rect ry="0" rx="0" fill="rgb(0,150,215)" fill-opacity="1" height="32" width="4" y="160" x="2"></rect><rect ry="0" rx="0" fill="rgb(0,150,215)" fill-opacity="1" height="22" width="4" y="170" x="10"></rect><rect ry="0" rx="0" fill="rgb(0,150,215)" fill-opacity="1" height="36" width="4" y="156" x="18"></rect><rect ry="0" rx="0" fill="rgb(0,150,215)" fill-opacity="1" height="45" width="4" y="147" x="26"></rect><rect ry="0" rx="0" fill="rgb(0,150,215)" fill-opacity="1" height="62" width="4" y="130" x="34"></rect><rect ry="0" rx="0" fill="rgb(0,150,215)" fill-opacity="1" height="104" width="4" y="88" x="42"></rect><rect ry="0" rx="0" fill="rgb(0,150,215)" fill-opacity="1" height="47" width="4" y="145" x="50"></rect><rect ry="0" rx="0" fill="rgb(0,150,215)" fill-opacity="1" height="40" width="4" y="152" x="58"></rect><rect ry="0" rx="0" fill="rgb(0,150,215)" fill-opacity="1" height="58" width="4" y="134" x="66"></rect><rect ry="0" rx="0" fill="rgb(0,150,215)" fill-opacity="1" height="4" width="4" y="188" x="74"></rect><rect ry="0" rx="0" fill="rgb(0,150,215)" fill-opacity="1" height="69" width="4" y="123" x="82"></rect><rect ry="0" rx="0" fill="rgb(0,150,215)" fill-opacity="1" height="93" width="4" y="99" x="90"></rect><rect ry="0" rx="0" fill="rgb(0,150,215)" fill-opacity="1" height="63" width="4" y="129" x="99"></rect><rect ry="0" rx="0" fill="rgb(0,150,215)" fill-opacity="1" height="98" width="4" y="94" x="107"></rect><rect ry="0" rx="0" fill="rgb(0,150,215)" fill-opacity="1" height="41" width="4" y="151" x="115"></rect><rect ry="0" rx="0" fill="rgb(0,150,215)" fill-opacity="1" height="17" width="4" y="175" x="123"></rect><rect ry="0" rx="0" fill="rgb(0,150,215)" fill-opacity="1" height="5" width="4" y="187" x="131"></rect><rect ry="0" rx="0" fill="rgb(0,150,215)" fill-opacity="1" height="34" width="4" y="158" x="139"></rect><rect ry="0" rx="0" fill="rgb(0,150,215)" fill-opacity="1" height="18" width="4" y="192" x="147"></rect><rect ry="0" rx="0" fill="rgb(0,150,215)" fill-opacity="1" height="46" width="4" y="192" x="155"></rect><rect ry="0" rx="0" fill="rgb(0,150,215)" fill-opacity="1" height="12" width="4" y="192" x="163"></rect><rect ry="0" rx="0" fill="rgb(0,150,215)" fill-opacity="1" height="36" width="4" y="192" x="171"></rect><rect ry="0" rx="0" fill="rgb(0,150,215)" fill-opacity="1" height="65" width="4" y="127" x="179"></rect><rect ry="0" rx="0" fill="rgb(0,150,215)" fill-opacity="1" height="56" width="4" y="136" x="187"></rect><rect ry="0" rx="0" fill="rgb(0,150,215)" fill-opacity="1" height="28" width="4" y="164" x="195"></rect><rect ry="0" rx="0" fill="rgb(0,150,215)" fill-opacity="1" height="32" width="4" y="160" x="203"></rect><rect ry="0" rx="0" fill="rgb(0,150,215)" fill-opacity="1" height="17" width="4" y="192" x="211"></rect><rect ry="0" rx="0" fill="rgb(0,150,215)" fill-opacity="1" height="5" width="4" y="187" x="219"></rect><rect ry="0" rx="0" fill="rgb(0,150,215)" fill-opacity="1" height="14" width="4" y="192" x="227"></rect><rect ry="0" rx="0" fill="rgb(0,150,215)" fill-opacity="1" height="17" width="4" y="192" x="235"></rect><rect ry="0" rx="0" fill="rgb(0,150,215)" fill-opacity="1" height="19" width="4" y="192" x="243"></rect><rect ry="0" rx="0" fill="rgb(0,150,215)" fill-opacity="1" height="8" width="4" y="192" x="251"></rect><rect ry="0" rx="0" fill="rgb(0,150,215)" fill-opacity="1" height="22" width="4" y="170" x="260"></rect><rect ry="0" rx="0" fill="rgb(0,150,215)" fill-opacity="1" height="13" width="4" y="179" x="268"></rect><rect ry="0" rx="0" fill="rgb(0,150,215)" fill-opacity="1" height="59" width="4" y="133" x="276"></rect><rect ry="0" rx="0" fill="rgb(0,150,215)" fill-opacity="1" height="62" width="4" y="130" x="284"></rect><rect ry="0" rx="0" fill="rgb(0,150,215)" fill-opacity="1" height="63" width="4" y="129" x="292"></rect><rect ry="0" rx="0" fill="rgb(0,150,215)" fill-opacity="1" height="119" width="4" y="73" x="300"></rect><rect ry="0" rx="0" fill="rgb(0,150,215)" fill-opacity="1" height="103" width="4" y="89" x="308"></rect><rect ry="0" rx="0" fill="rgb(0,150,215)" fill-opacity="1" height="94" width="4" y="98" x="316"></rect><rect ry="0" rx="0" fill="rgb(0,150,215)" fill-opacity="1" height="54" width="4" y="138" x="324"></rect><rect ry="0" rx="0" fill="rgb(0,150,215)" fill-opacity="1" height="5" width="4" y="192" x="332"></rect><rect ry="0" rx="0" fill="rgb(0,150,215)" fill-opacity="1" height="3" width="4" y="192" x="340"></rect><rect ry="0" rx="0" fill="rgb(0,150,215)" fill-opacity="1" height="4" width="4" y="188" x="348"></rect><rect ry="0" rx="0" fill="rgb(0,150,215)" fill-opacity="1" height="32" width="4" y="160" x="356"></rect><rect ry="0" rx="0" fill="rgb(0,150,215)" fill-opacity="1" height="20" width="4" y="172" x="364"></rect><rect ry="0" rx="0" fill="rgb(0,150,215)" fill-opacity="1" height="10" width="4" y="182" x="372"></rect><rect ry="0" rx="0" fill="rgb(0,150,215)" fill-opacity="1" height="51" width="4" y="141" x="380"></rect><rect ry="0" rx="0" fill="rgb(0,150,215)" fill-opacity="1" height="22" width="4" y="170" x="388"></rect><rect ry="0" rx="0" fill="rgb(0,150,215)" fill-opacity="1" height="84" width="4" y="108" x="396"></rect><rect ry="0" rx="0" fill="rgb(0,150,215)" fill-opacity="1" height="135" width="4" y="57" x="404"></rect><rect ry="0" rx="0" fill="rgb(0,150,215)" fill-opacity="1" height="110" width="4" y="82" x="412"></rect><rect ry="0" rx="0" fill="rgb(0,150,215)" fill-opacity="1" height="131" width="4" y="61" x="421"></rect><rect ry="0" rx="0" fill="rgb(0,150,215)" fill-opacity="1" height="156" width="4" y="36" x="428"></rect><rect ry="0" rx="0" fill="rgb(0,150,215)" fill-opacity="1" height="140" width="4" y="52" x="436"></rect><rect ry="0" rx="0" fill="rgb(0,150,215)" fill-opacity="1" height="87" width="4" y="105" x="445"></rect><rect ry="0" rx="0" fill="rgb(0,150,215)" fill-opacity="1" height="69" width="4" y="123" x="453"></rect><rect ry="0" rx="0" fill="rgb(0,150,215)" fill-opacity="1" height="38" width="4" y="154" x="461"></rect><rect ry="0" rx="0" fill="rgb(0,150,215)" fill-opacity="1" height="33" width="4" y="159" x="469"></rect><rect ry="0" rx="0" fill="rgb(0,150,215)" fill-opacity="1" height="29" width="4" y="163" x="477"></rect><rect ry="0" rx="0" fill="rgb(0,150,215)" fill-opacity="1" height="2" width="4" y="192" x="485"></rect><rect ry="0" rx="0" fill="rgb(0,150,215)" fill-opacity="1" height="21" width="4" y="171" x="493"></rect><rect ry="0" rx="0" fill="rgb(0,150,215)" fill-opacity="1" height="54" width="4" y="138" x="501"></rect><rect ry="0" rx="0" fill="rgb(0,150,215)" fill-opacity="1" height="61" width="4" y="131" x="509"></rect></g><g clip-path="none" transform="translate(39,70) scale(1 1)"  visibility="visible" class="highcharts-markers"></g><g clip-path="url(#highcharts-17)" transform="translate(39,70) scale(1 1)"  visibility="visible" class="highcharts-series"><path stroke-linecap="round" stroke-linejoin="round"  stroke-width="2" stroke="rgb(189,115,42)" stroke-opacity="1" d="M -28.294737026894182 158.51977007349726 L -20.2740081454954 158.7516982422161 L -12.256951759005688 155.7754516891015 L -4.14808299978934 155.54271638631934 L 3.9644582543360722 159.2920479031539 L 11.897047257917281 160.51289270145725 L 19.914103644406996 161.97711097165245 L 28.022972403623342 168.92336891632223 L 36.13551365774875 167.62095584790163 L 44.06810266132997 162.72634953706853 L 52.08515904781968 160.5869635196956 L 60.19402780703603 160.8790268037028 L 68.30656906116143 154.7779164109387 L 76.23915806474264 160.35107441188717 L 84.25621445123235 159.21340496892893 L 92.3650832104487 158.33381120945302 L 100.47762446457412 154.37751315027052 L 108.49835334597289 151.45837697203518 L 116.5154097324626 146.0275746839632 L 124.62427849167895 141.81027811781752 L 132.73681974580438 140.81530142318036 L 140.66940874938558 137.8262501212701 L 148.6864651358753 128.200842063597 L 156.79533389509166 131.83965580447853 L 164.90787514921706 129.07780223436987 L 172.84046415279826 122.62710942915817 L 180.85752053928798 123.09687470674524 L 188.96638929850434 133.408357375952 L 197.07893055262974 135.85957701462638 L 205.0078470613019 129.63695147031223 L 213.02857594270068 119.92571346995547 L 221.13744470191702 105.83077783754749 L 229.24998595604242 99.59462644874773 L 237.26704234253214 75.75658788935695 L 245.28777122393092 82.00561829185267 L 253.39663998314728 137.35616995968553 L 261.5091812372727 151.7159830155396 L 269.43809774594484 136.38321774893348 L 277.4588266273436 128.3033760641128 L 285.56769538655993 121.25974336161255 L 293.6802366406854 119.1260864722243 L 301.6091531493575 120.23347755615623 L 309.6298820307563 122.13581589028021 L 317.73875078997264 114.31122963998482 L 325.85129204409805 107.07865526854869 L 333.7802085527702 99.90770789710956 L 341.800937434169 111.54664364370021 L 349.90980619338535 107.8622096689952 L 358.02234744751075 100.46000281808719 L 366.03940383400044 109.17667803304786 L 374.0601327153992 110.63249317048371 L 382.1690014746156 114.62141543703765 L 390.281542728741 109.3383214409804 L 398.21045923741315 109.79163234105559 L 406.23118811881193 100.00989857137122 L 414.34005687802824 107.65282541900515 L 422.4525981321537 106.72090216232354 L 430.3815146408258 103.24682604233197 L 438.4022435222246 108.28294651704343 L 446.51111228144094 129.53814965589584 L 454.62365353556635 152.36487120012976 L 462.5525700442385 148.65839539316744 L 470.5732989256373 143.8658070162523 L 478.68216768485365 138.33100773405909 L 486.79470893897906 135.343987803806 L 494.81176532546874 132.3090220406206 L 502.8324942068675 131.99751773988064 L 510.9413629660839 133.35616692178291" fill="none"></path><path style="" class=" highcharts-tracker"  stroke-width="22" stroke="rgb(192,192,192)" stroke-opacity="0.0001" visibility="visible" stroke-linejoin="round" d="M -38.29473702689418 158.51977007349726 L -28.294737026894182 158.51977007349726 L -20.2740081454954 158.7516982422161 L -12.256951759005688 155.7754516891015 L -4.14808299978934 155.54271638631934 L 3.9644582543360722 159.2920479031539 L 11.897047257917281 160.51289270145725 L 19.914103644406996 161.97711097165245 L 28.022972403623342 168.92336891632223 L 36.13551365774875 167.62095584790163 L 44.06810266132997 162.72634953706853 L 52.08515904781968 160.5869635196956 L 60.19402780703603 160.8790268037028 L 68.30656906116143 154.7779164109387 L 76.23915806474264 160.35107441188717 L 84.25621445123235 159.21340496892893 L 92.3650832104487 158.33381120945302 L 100.47762446457412 154.37751315027052 L 108.49835334597289 151.45837697203518 L 116.5154097324626 146.0275746839632 L 124.62427849167895 141.81027811781752 L 132.73681974580438 140.81530142318036 L 140.66940874938558 137.8262501212701 L 148.6864651358753 128.200842063597 L 156.79533389509166 131.83965580447853 L 164.90787514921706 129.07780223436987 L 172.84046415279826 122.62710942915817 L 180.85752053928798 123.09687470674524 L 188.96638929850434 133.408357375952 L 197.07893055262974 135.85957701462638 L 205.0078470613019 129.63695147031223 L 213.02857594270068 119.92571346995547 L 221.13744470191702 105.83077783754749 L 229.24998595604242 99.59462644874773 L 237.26704234253214 75.75658788935695 L 245.28777122393092 82.00561829185267 L 253.39663998314728 137.35616995968553 L 261.5091812372727 151.7159830155396 L 269.43809774594484 136.38321774893348 L 277.4588266273436 128.3033760641128 L 285.56769538655993 121.25974336161255 L 293.6802366406854 119.1260864722243 L 301.6091531493575 120.23347755615623 L 309.6298820307563 122.13581589028021 L 317.73875078997264 114.31122963998482 L 325.85129204409805 107.07865526854869 L 333.7802085527702 99.90770789710956 L 341.800937434169 111.54664364370021 L 349.90980619338535 107.8622096689952 L 358.02234744751075 100.46000281808719 L 366.03940383400044 109.17667803304786 L 374.0601327153992 110.63249317048371 L 382.1690014746156 114.62141543703765 L 390.281542728741 109.3383214409804 L 398.21045923741315 109.79163234105559 L 406.23118811881193 100.00989857137122 L 414.34005687802824 107.65282541900515 L 422.4525981321537 106.72090216232354 L 430.3815146408258 103.24682604233197 L 438.4022435222246 108.28294651704343 L 446.51111228144094 129.53814965589584 L 454.62365353556635 152.36487120012976 L 462.5525700442385 148.65839539316744 L 470.5732989256373 143.8658070162523 L 478.68216768485365 138.33100773405909 L 486.79470893897906 135.343987803806 L 494.81176532546874 132.3090220406206 L 502.8324942068675 131.99751773988064 L 510.9413629660839 133.35616692178291 L 520.941362966084 133.35616692178291" fill="none"></path></g><g clip-path="none" style="" transform="translate(39,70) scale(1 1)"  visibility="visible" class="highcharts-markers highcharts-tracker"></g></g><text style="color:black;font-size:16px;font-weight:bold;font-family:arial;fill:black;width:536px;"  class="highcharts-title" text-anchor="start" y="30" x="15"><tspan x="15">Non-OPEC liquid fuels production and WTI crude oil prices</tspan></text><g transform="translate(130,348)"  class="highcharts-legend"><g ><g><g transform="translate(8,3)"  class="highcharts-legend-item"><text  text-anchor="start" style="color:#189bd7;font-size:12px;cursor:pointer;font-family:arial;text-decoration:none;fill:#189bd7;" y="15" x="21"><tspan x="21">non-OPEC liquid fuels production</tspan></text><rect fill="rgb(0,150,215)" fill-opacity="1" stroke-opacity="1"  ry="2" rx="2" height="12" width="16" y="4" x="0"></rect></g><g transform="translate(216.3333282470703,3)"  class="highcharts-legend-item"><path stroke-width="2" stroke="rgb(189,115,42)" stroke-opacity="1" d="M 0 11 L 16 11" fill="none"></path><text  text-anchor="start" style="color:#189bd7;font-size:12px;cursor:pointer;font-family:arial;text-decoration:none;fill:#189bd7;" y="15" x="21"><tspan x="21">WTI crude oil price</tspan></text></g></g></g></g><g  class="highcharts-axis-labels highcharts-xaxis-labels"><text opacity="1" style="color:black;cursor:default;font-size:11px;font-family:arial;fill:black;" text-anchor="middle" y="345" x="42.946095779790745"><tspan x="42.946095779790745">2001</tspan></text><text opacity="1" style="color:black;cursor:default;font-size:11px;font-family:arial;fill:black;" text-anchor="middle" y="345" x="75.11715118320343"><tspan x="75.11715118320343">2002</tspan></text><text opacity="1" style="color:black;cursor:default;font-size:11px;font-family:arial;fill:black;" text-anchor="middle" y="345" x="107.2882065866161"><tspan x="107.2882065866161">2003</tspan></text><text opacity="1" style="color:black;cursor:default;font-size:11px;font-family:arial;fill:black;" text-anchor="middle" y="345" x="139.45926199002878"><tspan x="139.45926199002878">2004</tspan></text><text opacity="1" style="color:black;cursor:default;font-size:11px;font-family:arial;fill:black;" text-anchor="middle" y="345" x="171.71845727125907"><tspan x="171.71845727125907">2005</tspan></text><text opacity="1" style="color:black;cursor:default;font-size:11px;font-family:arial;fill:black;" text-anchor="middle" y="345" x="203.88951267467175"><tspan x="203.88951267467175">2006</tspan></text><text opacity="1" style="color:black;cursor:default;font-size:11px;font-family:arial;fill:black;" text-anchor="middle" y="345" x="236.06056807808443"><tspan x="236.06056807808443">2007</tspan></text><text opacity="1" style="color:black;cursor:default;font-size:11px;font-family:arial;fill:black;" text-anchor="middle" y="345" x="268.2316234814971"><tspan x="268.2316234814971">2008</tspan></text><text opacity="1" style="color:black;cursor:default;font-size:11px;font-family:arial;fill:black;" text-anchor="middle" y="345" x="300.4908187627274"><tspan x="300.4908187627274">2009</tspan></text><text opacity="1" style="color:black;cursor:default;font-size:11px;font-family:arial;fill:black;" text-anchor="middle" y="345" x="332.66187416614"><tspan x="332.66187416614">2010</tspan></text><text opacity="1" style="color:black;cursor:default;font-size:11px;font-family:arial;fill:black;" text-anchor="middle" y="345" x="364.83292956955273"><tspan x="364.83292956955273">2011</tspan></text><text opacity="1" style="color:black;cursor:default;font-size:11px;font-family:arial;fill:black;" text-anchor="middle" y="345" x="397.0039849729654"><tspan x="397.0039849729654">2012</tspan></text><text opacity="1" style="color:black;cursor:default;font-size:11px;font-family:arial;fill:black;" text-anchor="middle" y="345" x="429.2631802541957"><tspan x="429.2631802541957">2013</tspan></text><text opacity="1" style="color:black;cursor:default;font-size:11px;font-family:arial;fill:black;" text-anchor="middle" y="345" x="461.4342356576083"><tspan x="461.4342356576083">2014</tspan></text><text opacity="1" style="color:black;cursor:default;font-size:11px;font-family:arial;fill:black;" text-anchor="middle" y="345" x="493.60529106102103"><tspan x="493.60529106102103">2015</tspan></text><text opacity="1" style="color:black;cursor:default;font-size:11px;font-family:arial;fill:black;" text-anchor="middle" y="345" x="525.7763464644337"><tspan x="525.7763464644337">2016</tspan></text><text style="color:black;cursor:default;font-size:11px;font-family:arial;fill:black;" text-anchor="middle" y="-9999" x="0"><tspan x="0">2017</tspan></text></g><g  class="highcharts-axis-labels highcharts-yaxis-labels"><text opacity="1" style="width:178px;color:rgb(0, 150, 215);cursor:default;font-size:11px;font-family:arial;fill:rgb(0, 150, 215);" text-anchor="end" y="330.5" x="31"><tspan x="31">-1</tspan></text><text opacity="1" style="width:178px;color:rgb(0, 150, 215);cursor:default;font-size:11px;font-family:arial;fill:rgb(0, 150, 215);" text-anchor="end" y="298.625" x="31"><tspan x="31">-0.5</tspan></text><text opacity="1" style="width:178px;color:rgb(0, 150, 215);cursor:default;font-size:11px;font-family:arial;fill:rgb(0, 150, 215);" text-anchor="end" y="266.75" x="31"><tspan x="31">0</tspan></text><text opacity="1" style="width:178px;color:rgb(0, 150, 215);cursor:default;font-size:11px;font-family:arial;fill:rgb(0, 150, 215);" text-anchor="end" y="234.875" x="31"><tspan x="31">0.5</tspan></text><text opacity="1" style="width:178px;color:rgb(0, 150, 215);cursor:default;font-size:11px;font-family:arial;fill:rgb(0, 150, 215);" text-anchor="end" y="203" x="31"><tspan x="31">1</tspan></text><text opacity="1" style="width:178px;color:rgb(0, 150, 215);cursor:default;font-size:11px;font-family:arial;fill:rgb(0, 150, 215);" text-anchor="end" y="171.125" x="31"><tspan x="31">1.5</tspan></text><text opacity="1" style="width:178px;color:rgb(0, 150, 215);cursor:default;font-size:11px;font-family:arial;fill:rgb(0, 150, 215);" text-anchor="end" y="139.25" x="31"><tspan x="31">2</tspan></text><text opacity="1" style="width:178px;color:rgb(0, 150, 215);cursor:default;font-size:11px;font-family:arial;fill:rgb(0, 150, 215);" text-anchor="end" y="107.375" x="31"><tspan x="31">2.5</tspan></text><text opacity="1" style="width:178px;color:rgb(0, 150, 215);cursor:default;font-size:11px;font-family:arial;fill:rgb(0, 150, 215);" text-anchor="end" y="75.5" x="31"><tspan x="31">3</tspan></text></g><g  class="highcharts-axis-labels highcharts-yaxis-labels"><text opacity="1" style="width:178px;color:rgb(189, 115, 42);cursor:default;font-size:11px;font-family:arial;fill:rgb(189, 115, 42);" text-anchor="start" y="337" x="570"></text><text opacity="1" style="width:178px;color:rgb(189, 115, 42);cursor:default;font-size:11px;font-family:arial;fill:rgb(189, 115, 42);" text-anchor="start" y="305.125" x="570"></text><text opacity="1" style="width:178px;color:rgb(189, 115, 42);cursor:default;font-size:11px;font-family:arial;fill:rgb(189, 115, 42);" text-anchor="start" y="266.75" x="570"><tspan x="570">0</tspan></text><text opacity="1" style="width:178px;color:rgb(189, 115, 42);cursor:default;font-size:11px;font-family:arial;fill:rgb(189, 115, 42);" text-anchor="start" y="234.875" x="570"><tspan x="570">35</tspan></text><text opacity="1" style="width:178px;color:rgb(189, 115, 42);cursor:default;font-size:11px;font-family:arial;fill:rgb(189, 115, 42);" text-anchor="start" y="203" x="570"><tspan x="570">70</tspan></text><text opacity="1" style="width:178px;color:rgb(189, 115, 42);cursor:default;font-size:11px;font-family:arial;fill:rgb(189, 115, 42);" text-anchor="start" y="171.125" x="570"><tspan x="570">105</tspan></text><text opacity="1" style="width:178px;color:rgb(189, 115, 42);cursor:default;font-size:11px;font-family:arial;fill:rgb(189, 115, 42);" text-anchor="start" y="139.25" x="570"><tspan x="570">140</tspan></text><text opacity="1" style="width:178px;color:rgb(189, 115, 42);cursor:default;font-size:11px;font-family:arial;fill:rgb(189, 115, 42);" text-anchor="start" y="107.375" x="570"><tspan x="570">175</tspan></text><text opacity="1" style="width:178px;color:rgb(189, 115, 42);cursor:default;font-size:11px;font-family:arial;fill:rgb(189, 115, 42);" text-anchor="start" y="75.5" x="570"><tspan x="570">210</tspan></text></g><g transform="translate(0,-9999)" style="cursor:default;padding:0;white-space:nowrap;"  class="highcharts-tooltip"><rect transform="translate(1, 1)" stroke-width="5" stroke-opacity="0.049999999999999996" stroke="black"  ry="3" rx="3" fill-opacity="0.85" fill="none" height="10" width="10" y="0.5" x="0.5"></rect><rect transform="translate(1, 1)" stroke-width="3" stroke-opacity="0.09999999999999999" stroke="black"  ry="3" rx="3" fill-opacity="0.85" fill="none" height="10" width="10" y="0.5" x="0.5"></rect><rect transform="translate(1, 1)" stroke-width="1" stroke-opacity="0.15" stroke="black"  ry="3" rx="3" fill-opacity="0.85" fill="none" height="10" width="10" y="0.5" x="0.5"></rect><rect ry="3" rx="3" fill-opacity="0.85" fill="rgb(255,255,255)" height="10" width="10" y="0.5" x="0.5"></rect><text style="font-size:12px;font-family:arial;color:#333333;fill:#333333;"  y="18" x="5"></text></g></svg>