<?xml version="1.0" standalone="no"?><!DOCTYPE svg PUBLIC "-//W3C//DTD SVG 1.1//EN" "http://www.w3.org/Graphics/SVG/1.1/DTD/svg11.dtd"><svg xmlns:xlink="http://www.w3.org/1999/xlink" height="400" width="600" xmlns="http://www.w3.org/2000/svg" style="font-family:'lucida grande', 'lucida sans unicode', verdana, arial, helvetica, sans-serif;font-size:12px;" version="1.1"><desc>Created with Highcharts 3.0.10</desc><defs><clipPath id="highcharts-15"><rect height="260" width="558" y="0" x="0"></rect></clipPath></defs><rect class=" highcharts-background" fill="#FFFFFF" height="400" width="600" y="0" x="0"></rect><path stroke-dasharray="3,1" stroke-width="1" stroke="#7f7f7f" d="M 512.5 55 L 512.5 315" fill="none"></path><path stroke-width="2" stroke="black" d="M 32 237 L 590 237" fill="none"></path><image xlink:href="../..//global/images/icons/icon_interactive.gif" height="17" width="69" y="23" x="625" preserveAspectRatio="none"></image><g  class="highcharts-grid"></g><g  class="highcharts-grid"><path opacity="1"  stroke-width="1" stroke="#C0C0C0" d="M 32 54.5 L 590 54.5" fill="none"></path><path opacity="1"  stroke-width="1" stroke="#C0C0C0" d="M 32 81.5 L 590 81.5" fill="none"></path><path opacity="1"  stroke-width="1" stroke="#C0C0C0" d="M 32 107.5 L 590 107.5" fill="none"></path><path opacity="1"  stroke-width="1" stroke="#C0C0C0" d="M 32 133.5 L 590 133.5" fill="none"></path><path opacity="1"  stroke-width="1" stroke="#C0C0C0" d="M 32 159.5 L 590 159.5" fill="none"></path><path opacity="1"  stroke-width="1" stroke="#C0C0C0" d="M 32 185.5 L 590 185.5" fill="none"></path><path opacity="1"  stroke-width="1" stroke="#C0C0C0" d="M 32 211.5 L 590 211.5" fill="none"></path><path opacity="1"  stroke-width="1" stroke="#C0C0C0" d="M 32 237.5 L 590 237.5" fill="none"></path><path opacity="1"  stroke-width="1" stroke="#C0C0C0" d="M 32 263.5 L 590 263.5" fill="none"></path><path opacity="1"  stroke-width="1" stroke="#C0C0C0" d="M 32 289.5 L 590 289.5" fill="none"></path><path opacity="1"  stroke-width="1" stroke="#C0C0C0" d="M 32 315.5 L 590 315.5" fill="none"></path></g><g  class="highcharts-axis"><path opacity="1" stroke-width="1" stroke="#C0D0E0" d="M 75.5 315 L 75.5 320" fill="none"></path><path opacity="1" stroke-width="1" stroke="#C0D0E0" d="M 109.5 315 L 109.5 320" fill="none"></path><path opacity="1" stroke-width="1" stroke="#C0D0E0" d="M 143.5 315 L 143.5 320" fill="none"></path><path opacity="1" stroke-width="1" stroke="#C0D0E0" d="M 177.5 315 L 177.5 320" fill="none"></path><path opacity="1" stroke-width="1" stroke="#C0D0E0" d="M 211.5 315 L 211.5 320" fill="none"></path><path opacity="1" stroke-width="1" stroke="#C0D0E0" d="M 245.5 315 L 245.5 320" fill="none"></path><path opacity="1" stroke-width="1" stroke="#C0D0E0" d="M 279.5 315 L 279.5 320" fill="none"></path><path opacity="1" stroke-width="1" stroke="#C0D0E0" d="M 313.5 315 L 313.5 320" fill="none"></path><path opacity="1" stroke-width="1" stroke="#C0D0E0" d="M 347.5 315 L 347.5 320" fill="none"></path><path opacity="1" stroke-width="1" stroke="#C0D0E0" d="M 381.5 315 L 381.5 320" fill="none"></path><path opacity="1" stroke-width="1" stroke="#C0D0E0" d="M 415.5 315 L 415.5 320" fill="none"></path><path opacity="1" stroke-width="1" stroke="#C0D0E0" d="M 449.5 315 L 449.5 320" fill="none"></path><path opacity="1" stroke-width="1" stroke="#C0D0E0" d="M 483.5 315 L 483.5 320" fill="none"></path><path opacity="1" stroke-width="1" stroke="#C0D0E0" d="M 517.5 315 L 517.5 320" fill="none"></path><path opacity="1" stroke-width="1" stroke="#C0D0E0" d="M 551.5 315 L 551.5 320" fill="none"></path><path opacity="1" stroke-width="1" stroke="#C0D0E0" d="M 585.5 315 L 585.5 320" fill="none"></path><path opacity="1" stroke-width="1" stroke="#C0D0E0" d="M 41.5 315 L 41.5 320" fill="none"></path><path visibility="visible"  stroke-width="1" stroke="#a8a9a9" d="M 32 315.5 L 590 315.5" fill="none"></path></g><g  class="highcharts-axis"></g><text style="position:absolute;color:black;font-size:12px;font-family:arial;fill:black;"  y="42" x="12"><tspan x="12">percentage change (year-on-year)</tspan></text><text style="position:absolute;color:gray;font-size:10px;font-family:arial;fill:gray;"  y="382" x="12"><tspan x="12">Source: </tspan><tspan dx="0">U.S. Energy Information Administration</tspan><tspan dx="0">,  </tspan><tspan dx="0">IHS Global Insight</tspan><tspan dx="0">.</tspan></text><text style="position:absolute;color:gray;font-size:10px;font-family:arial;fill:gray;"  y="394" x="12"><tspan x="12">Updated: Monthly | Last Updated: 02/10/2015</tspan></text><g  class="highcharts-series-group"><g clip-path="url(#highcharts-15)" style="" transform="translate(32,55) scale(1 1)"  visibility="visible" class="highcharts-series highcharts-tracker"><rect ry="0" rx="0" fill="rgb(0,150,215)" fill-opacity="1" height="24" width="5" y="159" x="8"></rect><rect ry="0" rx="0" fill="rgb(0,150,215)" fill-opacity="1" height="56" width="5" y="127" x="16"></rect><rect ry="0" rx="0" fill="rgb(0,150,215)" fill-opacity="1" height="6" width="5" y="177" x="24"></rect><rect ry="0" rx="0" fill="rgb(0,150,215)" fill-opacity="1" height="33" width="5" y="150" x="33"></rect><rect ry="0" rx="0" fill="rgb(0,150,215)" fill-opacity="1" height="17" width="5" y="166" x="42"></rect><rect ry="0" rx="0" fill="rgb(0,150,215)" fill-opacity="1" height="25" width="5" y="158" x="50"></rect><rect ry="0" rx="0" fill="rgb(0,150,215)" fill-opacity="1" height="45" width="5" y="138" x="58"></rect><rect ry="0" rx="0" fill="rgb(0,150,215)" fill-opacity="1" height="42" width="5" y="141" x="67"></rect><rect ry="0" rx="0" fill="rgb(0,150,215)" fill-opacity="1" height="30" width="5" y="153" x="76"></rect><rect ry="0" rx="0" fill="rgb(0,150,215)" fill-opacity="1" height="23" width="5" y="160" x="84"></rect><rect ry="0" rx="0" fill="rgb(0,150,215)" fill-opacity="1" height="51" width="5" y="132" x="92"></rect><rect ry="0" rx="0" fill="rgb(0,150,215)" fill-opacity="1" height="46" width="5" y="137" x="101"></rect><rect ry="0" rx="0" fill="rgb(0,150,215)" fill-opacity="1" height="80" width="5" y="103" x="110"></rect><rect ry="0" rx="0" fill="rgb(0,150,215)" fill-opacity="1" height="109" width="5" y="74" x="118"></rect><rect ry="0" rx="0" fill="rgb(0,150,215)" fill-opacity="1" height="68" width="5" y="115" x="126"></rect><rect ry="0" rx="0" fill="rgb(0,150,215)" fill-opacity="1" height="85" width="5" y="98" x="135"></rect><rect ry="0" rx="0" fill="rgb(0,150,215)" fill-opacity="1" height="86" width="5" y="97" x="144"></rect><rect ry="0" rx="0" fill="rgb(0,150,215)" fill-opacity="1" height="38" width="5" y="145" x="152"></rect><rect ry="0" rx="0" fill="rgb(0,150,215)" fill-opacity="1" height="65" width="5" y="118" x="160"></rect><rect ry="0" rx="0" fill="rgb(0,150,215)" fill-opacity="1" height="0" width="5" y="183" x="169"></rect><rect ry="0" rx="0" fill="rgb(0,150,215)" fill-opacity="1" height="40" width="5" y="143" x="178"></rect><rect ry="0" rx="0" fill="rgb(0,150,215)" fill-opacity="1" height="62" width="5" y="121" x="186"></rect><rect ry="0" rx="0" fill="rgb(0,150,215)" fill-opacity="1" height="50" width="5" y="133" x="194"></rect><rect ry="0" rx="0" fill="rgb(0,150,215)" fill-opacity="1" height="74" width="5" y="109" x="203"></rect><rect ry="0" rx="0" fill="rgb(0,150,215)" fill-opacity="1" height="23" width="5" y="160" x="212"></rect><rect ry="0" rx="0" fill="rgb(0,150,215)" fill-opacity="1" height="20" width="5" y="163" x="220"></rect><rect ry="0" rx="0" fill="rgb(0,150,215)" fill-opacity="1" height="46" width="5" y="137" x="228"></rect><rect ry="0" rx="0" fill="rgb(0,150,215)" fill-opacity="1" height="44" width="5" y="139" x="237"></rect><rect ry="0" rx="0" fill="rgb(0,150,215)" fill-opacity="1" height="47" width="5" y="136" x="246"></rect><rect ry="0" rx="0" fill="rgb(0,150,215)" fill-opacity="1" height="59" width="5" y="124" x="254"></rect><rect ry="0" rx="0" fill="rgb(0,150,215)" fill-opacity="1" height="3" width="5" y="183" x="263"></rect><rect ry="0" rx="0" fill="rgb(0,150,215)" fill-opacity="1" height="63" width="5" y="183" x="271"></rect><rect ry="0" rx="0" fill="rgb(0,150,215)" fill-opacity="1" height="31" width="5" y="183" x="280"></rect><rect ry="0" rx="0" fill="rgb(0,150,215)" fill-opacity="1" height="42" width="5" y="141" x="288"></rect><rect ry="0" rx="0" fill="rgb(0,150,215)" fill-opacity="1" height="143" width="5" y="40" x="297"></rect><rect ry="0" rx="0" fill="rgb(0,150,215)" fill-opacity="1" height="180" width="5" y="3" x="305"></rect><rect ry="0" rx="0" fill="rgb(0,150,215)" fill-opacity="1" height="103" width="5" y="80" x="314"></rect><rect ry="0" rx="0" fill="rgb(0,150,215)" fill-opacity="1" height="67" width="5" y="116" x="322"></rect><rect ry="0" rx="0" fill="rgb(0,150,215)" fill-opacity="1" height="30" width="5" y="153" x="331"></rect><rect ry="0" rx="0" fill="rgb(0,150,215)" fill-opacity="1" height="74" width="5" y="109" x="339"></rect><rect ry="0" rx="0" fill="rgb(0,150,215)" fill-opacity="1" height="96" width="5" y="87" x="348"></rect><rect ry="0" rx="0" fill="rgb(0,150,215)" fill-opacity="1" height="45" width="5" y="138" x="356"></rect><rect ry="0" rx="0" fill="rgb(0,150,215)" fill-opacity="1" height="39" width="5" y="144" x="365"></rect><rect ry="0" rx="0" fill="rgb(0,150,215)" fill-opacity="1" height="50" width="5" y="133" x="373"></rect><rect ry="0" rx="0" fill="rgb(0,150,215)" fill-opacity="1" height="14" width="5" y="169" x="382"></rect><rect ry="0" rx="0" fill="rgb(0,150,215)" fill-opacity="1" height="35" width="5" y="148" x="390"></rect><rect ry="0" rx="0" fill="rgb(0,150,215)" fill-opacity="1" height="48" width="5" y="135" x="399"></rect><rect ry="0" rx="0" fill="rgb(0,150,215)" fill-opacity="1" height="37" width="5" y="146" x="407"></rect><rect ry="0" rx="0" fill="rgb(0,150,215)" fill-opacity="1" height="57" width="5" y="126" x="416"></rect><rect ry="0" rx="0" fill="rgb(0,150,215)" fill-opacity="1" height="42" width="5" y="141" x="424"></rect><rect ry="0" rx="0" fill="rgb(0,150,215)" fill-opacity="1" height="25" width="5" y="158" x="433"></rect><rect ry="0" rx="0" fill="rgb(0,150,215)" fill-opacity="1" height="18" width="5" y="165" x="441"></rect><rect ry="0" rx="0" fill="rgb(0,150,215)" fill-opacity="1" height="30" width="5" y="153" x="450"></rect><rect ry="0" rx="0" fill="rgb(0,150,215)" fill-opacity="1" height="42" width="5" y="141" x="458"></rect><rect ry="0" rx="0" fill="rgb(0,150,215)" fill-opacity="1" height="40" width="5" y="143" x="467"></rect><rect ry="0" rx="0" fill="rgb(0,150,215)" fill-opacity="1" height="27" width="5" y="156" x="475"></rect><rect ry="0" rx="0" fill="rgb(0,150,215)" fill-opacity="1" height="20" width="5" y="163" x="484"></rect><rect ry="0" rx="0" fill="rgb(0,150,215)" fill-opacity="1" height="27" width="5" y="156" x="492"></rect><rect ry="0" rx="0" fill="rgb(0,150,215)" fill-opacity="1" height="25" width="5" y="158" x="501"></rect><rect ry="0" rx="0" fill="rgb(0,150,215)" fill-opacity="1" height="25" width="5" y="158" x="509"></rect><rect ry="0" rx="0" fill="rgb(0,150,215)" fill-opacity="1" height="30" width="5" y="153" x="518"></rect><rect ry="0" rx="0" fill="rgb(0,150,215)" fill-opacity="1" height="31" width="5" y="152" x="526"></rect><rect ry="0" rx="0" fill="rgb(0,150,215)" fill-opacity="1" height="31" width="5" y="152" x="535"></rect><rect ry="0" rx="0" fill="rgb(0,150,215)" fill-opacity="1" height="30" width="5" y="153" x="543"></rect></g><g clip-path="none" transform="translate(32,55) scale(1 1)"  visibility="visible" class="highcharts-markers"></g><g clip-path="url(#highcharts-15)" transform="translate(32,55) scale(1 1)"  visibility="visible" class="highcharts-series"><path stroke-linecap="round" stroke-linejoin="round"  stroke-width="2" stroke="rgb(93,151,50)" stroke-opacity="1" d="M 9.54627424195776 126.07304886540001 L 17.928470920221628 131.8297598007 L 26.39992247052256 136.4320807577 L 34.96839018608118 135.7554373006 L 43.540738548250104 135.80386346670002 L 51.922935226513964 126.36996307390001 L 60.394386776814905 118.3469390155 L 68.96285449237352 114.58675869809997 L 77.53520285454245 108.47150144740002 L 85.91739953280631 108.0196990028 L 94.38885108310724 90.9214536321 L 102.95731879866587 85.39454145820002 L 111.52966716083479 74.16063847659998 L 120.00499935774603 72.1334379246 L 128.47645090804698 86.28923411810001 L 137.0449186236056 86.21394945539998 L 145.61726698577453 91.5394134005 L 153.9994636640384 90.8388058097 L 162.47091521433933 88.27852729669999 L 171.03938292989795 82.9327494632 L 179.61173129206688 80.1213962393 L 187.99392797033073 77.769509857 L 196.46537952063167 77.4256288585 L 205.0338472361903 74.9477950195 L 213.60619559835922 70.35781268880001 L 221.98451163001278 68.6487784736 L 230.45984382692401 67.5318233395 L 239.02831154248264 72.4579530766 L 247.60065990465156 81.8874427241 L 256.07211145495245 93.7339978224 L 264.5474436518637 112.2677607558 L 273.1159113674223 153.17364108409998 L 281.68825972959127 176.23264139377 L 290.0665757612448 169.55720580461002 L 298.54190795815606 154.0279208715 L 307.11037567371466 115.786012927 L 315.6827240358836 82.97783043550001 L 324.06104006753714 81.74641540000002 L 332.5363722644484 88.24156374149999 L 341.104839980007 89.5149626852 L 349.67718834217595 95.96450450729998 L 358.0555043738295 105.0529698608 L 366.53083657074075 105.30507359319998 L 375.09930428629934 118.9097403884 L 383.6716526484683 124.8676173446 L 392.1431041987692 128.20622865960001 L 400.6184363956805 131.514837584 L 409.1869041112391 126.03511772670001 L 417.75925247340797 132.3269833977 L 426.13756850506155 127.76625260880002 L 434.6129007019728 127.75839768380001 L 443.1813684175314 125.2952082512 L 451.7537167797003 129.4654839803 L 460.1320328113539 132.8514929469 L 468.60736500826516 134.54502050730002 L 477.17583272382376 138.2337458372 L 485.74818108599266 137.2951449571 L 494.12649711764624 136.6889261517 L 502.6018293145575 133.8327435809 L 511.1702970301161 130.8535041671 L 519.7426453922851 126.1165892532 L 528.214096942586 125.7040080621 L 536.6894291394973 125.49646563089999 L 545.2578968550558 124.80331479199998" fill="none"></path><path style="" class=" highcharts-tracker"  stroke-width="22" stroke="rgb(192,192,192)" stroke-opacity="0.0001" visibility="visible" stroke-linejoin="round" d="M -0.45372575804223914 126.07304886540001 L 9.54627424195776 126.07304886540001 L 17.928470920221628 131.8297598007 L 26.39992247052256 136.4320807577 L 34.96839018608118 135.7554373006 L 43.540738548250104 135.80386346670002 L 51.922935226513964 126.36996307390001 L 60.394386776814905 118.3469390155 L 68.96285449237352 114.58675869809997 L 77.53520285454245 108.47150144740002 L 85.91739953280631 108.0196990028 L 94.38885108310724 90.9214536321 L 102.95731879866587 85.39454145820002 L 111.52966716083479 74.16063847659998 L 120.00499935774603 72.1334379246 L 128.47645090804698 86.28923411810001 L 137.0449186236056 86.21394945539998 L 145.61726698577453 91.5394134005 L 153.9994636640384 90.8388058097 L 162.47091521433933 88.27852729669999 L 171.03938292989795 82.9327494632 L 179.61173129206688 80.1213962393 L 187.99392797033073 77.769509857 L 196.46537952063167 77.4256288585 L 205.0338472361903 74.9477950195 L 213.60619559835922 70.35781268880001 L 221.98451163001278 68.6487784736 L 230.45984382692401 67.5318233395 L 239.02831154248264 72.4579530766 L 247.60065990465156 81.8874427241 L 256.07211145495245 93.7339978224 L 264.5474436518637 112.2677607558 L 273.1159113674223 153.17364108409998 L 281.68825972959127 176.23264139377 L 290.0665757612448 169.55720580461002 L 298.54190795815606 154.0279208715 L 307.11037567371466 115.786012927 L 315.6827240358836 82.97783043550001 L 324.06104006753714 81.74641540000002 L 332.5363722644484 88.24156374149999 L 341.104839980007 89.5149626852 L 349.67718834217595 95.96450450729998 L 358.0555043738295 105.0529698608 L 366.53083657074075 105.30507359319998 L 375.09930428629934 118.9097403884 L 383.6716526484683 124.8676173446 L 392.1431041987692 128.20622865960001 L 400.6184363956805 131.514837584 L 409.1869041112391 126.03511772670001 L 417.75925247340797 132.3269833977 L 426.13756850506155 127.76625260880002 L 434.6129007019728 127.75839768380001 L 443.1813684175314 125.2952082512 L 451.7537167797003 129.4654839803 L 460.1320328113539 132.8514929469 L 468.60736500826516 134.54502050730002 L 477.17583272382376 138.2337458372 L 485.74818108599266 137.2951449571 L 494.12649711764624 136.6889261517 L 502.6018293145575 133.8327435809 L 511.1702970301161 130.8535041671 L 519.7426453922851 126.1165892532 L 528.214096942586 125.7040080621 L 536.6894291394973 125.49646563089999 L 545.2578968550558 124.80331479199998 L 555.2578968550558 124.80331479199998" fill="none"></path></g><g clip-path="none" style="" transform="translate(32,55) scale(1 1)"  visibility="visible" class="highcharts-markers highcharts-tracker"></g></g><text style="color:black;font-size:16px;font-weight:bold;font-family:arial;fill:black;width:536px;"  class="highcharts-title" text-anchor="start" y="20" x="10"><tspan x="10">Non-OECD liquid fuels consumption and GDP</tspan></text><g transform="translate(130,343)"  class="highcharts-legend"><g ><g><g transform="translate(8,3)"  class="highcharts-legend-item"><text  text-anchor="start" style="color:#189bd7;font-size:12px;cursor:pointer;font-family:arial;text-decoration:none;fill:#189bd7;" y="15" x="21"><tspan x="21">non-OECD liquid fuels consumption</tspan></text><rect fill="rgb(0,150,215)" fill-opacity="1" stroke-opacity="1"  ry="2" rx="2" height="12" width="16" y="4" x="0"></rect></g><g transform="translate(229,3)"  class="highcharts-legend-item"><path stroke-width="2" stroke="rgb(93,151,50)" stroke-opacity="1" d="M 0 11 L 16 11" fill="none"></path><text  text-anchor="start" style="color:#189bd7;font-size:12px;cursor:pointer;font-family:arial;text-decoration:none;fill:#189bd7;" y="15" x="21"><tspan x="21">non-OECD GDP</tspan></text></g></g></g></g><g  class="highcharts-axis-labels highcharts-xaxis-labels"><text opacity="1" style="color:black;cursor:default;font-size:11px;font-family:arial;fill:black;" text-anchor="middle" y="335" x="41.52687100890623"><tspan x="41.52687100890623">2001</tspan></text><text opacity="1" style="color:black;cursor:default;font-size:11px;font-family:arial;fill:black;" text-anchor="middle" y="335" x="75.52133531519857"><tspan x="75.52133531519857">2002</tspan></text><text opacity="1" style="color:black;cursor:default;font-size:11px;font-family:arial;fill:black;" text-anchor="middle" y="335" x="109.51579962149091"><tspan x="109.51579962149091">2003</tspan></text><text opacity="1" style="color:black;cursor:default;font-size:11px;font-family:arial;fill:black;" text-anchor="middle" y="335" x="143.51026392778326"><tspan x="143.51026392778326">2004</tspan></text><text opacity="1" style="color:black;cursor:default;font-size:11px;font-family:arial;fill:black;" text-anchor="middle" y="335" x="177.597863752723"><tspan x="177.597863752723">2005</tspan></text><text opacity="1" style="color:black;cursor:default;font-size:11px;font-family:arial;fill:black;" text-anchor="middle" y="335" x="211.59232805901533"><tspan x="211.59232805901533">2006</tspan></text><text opacity="1" style="color:black;cursor:default;font-size:11px;font-family:arial;fill:black;" text-anchor="middle" y="335" x="245.58679236530767"><tspan x="245.58679236530767">2007</tspan></text><text opacity="1" style="color:black;cursor:default;font-size:11px;font-family:arial;fill:black;" text-anchor="middle" y="335" x="279.58125667160004"><tspan x="279.58125667160004">2008</tspan></text><text opacity="1" style="color:black;cursor:default;font-size:11px;font-family:arial;fill:black;" text-anchor="middle" y="335" x="313.6688564965397"><tspan x="313.6688564965397">2009</tspan></text><text opacity="1" style="color:black;cursor:default;font-size:11px;font-family:arial;fill:black;" text-anchor="middle" y="335" x="347.66332080283206"><tspan x="347.66332080283206">2010</tspan></text><text opacity="1" style="color:black;cursor:default;font-size:11px;font-family:arial;fill:black;" text-anchor="middle" y="335" x="381.6577851091244"><tspan x="381.6577851091244">2011</tspan></text><text opacity="1" style="color:black;cursor:default;font-size:11px;font-family:arial;fill:black;" text-anchor="middle" y="335" x="415.65224941541675"><tspan x="415.65224941541675">2012</tspan></text><text opacity="1" style="color:black;cursor:default;font-size:11px;font-family:arial;fill:black;" text-anchor="middle" y="335" x="449.7398492403565"><tspan x="449.7398492403565">2013</tspan></text><text opacity="1" style="color:black;cursor:default;font-size:11px;font-family:arial;fill:black;" text-anchor="middle" y="335" x="483.7343135466488"><tspan x="483.7343135466488">2014</tspan></text><text opacity="1" style="color:black;cursor:default;font-size:11px;font-family:arial;fill:black;" text-anchor="middle" y="335" x="517.7287778529412"><tspan x="517.7287778529412">2015</tspan></text><text opacity="1" style="color:black;cursor:default;font-size:11px;font-family:arial;fill:black;" text-anchor="middle" y="335" x="551.7232421592336"><tspan x="551.7232421592336">2016</tspan></text><text style="color:black;cursor:default;font-size:11px;font-family:arial;fill:black;" text-anchor="middle" y="-9999" x="0"><tspan x="0">2017</tspan></text></g><g  class="highcharts-axis-labels highcharts-yaxis-labels"><text opacity="1" style="width:178px;color:black;cursor:default;font-size:11px;font-family:arial;fill:black;" text-anchor="end" y="320.5" x="24"><tspan x="24">-6</tspan></text><text opacity="1" style="width:178px;color:black;cursor:default;font-size:11px;font-family:arial;fill:black;" text-anchor="end" y="294.5" x="24"><tspan x="24">-4</tspan></text><text opacity="1" style="width:178px;color:black;cursor:default;font-size:11px;font-family:arial;fill:black;" text-anchor="end" y="268.5" x="24"><tspan x="24">-2</tspan></text><text opacity="1" style="width:178px;color:black;cursor:default;font-size:11px;font-family:arial;fill:black;" text-anchor="end" y="242.5" x="24"><tspan x="24">0</tspan></text><text opacity="1" style="width:178px;color:black;cursor:default;font-size:11px;font-family:arial;fill:black;" text-anchor="end" y="216.5" x="24"><tspan x="24">2</tspan></text><text opacity="1" style="width:178px;color:black;cursor:default;font-size:11px;font-family:arial;fill:black;" text-anchor="end" y="190.5" x="24"><tspan x="24">4</tspan></text><text opacity="1" style="width:178px;color:black;cursor:default;font-size:11px;font-family:arial;fill:black;" text-anchor="end" y="164.5" x="24"><tspan x="24">6</tspan></text><text opacity="1" style="width:178px;color:black;cursor:default;font-size:11px;font-family:arial;fill:black;" text-anchor="end" y="138.5" x="24"><tspan x="24">8</tspan></text><text opacity="1" style="width:178px;color:black;cursor:default;font-size:11px;font-family:arial;fill:black;" text-anchor="end" y="112.5" x="24"><tspan x="24">10</tspan></text><text opacity="1" style="width:178px;color:black;cursor:default;font-size:11px;font-family:arial;fill:black;" text-anchor="end" y="86.5" x="24"><tspan x="24">12</tspan></text><text opacity="1" style="width:178px;color:black;cursor:default;font-size:11px;font-family:arial;fill:black;" text-anchor="end" y="60.5" x="24"><tspan x="24">14</tspan></text></g><g transform="translate(0,-9999)" style="cursor:default;padding:0;white-space:nowrap;"  class="highcharts-tooltip"><rect transform="translate(1, 1)" stroke-width="5" stroke-opacity="0.049999999999999996" stroke="black"  ry="3" rx="3" fill-opacity="0.85" fill="none" height="10" width="10" y="0.5" x="0.5"></rect><rect transform="translate(1, 1)" stroke-width="3" stroke-opacity="0.09999999999999999" stroke="black"  ry="3" rx="3" fill-opacity="0.85" fill="none" height="10" width="10" y="0.5" x="0.5"></rect><rect transform="translate(1, 1)" stroke-width="1" stroke-opacity="0.15" stroke="black"  ry="3" rx="3" fill-opacity="0.85" fill="none" height="10" width="10" y="0.5" x="0.5"></rect><rect ry="3" rx="3" fill-opacity="0.85" fill="rgb(255,255,255)" height="10" width="10" y="0.5" x="0.5"></rect><text style="font-size:12px;font-family:arial;color:#333333;fill:#333333;"  y="18" x="5"></text></g></svg>