<?xml version="1.0" standalone="no"?><!DOCTYPE svg PUBLIC "-//W3C//DTD SVG 1.1//EN" "http://www.w3.org/Graphics/SVG/1.1/DTD/svg11.dtd"><svg xmlns:xlink="http://www.w3.org/1999/xlink" height="400" width="600" xmlns="http://www.w3.org/2000/svg" style="font-family:'lucida grande', 'lucida sans unicode', verdana, arial, helvetica, sans-serif;font-size:12px;" version="1.1"><desc>Created with Highcharts 3.0.10</desc><defs><clipPath id="highcharts-11"><rect height="250" width="530" y="0" x="0"></rect></clipPath></defs><rect class=" highcharts-background" fill="#FFFFFF" height="400" width="600" y="0" x="0"></rect><path stroke-dasharray="3,1" stroke-width="1" stroke="#7f7f7f" d="M 490.5 65 L 490.5 315" fill="none"></path><image xlink:href="../..//global/images/icons/icon_interactive.gif" height="17" width="69" y="23" x="625" preserveAspectRatio="none"></image><g  class="highcharts-grid"></g><g  class="highcharts-grid"><path opacity="1"  stroke-width="1" stroke="#C0C0C0" d="M 30 64.5 L 560 64.5" fill="none"></path><path opacity="1"  stroke-width="1" stroke="#C0C0C0" d="M 30 128.5 L 560 128.5" fill="none"></path><path opacity="1"  stroke-width="1" stroke="#C0C0C0" d="M 30 190.5 L 560 190.5" fill="none"></path><path opacity="1"  stroke-width="1" stroke="#C0C0C0" d="M 30 253.5 L 560 253.5" fill="none"></path><path opacity="1"  stroke-width="1" stroke="#C0C0C0" d="M 30 315.5 L 560 315.5" fill="none"></path></g><g  class="highcharts-grid"><path opacity="1"  stroke-width="1" stroke="#C0C0C0" d="M 30 64.5 L 560 64.5" fill="none"></path><path opacity="1"  stroke-width="1" stroke="#C0C0C0" d="M 30 128.5 L 560 128.5" fill="none"></path><path opacity="1"  stroke-width="1" stroke="#C0C0C0" d="M 30 190.5 L 560 190.5" fill="none"></path><path opacity="1"  stroke-width="1" stroke="#C0C0C0" d="M 30 253.5 L 560 253.5" fill="none"></path><path opacity="1"  stroke-width="1" stroke="#C0C0C0" d="M 30 315.5 L 560 315.5" fill="none"></path></g><g  class="highcharts-axis"><path opacity="1" stroke-width="1" stroke="#C0D0E0" d="M 132.5 315 L 132.5 320" fill="none"></path><path opacity="1" stroke-width="1" stroke="#C0D0E0" d="M 197.5 315 L 197.5 320" fill="none"></path><path opacity="1" stroke-width="1" stroke="#C0D0E0" d="M 263.5 315 L 263.5 320" fill="none"></path><path opacity="1" stroke-width="1" stroke="#C0D0E0" d="M 328.5 315 L 328.5 320" fill="none"></path><path opacity="1" stroke-width="1" stroke="#C0D0E0" d="M 393.5 315 L 393.5 320" fill="none"></path><path opacity="1" stroke-width="1" stroke="#C0D0E0" d="M 459.5 315 L 459.5 320" fill="none"></path><path opacity="1" stroke-width="1" stroke="#C0D0E0" d="M 524.5 315 L 524.5 320" fill="none"></path><path opacity="1" stroke-width="1" stroke="#C0D0E0" d="M 67.5 315 L 67.5 320" fill="none"></path><path visibility="visible"  stroke-width="1" stroke="#a8a9a9" d="M 30 315.5 L 560 315.5" fill="none"></path></g><g  class="highcharts-axis"></g><g  class="highcharts-axis"></g><text style="position:absolute;color:#5d9732;font-family:arial;fill:#5d9732;font-size:10px;"  y="52" x="15"><tspan x="15">dollars per gallon (real 2010 dollars, monthly average)</tspan></text><text style="position:absolute;color:#0096d7;font-family:arial;fill:#0096d7;font-size:10px;"  y="52" x="450"><tspan x="450">$/bbl (real 2010 dollars, monthly average)</tspan></text><text style="position:absolute;color:gray;font-family:arial;fill:gray;font-size:10px;"  y="373" x="10"><tspan x="10">Note: Assumes a typical $1 per gallon markup of gasoline over the refiner acquisition cost of crude oil.</tspan></text><text style="position:absolute;color:gray;font-family:arial;fill:gray;font-size:10px;"  y="385" x="10"><tspan x="10">Source: </tspan><tspan dx="0">U.S. Energy Information Administration</tspan><tspan dx="0">, </tspan><tspan dx="0">Thomson Reuters</tspan></text><text style="position:absolute;color:gray;font-family:arial;fill:gray;font-size:10px;"  y="397" x="10"><tspan x="10">Updated: Monthly | Last Updated: 02/10/2015</tspan></text><g  class="highcharts-series-group"><g clip-path="url(#highcharts-11)" transform="translate(30,65) scale(1 1)"  visibility="visible" class="highcharts-series"><path stroke-linecap="round" stroke-linejoin="round"  stroke-width="2" stroke="#5D9732" d="M 5.196078431372549 202.0991532521627 L 7.967081895548517 202.14620801972524 L 10.46992373415907 205.47084122909285 L 13.240927198335038 195.0100011873487 L 15.918818986967459 183.8858082105885 L 18.689822451143428 190.5296628068577 L 21.37143870679759 205.35247498758318 L 24.142442170973556 205.45530604913526 L 26.913445635149525 197.98518687971503 L 29.595061890803688 213.60172100003 L 32.3697898220014 224.58575315855757 L 35.051406077655564 231.0137709291761 L 37.822409541831526 229.48316333424737 L 40.593413006007495 229.0884101969383 L 43.09625484461805 219.0566139486987 L 45.867258308794014 208.16237029254322 L 48.545150097426436 208.70056767312474 L 51.316153561602405 209.5572836592265 L 53.99776981725657 208.60368720447673 L 56.76877328143254 208.85841799934565 L 59.539776745608506 208.74370109006065 L 62.22139300126267 205.54172902827435 L 64.99612093246037 207.67854905864013 L 67.67773718811453 210.33183888264153 L 70.44874065229051 205.332476735895 L 73.21974411646647 194.10506858776202 L 75.72258595507702 188.4078749913101 L 78.493589419253 196.06710288821384 L 81.17148120788542 202.9348254170142 L 83.94248467206138 203.43105603275615 L 86.62410092771555 202.23379802171075 L 89.39510439189152 194.585152550562 L 92.16610785606748 190.5316240912703 L 94.84772411172165 199.0263176990762 L 97.62245204291936 202.98930799696052 L 100.30406829857353 205.65688412392308 L 103.07507176274949 199.32878936259897 L 105.84607522692545 194.2103530879269 L 108.43830427405781 188.20623602732604 L 111.20930773823378 184.17561498993916 L 113.8871995268662 171.28919329185766 L 116.65820299104217 172.62978854371073 L 119.33981924669634 176.9989569460032 L 122.1108227108723 179.65218736726598 L 124.88182617504827 180.53613123449847 L 127.56344243070244 171.66796106048946 L 130.33817036190015 173.4416362214335 L 133.0197866175543 183.5285431870688 L 135.79079008173028 184.7151275805814 L 138.56179354590626 179.56474516727613 L 141.0646353845168 168.162745336486 L 143.83563884869275 157.1088132472147 L 146.51353063732518 163.13502096377215 L 149.28453410150115 163.95357072624762 L 151.9661503571553 155.2575896214065 L 154.73715382133128 142.2780069097285 L 157.50815728550725 114.25981638877494 L 160.1897735411614 127.40617288665304 L 162.96450147235913 159.13736973549254 L 165.64611772801328 164.39070469345245 L 168.41712119218926 155.93057619026874 L 171.18812465636523 158.74100539608287 L 173.69096649497578 149.41662899439433 L 176.46196995915173 128.6311080928658 L 179.13986174778415 118.08550667986381 L 181.91086521196013 120.05057538743404 L 184.5924814676143 114.16422630761488 L 187.36348493179025 116.46495447246883 L 190.13448839596623 143.07976284453207 L 192.8161046516204 163.59748667401846 L 195.5908325828181 164.91667697883952 L 198.27244883847226 159.82840629090222 L 201.04345230264823 165.47156812364466 L 203.8144557668242 163.4431646824534 L 206.31729760543476 145.21217186003054 L 209.08457660258898 127.06482659789903 L 211.76619285824313 107.78236499597449 L 214.5371963224191 113.9114471383649 L 217.21881257807328 119.9694149401092 L 219.98981604224923 131.80111353593705 L 222.7608195064252 130.9009801224086 L 225.44243576207938 131.15011720987536 L 228.21343922625533 113.53948198578345 L 230.89877994893124 117.85632798813975 L 233.6697834131072 116.74199175981909 L 236.4407868772832 118.06517237941048 L 239.03301592441554 104.49664009441605 L 241.80029492156976 90.97789306146211 L 244.48191117722394 71.68260084104486 L 247.25291464139988 53.75685787619412 L 249.93453089705406 54.163688069858495 L 252.70553436123004 72.57749846438207 L 255.47653782540598 77.67186608944215 L 258.15815408106016 118.94545839443273 L 260.92915754523614 176.3989066273058 L 263.61449826791204 205.63813255929796 L 266.385501732088 199.3906182475559 L 269.156505196264 190.92705591017187 L 271.65934703487454 188.65040567994367 L 274.42662603202876 182.76194967081994 L 277.1082422876829 169.00275577685036 L 279.8792457518589 145.8457294924009 L 282.56086200751304 152.3991879296396 L 285.331865471689 146.75528875443746 L 288.102868935865 150.81525798460711 L 290.78448519151914 151.21702337342558 L 293.5554886556951 145.05981951166967 L 296.240829378371 148.02472683802964 L 299.011832842547 141.3928776311211 L 301.78283630672297 146.07602084882103 L 304.2856781453335 138.28740432086403 L 307.05295714248774 133.77855801721415 L 309.7345733981419 134.8070522288528 L 312.50557686231787 141.62803089185928 L 315.187193117972 142.04594174228936 L 317.958196582148 142.25023965887158 L 320.72920004632397 144.07384881955738 L 323.4108163019781 138.45662811362814 L 326.1818197661541 135.10833897550006 L 328.86716048883 127.07916889403617 L 331.63816395300597 120.94354728547574 L 334.40916741718195 114.10769439761151 L 336.9120092557925 92.93629720724596 L 339.6792882529467 78.98506110301179 L 342.36090450860087 72.9759587370562 L 345.13190797277684 87.32183820971557 L 347.813524228431 89.66777662060213 L 350.58452769260697 90.64955318982538 L 353.35553115678294 92.57412520493813 L 356.0371474124371 102.35418017346103 L 358.80815087661307 106.45397202213948 L 361.493491599289 113.90246818784817 L 364.26449506346495 107.45397105639137 L 367.0354985276409 95.72962251970847 L 369.62772757477325 79.59776933916461 L 372.39500657192747 76.96855272298023 L 375.0766228275817 87.47811839100615 L 377.84762629175765 99.49451078467158 L 380.5292425474118 105.91309213827174 L 383.3002460115878 89.29065352243023 L 386.0712494757637 81.97208671521798 L 388.7528657314179 88.31872446802822 L 391.5238691955939 106.13245485726429 L 394.2092099182698 114.80080265151841 L 396.9802133824457 114.54482800135992 L 399.7512168466217 93.8119814496549 L 402.2540586852322 91.58447244290957 L 405.02133768238645 100.15042743287663 L 407.70295393804065 97.74608262925747 L 410.4739574022166 97.35136130374954 L 413.1555736578708 99.77596357667889 L 415.92657712204675 101.08375580131738 L 418.6975805862227 103.80227956539585 L 421.3791968418769 115.19957905687048 L 424.15020030605285 121.38790158964224 L 426.83554102872876 119.62393191381793 L 429.60654449290473 117.63410455763531 L 432.37754795708065 115.3172946318551 L 434.8803897956912 105.23804157945742 L 437.6476687928454 98.24956656578874 L 440.3292850484996 97.88233829715406 L 443.1002885126756 97.07642136544746 L 445.78190476832975 102.01440495111623 L 448.55290823250573 109.48779442806995 L 451.3239116966817 114.32381350742415 L 454.00552795233585 128.62501676454593 L 456.77653141651183 143.91905404010768 L 459.46187213918773 165.57929750118566 L 462.2328756033637 188.41821771942793 L 465.00387906753963 189.84598906300639 L 467.5067209061502 186.67834447906915 L 470.27399990330446 182.02266306355438 L 472.9556161589586 176.67493354472953 L 475.7266196231346 176.07291880417762 L 478.40823587878873 176.09182959873226 L 481.1792393429647 175.15382545280136 L 483.9502428071407 173.3601877125967 L 486.63185906279483 175.1141679937066 L 489.4028625269708 176.26213630697129 L 492.0882032496467 177.00907318192662 L 494.8592067138227 176.11019039041258 L 497.6302101779986 170.7050713879721 L 500.222439225131 160.67566495946113 L 502.9897182222852 154.79473500695704 L 505.67133447793935 150.52830567796758 L 508.44233794211533 149.65276828675664 L 511.12395419776954 151.05020046563726 L 513.8949576619455 151.5836968457058 L 516.6659611261215 155.2318288158944 L 519.3475773817756 162.97504580433554 L 522.1185808459516 167.2681818094282 L 524.8039215686275 171.4179060939195" fill="none"></path><path style="" class=" highcharts-tracker"  stroke-width="22" stroke="rgb(192,192,192)" stroke-opacity="0.0001" visibility="visible" stroke-linejoin="round" d="M -4.803921568627451 202.0991532521627 L 5.196078431372549 202.0991532521627 L 7.967081895548517 202.14620801972524 L 10.46992373415907 205.47084122909285 L 13.240927198335038 195.0100011873487 L 15.918818986967459 183.8858082105885 L 18.689822451143428 190.5296628068577 L 21.37143870679759 205.35247498758318 L 24.142442170973556 205.45530604913526 L 26.913445635149525 197.98518687971503 L 29.595061890803688 213.60172100003 L 32.3697898220014 224.58575315855757 L 35.051406077655564 231.0137709291761 L 37.822409541831526 229.48316333424737 L 40.593413006007495 229.0884101969383 L 43.09625484461805 219.0566139486987 L 45.867258308794014 208.16237029254322 L 48.545150097426436 208.70056767312474 L 51.316153561602405 209.5572836592265 L 53.99776981725657 208.60368720447673 L 56.76877328143254 208.85841799934565 L 59.539776745608506 208.74370109006065 L 62.22139300126267 205.54172902827435 L 64.99612093246037 207.67854905864013 L 67.67773718811453 210.33183888264153 L 70.44874065229051 205.332476735895 L 73.21974411646647 194.10506858776202 L 75.72258595507702 188.4078749913101 L 78.493589419253 196.06710288821384 L 81.17148120788542 202.9348254170142 L 83.94248467206138 203.43105603275615 L 86.62410092771555 202.23379802171075 L 89.39510439189152 194.585152550562 L 92.16610785606748 190.5316240912703 L 94.84772411172165 199.0263176990762 L 97.62245204291936 202.98930799696052 L 100.30406829857353 205.65688412392308 L 103.07507176274949 199.32878936259897 L 105.84607522692545 194.2103530879269 L 108.43830427405781 188.20623602732604 L 111.20930773823378 184.17561498993916 L 113.8871995268662 171.28919329185766 L 116.65820299104217 172.62978854371073 L 119.33981924669634 176.9989569460032 L 122.1108227108723 179.65218736726598 L 124.88182617504827 180.53613123449847 L 127.56344243070244 171.66796106048946 L 130.33817036190015 173.4416362214335 L 133.0197866175543 183.5285431870688 L 135.79079008173028 184.7151275805814 L 138.56179354590626 179.56474516727613 L 141.0646353845168 168.162745336486 L 143.83563884869275 157.1088132472147 L 146.51353063732518 163.13502096377215 L 149.28453410150115 163.95357072624762 L 151.9661503571553 155.2575896214065 L 154.73715382133128 142.2780069097285 L 157.50815728550725 114.25981638877494 L 160.1897735411614 127.40617288665304 L 162.96450147235913 159.13736973549254 L 165.64611772801328 164.39070469345245 L 168.41712119218926 155.93057619026874 L 171.18812465636523 158.74100539608287 L 173.69096649497578 149.41662899439433 L 176.46196995915173 128.6311080928658 L 179.13986174778415 118.08550667986381 L 181.91086521196013 120.05057538743404 L 184.5924814676143 114.16422630761488 L 187.36348493179025 116.46495447246883 L 190.13448839596623 143.07976284453207 L 192.8161046516204 163.59748667401846 L 195.5908325828181 164.91667697883952 L 198.27244883847226 159.82840629090222 L 201.04345230264823 165.47156812364466 L 203.8144557668242 163.4431646824534 L 206.31729760543476 145.21217186003054 L 209.08457660258898 127.06482659789903 L 211.76619285824313 107.78236499597449 L 214.5371963224191 113.9114471383649 L 217.21881257807328 119.9694149401092 L 219.98981604224923 131.80111353593705 L 222.7608195064252 130.9009801224086 L 225.44243576207938 131.15011720987536 L 228.21343922625533 113.53948198578345 L 230.89877994893124 117.85632798813975 L 233.6697834131072 116.74199175981909 L 236.4407868772832 118.06517237941048 L 239.03301592441554 104.49664009441605 L 241.80029492156976 90.97789306146211 L 244.48191117722394 71.68260084104486 L 247.25291464139988 53.75685787619412 L 249.93453089705406 54.163688069858495 L 252.70553436123004 72.57749846438207 L 255.47653782540598 77.67186608944215 L 258.15815408106016 118.94545839443273 L 260.92915754523614 176.3989066273058 L 263.61449826791204 205.63813255929796 L 266.385501732088 199.3906182475559 L 269.156505196264 190.92705591017187 L 271.65934703487454 188.65040567994367 L 274.42662603202876 182.76194967081994 L 277.1082422876829 169.00275577685036 L 279.8792457518589 145.8457294924009 L 282.56086200751304 152.3991879296396 L 285.331865471689 146.75528875443746 L 288.102868935865 150.81525798460711 L 290.78448519151914 151.21702337342558 L 293.5554886556951 145.05981951166967 L 296.240829378371 148.02472683802964 L 299.011832842547 141.3928776311211 L 301.78283630672297 146.07602084882103 L 304.2856781453335 138.28740432086403 L 307.05295714248774 133.77855801721415 L 309.7345733981419 134.8070522288528 L 312.50557686231787 141.62803089185928 L 315.187193117972 142.04594174228936 L 317.958196582148 142.25023965887158 L 320.72920004632397 144.07384881955738 L 323.4108163019781 138.45662811362814 L 326.1818197661541 135.10833897550006 L 328.86716048883 127.07916889403617 L 331.63816395300597 120.94354728547574 L 334.40916741718195 114.10769439761151 L 336.9120092557925 92.93629720724596 L 339.6792882529467 78.98506110301179 L 342.36090450860087 72.9759587370562 L 345.13190797277684 87.32183820971557 L 347.813524228431 89.66777662060213 L 350.58452769260697 90.64955318982538 L 353.35553115678294 92.57412520493813 L 356.0371474124371 102.35418017346103 L 358.80815087661307 106.45397202213948 L 361.493491599289 113.90246818784817 L 364.26449506346495 107.45397105639137 L 367.0354985276409 95.72962251970847 L 369.62772757477325 79.59776933916461 L 372.39500657192747 76.96855272298023 L 375.0766228275817 87.47811839100615 L 377.84762629175765 99.49451078467158 L 380.5292425474118 105.91309213827174 L 383.3002460115878 89.29065352243023 L 386.0712494757637 81.97208671521798 L 388.7528657314179 88.31872446802822 L 391.5238691955939 106.13245485726429 L 394.2092099182698 114.80080265151841 L 396.9802133824457 114.54482800135992 L 399.7512168466217 93.8119814496549 L 402.2540586852322 91.58447244290957 L 405.02133768238645 100.15042743287663 L 407.70295393804065 97.74608262925747 L 410.4739574022166 97.35136130374954 L 413.1555736578708 99.77596357667889 L 415.92657712204675 101.08375580131738 L 418.6975805862227 103.80227956539585 L 421.3791968418769 115.19957905687048 L 424.15020030605285 121.38790158964224 L 426.83554102872876 119.62393191381793 L 429.60654449290473 117.63410455763531 L 432.37754795708065 115.3172946318551 L 434.8803897956912 105.23804157945742 L 437.6476687928454 98.24956656578874 L 440.3292850484996 97.88233829715406 L 443.1002885126756 97.07642136544746 L 445.78190476832975 102.01440495111623 L 448.55290823250573 109.48779442806995 L 451.3239116966817 114.32381350742415 L 454.00552795233585 128.62501676454593 L 456.77653141651183 143.91905404010768 L 459.46187213918773 165.57929750118566 L 462.2328756033637 188.41821771942793 L 465.00387906753963 189.84598906300639 L 467.5067209061502 186.67834447906915 L 470.27399990330446 182.02266306355438 L 472.9556161589586 176.67493354472953 L 475.7266196231346 176.07291880417762 L 478.40823587878873 176.09182959873226 L 481.1792393429647 175.15382545280136 L 483.9502428071407 173.3601877125967 L 486.63185906279483 175.1141679937066 L 489.4028625269708 176.26213630697129 L 492.0882032496467 177.00907318192662 L 494.8592067138227 176.11019039041258 L 497.6302101779986 170.7050713879721 L 500.222439225131 160.67566495946113 L 502.9897182222852 154.79473500695704 L 505.67133447793935 150.52830567796758 L 508.44233794211533 149.65276828675664 L 511.12395419776954 151.05020046563726 L 513.8949576619455 151.5836968457058 L 516.6659611261215 155.2318288158944 L 519.3475773817756 162.97504580433554 L 522.1185808459516 167.2681818094282 L 524.8039215686275 171.4179060939195 L 534.8039215686275 171.4179060939195" fill="none"></path></g><g clip-path="none" style="" transform="translate(30,65) scale(1 1)"  visibility="visible" class="highcharts-markers highcharts-tracker"></g><g clip-path="url(#highcharts-11)" transform="translate(30,65) scale(1 1)"  visibility="visible" class="highcharts-series"><path stroke-linecap="round" stroke-linejoin="round"  stroke-width="2" stroke="#0096d7" d="M 5.196078431372549 201.46314348859073 L 7.967081895548517 200.35125999714833 L 10.46992373415907 204.3365040191535 L 13.240927198335038 204.81299510734104 L 15.918818986967459 202.1782695138827 L 18.689822451143428 202.9852930726511 L 21.37143870679759 205.19806429862342 L 24.142442170973556 203.96494245716815 L 26.913445635149525 205.34938357961943 L 29.595061890803688 212.3323416611031 L 32.3697898220014 217.62832944155343 L 35.051406077655564 219.01122227785427 L 37.822409541831526 217.4230611593863 L 40.593413006007495 215.49325252367169 L 43.09625484461805 208.86022627319136 L 45.867258308794014 205.001129635832 L 48.545150097426436 203.3303432523498 L 51.316153561602405 205.22205954068363 L 53.99776981725657 203.2206293855518 L 56.76877328143254 201.3814609959316 L 59.539776745608506 198.73715297497637 L 62.22139300126267 200.60048720039657 L 64.99612093246037 204.5699842643155 L 67.67773718811453 200.36461648703883 L 70.44874065229051 193.89789348163833 L 73.21974411646647 189.44462590508596 L 75.72258595507702 193.83603615599017 L 78.493589419253 202.33505376260737 L 81.17148120788542 202.91020882006922 L 83.94248467206138 199.0017933486494 L 86.62410092771555 197.96528815735275 L 89.39510439189152 196.9646998433711 L 92.16610785606748 202.06776506684272 L 94.84772411172165 199.64990911655525 L 97.62245204291936 198.7936116096899 L 100.30406829857353 197.11309114059486 L 103.07507176274949 194.32343653547298 L 105.84607522692545 193.06301062138152 L 108.43830427405781 190.75282852109004 L 111.20930773823378 190.27232420683166 L 113.8871995268662 185.35372971110556 L 116.65820299104217 188.57927365401744 L 119.33981924669634 184.98785795656505 L 122.1108227108723 178.73047325480326 L 124.88182617504827 177.03963132165413 L 127.56344243070244 168.77241865116753 L 130.33817036190015 176.638528657286 L 133.0197866175543 185.8995746964519 L 135.79079008173028 181.93019618361484 L 138.56179354590626 178.57340038110846 L 141.0646353845168 168.81571752844553 L 143.83563884869275 169.0822482360914 L 146.51353063732518 172.52538335202135 L 149.28453410150115 163.33930187346618 L 151.9661503571553 157.59433459956674 L 154.73715382133128 148.49806742968082 L 157.50815728550725 147.26948893719518 L 160.1897735411614 152.60908942191935 L 162.96450147235913 161.43465253474272 L 165.64611772801328 161.0157998106772 L 168.41712119218926 153.090720903741 L 171.18812465636523 157.57600784882962 L 173.69096649497578 155.20011900921696 L 176.46196995915173 144.41955860401794 L 179.13986174778415 140.747187684587 L 181.91086521196013 141.3656524092874 L 184.5924814676143 135.4475493486409 L 187.36348493179025 137.4795033844263 L 190.13448839596623 152.32641513502767 L 192.8161046516204 160.37721843384074 L 195.5908325828181 161.27125774179194 L 198.27244883847226 157.61478958128532 L 201.04345230264823 166.68191929678363 L 203.8144557668242 160.9192768846404 L 206.31729760543476 157.24182858769032 L 209.08457660258898 151.1229672931504 L 211.76619285824313 149.6096212961029 L 214.5371963224191 144.17491546623927 L 217.21881257807328 134.33617621545383 L 219.98981604224923 137.36117155349714 L 222.7608195064252 130.89902861145038 L 225.44243576207938 120.81327917902914 L 228.21343922625533 109.85557018446664 L 230.89877994893124 112.50034135724587 L 233.6697834131072 110.90582078209806 L 236.4407868772832 106.9595475415498 L 239.03301592441554 92.9715695410681 L 241.80029492156976 80.09485016548956 L 244.48191117722394 61.924856688179744 L 247.25291464139988 46.85772251490451 L 249.93453089705406 44.82251429061827 L 252.70553436123004 69.44696754888724 L 255.47653782540598 93.17202286843519 L 258.15815408106016 132.29727097119866 L 260.92915754523614 165.48356649317907 L 263.61449826791204 190.34548686290387 L 266.385501732088 190.78084235105507 L 269.156505196264 189.6956466385783 L 271.65934703487454 177.9609668492167 L 274.42662603202876 172.78401543365786 L 277.1082422876829 161.38704715595395 L 279.8792457518589 145.91235214628398 L 282.56086200751304 149.27558251104773 L 285.331865471689 142.3235847195976 L 288.102868935865 142.7904813613673 L 290.78448519151914 136.08253841015693 L 293.5554886556951 132.41170096203098 L 296.240829378371 134.9508948397187 L 299.011832842547 131.0758232375416 L 301.78283630672297 132.640881570585 L 304.2856781453335 128.3258651732258 L 307.05295714248774 123.20236851164242 L 309.7345733981419 136.19306126990733 L 312.50557686231787 136.36685634818318 L 315.187193117972 134.85957200786984 L 317.958196582148 133.71650737928275 L 320.72920004632397 135.0437036536443 L 323.4108163019781 129.18574720688918 L 326.1818197661541 124.58800460098966 L 328.86716048883 116.88172040128975 L 331.63816395300597 113.76639769139592 L 334.40916741718195 109.96382415203564 L 336.9120092557925 92.12067337969955 L 339.6792882529467 77.13011070338109 L 342.36090450860087 84.68413925428897 L 345.13190797277684 90.5548926399365 L 347.813524228431 90.24329057355408 L 350.58452769260697 101.11015103207905 L 353.35553115678294 98.67820909739564 L 356.0371474124371 96.76359411285512 L 358.80815087661307 86.68549773576007 L 361.493491599289 89.31889200622882 L 364.26449506346495 91.19549045351138 L 367.0354985276409 87.7212470605738 L 369.62772757477325 82.32611524047604 L 372.39500657192747 84.42025729833139 L 375.0766228275817 94.49388756380267 L 377.84762629175765 111.61791036212222 L 380.5292425474118 110.58146861273806 L 383.3002460115878 103.50293463080368 L 386.0712494757637 97.29809459757556 L 388.7528657314179 100.34032478970113 L 391.5238691955939 105.34691809289518 L 394.2092099182698 108.07390572176578 L 396.9802133824457 99.70677840874683 L 399.7512168466217 98.86989453724448 L 402.2540586852322 99.35480731152398 L 405.02133768238645 102.04762709071781 L 407.70295393804065 101.22138527541821 L 410.4739574022166 103.63543725759078 L 413.1555736578708 96.2030689044702 L 415.92657712204675 92.9352561462043 L 418.6975805862227 93.87846046641334 L 421.3791968418769 101.8808578175728 L 424.15020030605285 112.50419378880127 L 426.83554102872876 111.18857021510885 L 429.60654449290473 112.46144496777399 L 432.37754795708065 104.1215173395594 L 434.8803897956912 103.27352725592036 L 437.6476687928454 103.58163713882726 L 440.3292850484996 103.07944838707226 L 443.1002885126756 100.53807542048224 L 445.78190476832975 102.56536859088916 L 448.55290823250573 110.82032859076273 L 451.3239116966817 115.79093470972072 L 454.00552795233585 127.64382719413365 L 456.77653141651183 141.7660833690416 L 459.46187213918773 165.794779471251 L 462.2328756033637 185.09688132619937 L 465.00387906753963 185.20547978525548 L 467.5067209061502 183.87528089185577 L 470.27399990330446 181.1150502257915 L 472.9556161589586 178.35976757442538 L 475.7266196231346 175.61087447981816 L 478.40823587878873 172.85546297074077 L 481.1792393429647 170.1275384830422 L 483.9502428071407 167.41555406691285 L 486.63185906279483 164.72534134714746 L 489.4028625269708 160.62495977792707 L 492.0882032496467 156.54352846633708 L 494.8592067138227 158.15900655321724 L 497.6302101779986 155.49825706748365 L 500.222439225131 152.83172258269155 L 502.9897182222852 151.54901026559202 L 505.67133447793935 150.28151595059802 L 508.44233794211533 149.01378301707763 L 511.12395419776954 149.13033547184753 L 513.8949576619455 149.27121588846552 L 516.6659611261215 150.81691046878368 L 519.3475773817756 152.378536882196 L 522.1185808459516 152.5292801274241 L 524.8039215686275 151.2882253046674" fill="none"></path><path style="" class=" highcharts-tracker"  stroke-width="22" stroke="rgb(192,192,192)" stroke-opacity="0.0001" visibility="visible" stroke-linejoin="round" d="M -4.803921568627451 201.46314348859073 L 5.196078431372549 201.46314348859073 L 7.967081895548517 200.35125999714833 L 10.46992373415907 204.3365040191535 L 13.240927198335038 204.81299510734104 L 15.918818986967459 202.1782695138827 L 18.689822451143428 202.9852930726511 L 21.37143870679759 205.19806429862342 L 24.142442170973556 203.96494245716815 L 26.913445635149525 205.34938357961943 L 29.595061890803688 212.3323416611031 L 32.3697898220014 217.62832944155343 L 35.051406077655564 219.01122227785427 L 37.822409541831526 217.4230611593863 L 40.593413006007495 215.49325252367169 L 43.09625484461805 208.86022627319136 L 45.867258308794014 205.001129635832 L 48.545150097426436 203.3303432523498 L 51.316153561602405 205.22205954068363 L 53.99776981725657 203.2206293855518 L 56.76877328143254 201.3814609959316 L 59.539776745608506 198.73715297497637 L 62.22139300126267 200.60048720039657 L 64.99612093246037 204.5699842643155 L 67.67773718811453 200.36461648703883 L 70.44874065229051 193.89789348163833 L 73.21974411646647 189.44462590508596 L 75.72258595507702 193.83603615599017 L 78.493589419253 202.33505376260737 L 81.17148120788542 202.91020882006922 L 83.94248467206138 199.0017933486494 L 86.62410092771555 197.96528815735275 L 89.39510439189152 196.9646998433711 L 92.16610785606748 202.06776506684272 L 94.84772411172165 199.64990911655525 L 97.62245204291936 198.7936116096899 L 100.30406829857353 197.11309114059486 L 103.07507176274949 194.32343653547298 L 105.84607522692545 193.06301062138152 L 108.43830427405781 190.75282852109004 L 111.20930773823378 190.27232420683166 L 113.8871995268662 185.35372971110556 L 116.65820299104217 188.57927365401744 L 119.33981924669634 184.98785795656505 L 122.1108227108723 178.73047325480326 L 124.88182617504827 177.03963132165413 L 127.56344243070244 168.77241865116753 L 130.33817036190015 176.638528657286 L 133.0197866175543 185.8995746964519 L 135.79079008173028 181.93019618361484 L 138.56179354590626 178.57340038110846 L 141.0646353845168 168.81571752844553 L 143.83563884869275 169.0822482360914 L 146.51353063732518 172.52538335202135 L 149.28453410150115 163.33930187346618 L 151.9661503571553 157.59433459956674 L 154.73715382133128 148.49806742968082 L 157.50815728550725 147.26948893719518 L 160.1897735411614 152.60908942191935 L 162.96450147235913 161.43465253474272 L 165.64611772801328 161.0157998106772 L 168.41712119218926 153.090720903741 L 171.18812465636523 157.57600784882962 L 173.69096649497578 155.20011900921696 L 176.46196995915173 144.41955860401794 L 179.13986174778415 140.747187684587 L 181.91086521196013 141.3656524092874 L 184.5924814676143 135.4475493486409 L 187.36348493179025 137.4795033844263 L 190.13448839596623 152.32641513502767 L 192.8161046516204 160.37721843384074 L 195.5908325828181 161.27125774179194 L 198.27244883847226 157.61478958128532 L 201.04345230264823 166.68191929678363 L 203.8144557668242 160.9192768846404 L 206.31729760543476 157.24182858769032 L 209.08457660258898 151.1229672931504 L 211.76619285824313 149.6096212961029 L 214.5371963224191 144.17491546623927 L 217.21881257807328 134.33617621545383 L 219.98981604224923 137.36117155349714 L 222.7608195064252 130.89902861145038 L 225.44243576207938 120.81327917902914 L 228.21343922625533 109.85557018446664 L 230.89877994893124 112.50034135724587 L 233.6697834131072 110.90582078209806 L 236.4407868772832 106.9595475415498 L 239.03301592441554 92.9715695410681 L 241.80029492156976 80.09485016548956 L 244.48191117722394 61.924856688179744 L 247.25291464139988 46.85772251490451 L 249.93453089705406 44.82251429061827 L 252.70553436123004 69.44696754888724 L 255.47653782540598 93.17202286843519 L 258.15815408106016 132.29727097119866 L 260.92915754523614 165.48356649317907 L 263.61449826791204 190.34548686290387 L 266.385501732088 190.78084235105507 L 269.156505196264 189.6956466385783 L 271.65934703487454 177.9609668492167 L 274.42662603202876 172.78401543365786 L 277.1082422876829 161.38704715595395 L 279.8792457518589 145.91235214628398 L 282.56086200751304 149.27558251104773 L 285.331865471689 142.3235847195976 L 288.102868935865 142.7904813613673 L 290.78448519151914 136.08253841015693 L 293.5554886556951 132.41170096203098 L 296.240829378371 134.9508948397187 L 299.011832842547 131.0758232375416 L 301.78283630672297 132.640881570585 L 304.2856781453335 128.3258651732258 L 307.05295714248774 123.20236851164242 L 309.7345733981419 136.19306126990733 L 312.50557686231787 136.36685634818318 L 315.187193117972 134.85957200786984 L 317.958196582148 133.71650737928275 L 320.72920004632397 135.0437036536443 L 323.4108163019781 129.18574720688918 L 326.1818197661541 124.58800460098966 L 328.86716048883 116.88172040128975 L 331.63816395300597 113.76639769139592 L 334.40916741718195 109.96382415203564 L 336.9120092557925 92.12067337969955 L 339.6792882529467 77.13011070338109 L 342.36090450860087 84.68413925428897 L 345.13190797277684 90.5548926399365 L 347.813524228431 90.24329057355408 L 350.58452769260697 101.11015103207905 L 353.35553115678294 98.67820909739564 L 356.0371474124371 96.76359411285512 L 358.80815087661307 86.68549773576007 L 361.493491599289 89.31889200622882 L 364.26449506346495 91.19549045351138 L 367.0354985276409 87.7212470605738 L 369.62772757477325 82.32611524047604 L 372.39500657192747 84.42025729833139 L 375.0766228275817 94.49388756380267 L 377.84762629175765 111.61791036212222 L 380.5292425474118 110.58146861273806 L 383.3002460115878 103.50293463080368 L 386.0712494757637 97.29809459757556 L 388.7528657314179 100.34032478970113 L 391.5238691955939 105.34691809289518 L 394.2092099182698 108.07390572176578 L 396.9802133824457 99.70677840874683 L 399.7512168466217 98.86989453724448 L 402.2540586852322 99.35480731152398 L 405.02133768238645 102.04762709071781 L 407.70295393804065 101.22138527541821 L 410.4739574022166 103.63543725759078 L 413.1555736578708 96.2030689044702 L 415.92657712204675 92.9352561462043 L 418.6975805862227 93.87846046641334 L 421.3791968418769 101.8808578175728 L 424.15020030605285 112.50419378880127 L 426.83554102872876 111.18857021510885 L 429.60654449290473 112.46144496777399 L 432.37754795708065 104.1215173395594 L 434.8803897956912 103.27352725592036 L 437.6476687928454 103.58163713882726 L 440.3292850484996 103.07944838707226 L 443.1002885126756 100.53807542048224 L 445.78190476832975 102.56536859088916 L 448.55290823250573 110.82032859076273 L 451.3239116966817 115.79093470972072 L 454.00552795233585 127.64382719413365 L 456.77653141651183 141.7660833690416 L 459.46187213918773 165.794779471251 L 462.2328756033637 185.09688132619937 L 465.00387906753963 185.20547978525548 L 467.5067209061502 183.87528089185577 L 470.27399990330446 181.1150502257915 L 472.9556161589586 178.35976757442538 L 475.7266196231346 175.61087447981816 L 478.40823587878873 172.85546297074077 L 481.1792393429647 170.1275384830422 L 483.9502428071407 167.41555406691285 L 486.63185906279483 164.72534134714746 L 489.4028625269708 160.62495977792707 L 492.0882032496467 156.54352846633708 L 494.8592067138227 158.15900655321724 L 497.6302101779986 155.49825706748365 L 500.222439225131 152.83172258269155 L 502.9897182222852 151.54901026559202 L 505.67133447793935 150.28151595059802 L 508.44233794211533 149.01378301707763 L 511.12395419776954 149.13033547184753 L 513.8949576619455 149.27121588846552 L 516.6659611261215 150.81691046878368 L 519.3475773817756 152.378536882196 L 522.1185808459516 152.5292801274241 L 524.8039215686275 151.2882253046674 L 534.8039215686275 151.2882253046674" fill="none"></path></g><g clip-path="none" style="" transform="translate(30,65) scale(1 1)"  visibility="visible" class="highcharts-markers highcharts-tracker"></g></g><text style="color:black;font-size:16px;font-weight:bold;font-family:arial;fill:black;width:536px;"  class="highcharts-title" text-anchor="start" y="30" x="15"><tspan x="15">U.S. retail regular gasoline price, refiner acquisition cost of crude oil</tspan></text><g transform="translate(86,333)"  class="highcharts-legend"><g ><g><g transform="translate(8,3)"  class="highcharts-legend-item"><path stroke-width="2" stroke="#5D9732" d="M 0 11 L 16 11" fill="none"></path><text  text-anchor="start" style="color:#189bd7;font-size:12px;cursor:pointer;font-family:arial;text-decoration:none;fill:#189bd7;" y="15" x="21"><tspan x="21">U.S. retail price of regular gasoline</tspan></text></g><g transform="translate(223,3)"  class="highcharts-legend-item"><path stroke-width="2" stroke="#0096d7" d="M 0 11 L 16 11" fill="none"></path><text  text-anchor="start" style="color:#189bd7;font-size:12px;cursor:pointer;font-family:arial;text-decoration:none;fill:#189bd7;" y="15" x="21"><tspan x="21">refiner acquisition cost of crude oil</tspan></text></g></g></g></g><g  class="highcharts-axis-labels highcharts-xaxis-labels"><text opacity="1" style="color:black;cursor:default;font-size:11px;font-family:arial;fill:black;" text-anchor="middle" y="335" x="67.80378720672282"><tspan x="67.80378720672282">2002</tspan></text><text opacity="1" style="color:black;cursor:default;font-size:11px;font-family:arial;fill:black;" text-anchor="middle" y="335" x="133.05644942764079"><tspan x="133.05644942764079">2004</tspan></text><text opacity="1" style="color:black;cursor:default;font-size:11px;font-family:arial;fill:black;" text-anchor="middle" y="335" x="198.39849885708054"><tspan x="198.39849885708054">2006</tspan></text><text opacity="1" style="color:black;cursor:default;font-size:11px;font-family:arial;fill:black;" text-anchor="middle" y="335" x="263.6511610779985"><tspan x="263.6511610779985">2008</tspan></text><text opacity="1" style="color:black;cursor:default;font-size:11px;font-family:arial;fill:black;" text-anchor="middle" y="335" x="328.9932105074383"><tspan x="328.9932105074383">2010</tspan></text><text opacity="1" style="color:black;cursor:default;font-size:11px;font-family:arial;fill:black;" text-anchor="middle" y="335" x="394.24587272835623"><tspan x="394.24587272835623">2012</tspan></text><text opacity="1" style="color:black;cursor:default;font-size:11px;font-family:arial;fill:black;" text-anchor="middle" y="335" x="459.587922157796"><tspan x="459.587922157796">2014</tspan></text><text style="color:black;cursor:default;font-size:11px;font-family:arial;fill:black;" text-anchor="middle" y="-9999" x="0"><tspan x="0">2016</tspan></text></g><g  class="highcharts-axis-labels highcharts-yaxis-labels"><text opacity="1" style="width:10px;color:#5d9732;cursor:default;font-size:11px;font-family:arial;fill:#5d9732;" text-anchor="end" y="320.5" x="22"><tspan x="22">1</tspan></text><text opacity="1" style="width:10px;color:#5d9732;cursor:default;font-size:11px;font-family:arial;fill:#5d9732;" text-anchor="end" y="258" x="22"><tspan x="22">2</tspan></text><text opacity="1" style="width:10px;color:#5d9732;cursor:default;font-size:11px;font-family:arial;fill:#5d9732;" text-anchor="end" y="195.5" x="22"><tspan x="22">3</tspan></text><text opacity="1" style="width:10px;color:#5d9732;cursor:default;font-size:11px;font-family:arial;fill:#5d9732;" text-anchor="end" y="133" x="22"><tspan x="22">4</tspan></text><text opacity="1" style="width:10px;color:#5d9732;cursor:default;font-size:11px;font-family:arial;fill:#5d9732;" text-anchor="end" y="70.5" x="22"><tspan x="22">5</tspan></text></g><g  class="highcharts-axis-labels highcharts-yaxis-labels"><text opacity="1" style="width:10px;color:#0096d7;cursor:default;font-size:11px;font-family:arial;fill:#0096d7;" text-anchor="start" y="320.5" x="568"><tspan x="568">0</tspan></text><text opacity="1" style="width:10px;color:#0096d7;cursor:default;font-size:11px;font-family:arial;fill:#0096d7;" text-anchor="start" y="258" x="568"><tspan x="568">40</tspan></text><text opacity="1" style="width:10px;color:#0096d7;cursor:default;font-size:11px;font-family:arial;fill:#0096d7;" text-anchor="start" y="195.5" x="568"><tspan x="568">80</tspan></text><text opacity="1" style="width:10px;color:#0096d7;cursor:default;font-size:11px;font-family:arial;fill:#0096d7;" text-anchor="start" y="133" x="568"><tspan x="568">120</tspan></text><text opacity="1" style="width:10px;color:#0096d7;cursor:default;font-size:11px;font-family:arial;fill:#0096d7;" text-anchor="start" y="70.5" x="568"><tspan x="568">160</tspan></text></g><g transform="translate(0,-9999)" style="cursor:default;padding:0;white-space:nowrap;"  class="highcharts-tooltip"><rect transform="translate(1, 1)" stroke-width="5" stroke-opacity="0.049999999999999996" stroke="black"  ry="3" rx="3" fill-opacity="0.85" fill="none" height="10" width="10" y="0.5" x="0.5"></rect><rect transform="translate(1, 1)" stroke-width="3" stroke-opacity="0.09999999999999999" stroke="black"  ry="3" rx="3" fill-opacity="0.85" fill="none" height="10" width="10" y="0.5" x="0.5"></rect><rect transform="translate(1, 1)" stroke-width="1" stroke-opacity="0.15" stroke="black"  ry="3" rx="3" fill-opacity="0.85" fill="none" height="10" width="10" y="0.5" x="0.5"></rect><rect ry="3" rx="3" fill-opacity="0.85" fill="rgb(255,255,255)" height="10" width="10" y="0.5" x="0.5"></rect><text style="font-size:12px;font-family:arial;color:#333333;fill:#333333;"  y="18" x="5"></text></g></svg>