<?xml version="1.0" standalone="no"?><!DOCTYPE svg PUBLIC "-//W3C//DTD SVG 1.1//EN" "http://www.w3.org/Graphics/SVG/1.1/DTD/svg11.dtd"><svg xmlns:xlink="http://www.w3.org/1999/xlink" version="1.1" style="font-family:'lucida grande', 'lucida sans unicode', verdana, arial, helvetica, sans-serif;font-size:12px;" xmlns="http://www.w3.org/2000/svg" width="600" height="400"><desc>Created with Highcharts 3.0.10</desc><defs><clipPath id="highcharts-17"><rect x="0" y="0" width="527" height="245"></rect></clipPath></defs><rect x="0" y="0" width="600" height="400" fill="#FFFFFF" class=" highcharts-background"></rect><path fill="none" d="M 37 223 L 564 223" stroke="black" stroke-width="2"></path><image preserveAspectRatio="none" x="625" y="23" width="69" height="17" xmlns:xlink="http://www.w3.org/1999/xlink" xlink:href="../..//global/images/icons/icon_interactive.gif"></image><g class="highcharts-grid" ></g><g class="highcharts-grid" ><path fill="none" d="M 37 69.5 L 564 69.5" stroke="#C0C0C0" stroke-width="1"  opacity="1"></path><path fill="none" d="M 37 101.5 L 564 101.5" stroke="#C0C0C0" stroke-width="1"  opacity="1"></path><path fill="none" d="M 37 131.5 L 564 131.5" stroke="#C0C0C0" stroke-width="1"  opacity="1"></path><path fill="none" d="M 37 162.5 L 564 162.5" stroke="#C0C0C0" stroke-width="1"  opacity="1"></path><path fill="none" d="M 37 193.5 L 564 193.5" stroke="#C0C0C0" stroke-width="1"  opacity="1"></path><path fill="none" d="M 37 223.5 L 564 223.5" stroke="#C0C0C0" stroke-width="1"  opacity="1"></path><path fill="none" d="M 37 254.5 L 564 254.5" stroke="#C0C0C0" stroke-width="1"  opacity="1"></path><path fill="none" d="M 37 284.5 L 564 284.5" stroke="#C0C0C0" stroke-width="1"  opacity="1"></path><path fill="none" d="M 37 315.5 L 564 315.5" stroke="#C0C0C0" stroke-width="1"  opacity="1"></path></g><g class="highcharts-grid" ><path fill="none" d="M 37 69.5 L 564 69.5" stroke="#C0C0C0" stroke-width="1"  opacity="1"></path><path fill="none" d="M 37 101.5 L 564 101.5" stroke="#C0C0C0" stroke-width="1"  opacity="1"></path><path fill="none" d="M 37 131.5 L 564 131.5" stroke="#C0C0C0" stroke-width="1"  opacity="1"></path><path fill="none" d="M 37 162.5 L 564 162.5" stroke="#C0C0C0" stroke-width="1"  opacity="1"></path><path fill="none" d="M 37 193.5 L 564 193.5" stroke="#C0C0C0" stroke-width="1"  opacity="1"></path><path fill="none" d="M 37 223.5 L 564 223.5" stroke="#C0C0C0" stroke-width="1"  opacity="1"></path><path fill="none" d="M 37 254.5 L 564 254.5" stroke="#C0C0C0" stroke-width="1"  opacity="1"></path><path fill="none" d="M 37 284.5 L 564 284.5" stroke="#C0C0C0" stroke-width="1"  opacity="1"></path><path fill="none" d="M 37 315.5 L 564 315.5" stroke="#C0C0C0" stroke-width="1"  opacity="1"></path></g><g class="highcharts-axis" ><path fill="none" d="M 83.5 315 L 83.5 320" stroke="#C0D0E0" stroke-width="1" opacity="1"></path><path fill="none" d="M 119.5 315 L 119.5 320" stroke="#C0D0E0" stroke-width="1" opacity="1"></path><path fill="none" d="M 156.5 315 L 156.5 320" stroke="#C0D0E0" stroke-width="1" opacity="1"></path><path fill="none" d="M 193.5 315 L 193.5 320" stroke="#C0D0E0" stroke-width="1" opacity="1"></path><path fill="none" d="M 230.5 315 L 230.5 320" stroke="#C0D0E0" stroke-width="1" opacity="1"></path><path fill="none" d="M 267.5 315 L 267.5 320" stroke="#C0D0E0" stroke-width="1" opacity="1"></path><path fill="none" d="M 304.5 315 L 304.5 320" stroke="#C0D0E0" stroke-width="1" opacity="1"></path><path fill="none" d="M 341.5 315 L 341.5 320" stroke="#C0D0E0" stroke-width="1" opacity="1"></path><path fill="none" d="M 378.5 315 L 378.5 320" stroke="#C0D0E0" stroke-width="1" opacity="1"></path><path fill="none" d="M 415.5 315 L 415.5 320" stroke="#C0D0E0" stroke-width="1" opacity="1"></path><path fill="none" d="M 452.5 315 L 452.5 320" stroke="#C0D0E0" stroke-width="1" opacity="1"></path><path fill="none" d="M 489.5 315 L 489.5 320" stroke="#C0D0E0" stroke-width="1" opacity="1"></path><path fill="none" d="M 526.5 315 L 526.5 320" stroke="#C0D0E0" stroke-width="1" opacity="1"></path><path fill="none" d="M 563.5 315 L 563.5 320" stroke="#C0D0E0" stroke-width="1" opacity="1"></path><path fill="none" d="M 46.5 315 L 46.5 320" stroke="#C0D0E0" stroke-width="1" opacity="1"></path><path fill="none" d="M 37 315.5 L 564 315.5" stroke="#a8a9a9" stroke-width="1"  visibility="visible"></path></g><g class="highcharts-axis" ></g><g class="highcharts-axis" ></g><text x="12" y="57"  style="position:absolute;color:rgb(0, 150, 215);font-family:arial;fill:rgb(0, 150, 215);font-size:10px;"><tspan x="12">million barrels per day (year-on-year)</tspan></text><text x="547" y="57"  style="position:absolute;color:rgb(189, 115, 42);font-family:arial;fill:rgb(189, 115, 42);font-size:10px;"><tspan x="547">percent change (year-on-year)</tspan></text><text x="17" y="387"  style="position:absolute;color:gray;font-family:arial;fill:gray;font-size:10px;"><tspan x="17">Source: </tspan><tspan dx="0">U.S. Energy Information Administration</tspan><tspan dx="0">, </tspan><tspan dx="0">Thomson Reuters</tspan><tspan dx="0">.</tspan></text><text x="17" y="399"  style="position:absolute;color:gray;font-family:arial;fill:gray;font-size:10px;"><tspan x="17">Updated: Quarterly | Last Updated: 02/10/2015</tspan></text><g class="highcharts-series-group" ><g class="highcharts-series highcharts-tracker" visibility="visible"  transform="translate(37,70) scale(1 1)" style="" clip-path="url(#highcharts-17)"><rect x="7" y="119" width="5" height="35" fill-opacity="1" fill="rgb(0,150,215)" rx="0" ry="0"></rect><rect x="17" y="154" width="5" height="11" fill-opacity="1" fill="rgb(0,150,215)" rx="0" ry="0"></rect><rect x="26" y="154" width="5" height="42" fill-opacity="1" fill="rgb(0,150,215)" rx="0" ry="0"></rect><rect x="35" y="154" width="5" height="73" fill-opacity="1" fill="rgb(0,150,215)" rx="0" ry="0"></rect><rect x="44" y="154" width="5" height="72" fill-opacity="1" fill="rgb(0,150,215)" rx="0" ry="0"></rect><rect x="53" y="154" width="5" height="33" fill-opacity="1" fill="rgb(0,150,215)" rx="0" ry="0"></rect><rect x="63" y="154" width="5" height="17" fill-opacity="1" fill="rgb(0,150,215)" rx="0" ry="0"></rect><rect x="72" y="132" width="5" height="22" fill-opacity="1" fill="rgb(0,150,215)" rx="0" ry="0"></rect><rect x="81" y="55" width="5" height="99" fill-opacity="1" fill="rgb(0,150,215)" rx="0" ry="0"></rect><rect x="90" y="51" width="5" height="103" fill-opacity="1" fill="rgb(0,150,215)" rx="0" ry="0"></rect><rect x="100" y="108" width="5" height="46" fill-opacity="1" fill="rgb(0,150,215)" rx="0" ry="0"></rect><rect x="109" y="122" width="5" height="32" fill-opacity="1" fill="rgb(0,150,215)" rx="0" ry="0"></rect><rect x="118" y="154" width="5" height="18" fill-opacity="1" fill="rgb(0,150,215)" rx="0" ry="0"></rect><rect x="127" y="154" width="5" height="22" fill-opacity="1" fill="rgb(0,150,215)" rx="0" ry="0"></rect><rect x="137" y="94" width="5" height="60" fill-opacity="1" fill="rgb(0,150,215)" rx="0" ry="0"></rect><rect x="146" y="95" width="5" height="59" fill-opacity="1" fill="rgb(0,150,215)" rx="0" ry="0"></rect><rect x="155" y="99" width="5" height="55" fill-opacity="1" fill="rgb(0,150,215)" rx="0" ry="0"></rect><rect x="164" y="105" width="5" height="49" fill-opacity="1" fill="rgb(0,150,215)" rx="0" ry="0"></rect><rect x="173" y="148" width="5" height="6" fill-opacity="1" fill="rgb(0,150,215)" rx="0" ry="0"></rect><rect x="183" y="154" width="5" height="0" fill-opacity="1" fill="rgb(0,150,215)" rx="0" ry="0"></rect><rect x="192" y="154" width="5" height="5" fill-opacity="1" fill="rgb(0,150,215)" rx="0" ry="0"></rect><rect x="201" y="154" width="5" height="24" fill-opacity="1" fill="rgb(0,150,215)" rx="0" ry="0"></rect><rect x="210" y="154" width="5" height="24" fill-opacity="1" fill="rgb(0,150,215)" rx="0" ry="0"></rect><rect x="220" y="154" width="5" height="44" fill-opacity="1" fill="rgb(0,150,215)" rx="0" ry="0"></rect><rect x="229" y="154" width="5" height="47" fill-opacity="1" fill="rgb(0,150,215)" rx="0" ry="0"></rect><rect x="238" y="154" width="5" height="38" fill-opacity="1" fill="rgb(0,150,215)" rx="0" ry="0"></rect><rect x="247" y="154" width="5" height="33" fill-opacity="1" fill="rgb(0,150,215)" rx="0" ry="0"></rect><rect x="257" y="143" width="5" height="11" fill-opacity="1" fill="rgb(0,150,215)" rx="0" ry="0"></rect><rect x="266" y="121" width="5" height="33" fill-opacity="1" fill="rgb(0,150,215)" rx="0" ry="0"></rect><rect x="275" y="110" width="5" height="44" fill-opacity="1" fill="rgb(0,150,215)" rx="0" ry="0"></rect><rect x="284" y="99" width="5" height="55" fill-opacity="1" fill="rgb(0,150,215)" rx="0" ry="0"></rect><rect x="294" y="154" width="5" height="1" fill-opacity="1" fill="rgb(0,150,215)" rx="0" ry="0"></rect><rect x="303" y="154" width="5" height="70" fill-opacity="1" fill="rgb(0,150,215)" rx="0" ry="0"></rect><rect x="312" y="154" width="5" height="73" fill-opacity="1" fill="rgb(0,150,215)" rx="0" ry="0"></rect><rect x="321" y="154" width="5" height="72" fill-opacity="1" fill="rgb(0,150,215)" rx="0" ry="0"></rect><rect x="331" y="154" width="5" height="42" fill-opacity="1" fill="rgb(0,150,215)" rx="0" ry="0"></rect><rect x="340" y="146" width="5" height="8" fill-opacity="1" fill="rgb(0,150,215)" rx="0" ry="0"></rect><rect x="349" y="119" width="5" height="35" fill-opacity="1" fill="rgb(0,150,215)" rx="0" ry="0"></rect><rect x="358" y="99" width="5" height="55" fill-opacity="1" fill="rgb(0,150,215)" rx="0" ry="0"></rect><rect x="367" y="115" width="5" height="39" fill-opacity="1" fill="rgb(0,150,215)" rx="0" ry="0"></rect><rect x="377" y="103" width="5" height="51" fill-opacity="1" fill="rgb(0,150,215)" rx="0" ry="0"></rect><rect x="386" y="128" width="5" height="26" fill-opacity="1" fill="rgb(0,150,215)" rx="0" ry="0"></rect><rect x="395" y="123" width="5" height="31" fill-opacity="1" fill="rgb(0,150,215)" rx="0" ry="0"></rect><rect x="404" y="105" width="5" height="49" fill-opacity="1" fill="rgb(0,150,215)" rx="0" ry="0"></rect><rect x="414" y="99" width="5" height="55" fill-opacity="1" fill="rgb(0,150,215)" rx="0" ry="0"></rect><rect x="423" y="110" width="5" height="44" fill-opacity="1" fill="rgb(0,150,215)" rx="0" ry="0"></rect><rect x="432" y="148" width="5" height="6" fill-opacity="1" fill="rgb(0,150,215)" rx="0" ry="0"></rect><rect x="441" y="154" width="5" height="13" fill-opacity="1" fill="rgb(0,150,215)" rx="0" ry="0"></rect><rect x="451" y="154" width="5" height="51" fill-opacity="1" fill="rgb(0,150,215)" rx="0" ry="0"></rect><rect x="460" y="154" width="5" height="16" fill-opacity="1" fill="rgb(0,150,215)" rx="0" ry="0"></rect><rect x="469" y="142" width="5" height="12" fill-opacity="1" fill="rgb(0,150,215)" rx="0" ry="0"></rect><rect x="478" y="135" width="5" height="19" fill-opacity="1" fill="rgb(0,150,215)" rx="0" ry="0"></rect><rect x="488" y="111" width="5" height="43" fill-opacity="1" fill="rgb(0,150,215)" rx="0" ry="0"></rect><rect x="497" y="151" width="5" height="3" fill-opacity="1" fill="rgb(0,150,215)" rx="0" ry="0"></rect><rect x="506" y="154" width="5" height="25" fill-opacity="1" fill="rgb(0,150,215)" rx="0" ry="0"></rect><rect x="515" y="154" width="5" height="10" fill-opacity="1" fill="rgb(0,150,215)" rx="0" ry="0"></rect></g><g class="highcharts-markers" visibility="visible"  transform="translate(37,70) scale(1 1)" clip-path="none"></g><g class="highcharts-series" visibility="visible"  transform="translate(37,70) scale(1 1)" clip-path="url(#highcharts-17)"><path fill="none" d="M 9.626029266648363 153.17812536139763 L 18.727342541571634 157.7544017142983 L 27.925567948589 177.1012362929563 L 37.229132629621674 208.60229759299781 L 46.53691088161496 191.17596020404963 L 55.638224156538236 162.2334866219648 L 64.8364495635556 143.49606200571628 L 74.14001424458827 94.4521037556679 L 83.44779249658157 65.12998383013786 L 92.54910577150484 137.17853060920842 L 101.7473311785222 143.0211273817925 L 111.05089585955488 136.97135263227884 L 120.35867411154817 147.97542526455567 L 129.56111308952615 103.59802737696256 L 138.7593384965435 83.86985545794025 L 148.06290317757617 69.15005877070848 L 157.3706814295695 90.19790976667761 L 166.47199470449274 94.43551190632115 L 175.6702201115101 85.69508813199033 L 184.97378479254277 116.04317632744565 L 194.28156304453609 111.42055738165189 L 203.38287631945934 103.0293808104849 L 212.5811017264767 135.62199994554408 L 221.8846664075094 153.17604450247208 L 231.19244465950268 165.6938188180121 L 240.28954436346532 164.9484566593435 L 249.4919833414433 142.15073964647206 L 258.795548022476 74.54982493405672 L 268.1033262744692 48.030082362997746 L 277.3015516814866 14.12470501353954 L 286.5039906594646 66.7110682881773 L 295.8075553404973 207.80366193986788 L 305.1153335924906 239.17019077029443 L 314.2124332964532 232.8088023698854 L 323.41487227443116 217.78642524354086 L 332.71843695546386 106.63812557243838 L 342.02621520745714 25.57833501452353 L 351.1233149114198 105.88677460050462 L 360.3257538893978 135.49242424317265 L 369.6293185704305 134.93226290580628 L 378.93709682242377 124.183648059313 L 388.03419652638644 105.02943288139542 L 397.2366355043644 125.61538503535343 L 406.54020018539705 137.1161228419533 L 415.84797843739034 137.7748342244493 L 425.0462038444077 166.30692193156716 L 434.2486428223857 148.82395968792235 L 443.55220750341834 162.9532245954184 L 452.8599857554117 165.8362156992224 L 461.9570854593743 152.01591322598125 L 471.1595244373523 130.5364201190577 L 480.46308911838497 136.79087950578855 L 489.77086737037826 145.96679445958503 L 498.8679670743409 138.078827936703 L 508.0704060523189 164.79204097969307 L 517.3739707333516 191.1663613323457" stroke-opacity="1" stroke="rgb(189,115,42)" stroke-width="2"  stroke-linejoin="round" stroke-linecap="round"></path><path fill="none" d="M -0.3739707333516371 153.17812536139763 L 9.626029266648363 153.17812536139763 L 18.727342541571634 157.7544017142983 L 27.925567948589 177.1012362929563 L 37.229132629621674 208.60229759299781 L 46.53691088161496 191.17596020404963 L 55.638224156538236 162.2334866219648 L 64.8364495635556 143.49606200571628 L 74.14001424458827 94.4521037556679 L 83.44779249658157 65.12998383013786 L 92.54910577150484 137.17853060920842 L 101.7473311785222 143.0211273817925 L 111.05089585955488 136.97135263227884 L 120.35867411154817 147.97542526455567 L 129.56111308952615 103.59802737696256 L 138.7593384965435 83.86985545794025 L 148.06290317757617 69.15005877070848 L 157.3706814295695 90.19790976667761 L 166.47199470449274 94.43551190632115 L 175.6702201115101 85.69508813199033 L 184.97378479254277 116.04317632744565 L 194.28156304453609 111.42055738165189 L 203.38287631945934 103.0293808104849 L 212.5811017264767 135.62199994554408 L 221.8846664075094 153.17604450247208 L 231.19244465950268 165.6938188180121 L 240.28954436346532 164.9484566593435 L 249.4919833414433 142.15073964647206 L 258.795548022476 74.54982493405672 L 268.1033262744692 48.030082362997746 L 277.3015516814866 14.12470501353954 L 286.5039906594646 66.7110682881773 L 295.8075553404973 207.80366193986788 L 305.1153335924906 239.17019077029443 L 314.2124332964532 232.8088023698854 L 323.41487227443116 217.78642524354086 L 332.71843695546386 106.63812557243838 L 342.02621520745714 25.57833501452353 L 351.1233149114198 105.88677460050462 L 360.3257538893978 135.49242424317265 L 369.6293185704305 134.93226290580628 L 378.93709682242377 124.183648059313 L 388.03419652638644 105.02943288139542 L 397.2366355043644 125.61538503535343 L 406.54020018539705 137.1161228419533 L 415.84797843739034 137.7748342244493 L 425.0462038444077 166.30692193156716 L 434.2486428223857 148.82395968792235 L 443.55220750341834 162.9532245954184 L 452.8599857554117 165.8362156992224 L 461.9570854593743 152.01591322598125 L 471.1595244373523 130.5364201190577 L 480.46308911838497 136.79087950578855 L 489.77086737037826 145.96679445958503 L 498.8679670743409 138.078827936703 L 508.0704060523189 164.79204097969307 L 517.3739707333516 191.1663613323457 L 527.3739707333516 191.1663613323457" stroke-linejoin="round" visibility="visible" stroke-opacity="0.0001" stroke="rgb(192,192,192)" stroke-width="22"  class=" highcharts-tracker" style=""></path></g><g class="highcharts-markers highcharts-tracker" visibility="visible"  transform="translate(37,70) scale(1 1)" style="" clip-path="none"></g></g><text x="15" y="30" text-anchor="start" class="highcharts-title"  style="color:black;font-size:16px;font-weight:bold;font-family:arial;fill:black;width:536px;"><tspan x="15">Changes in Saudi production and WTI crude oil prices</tspan></text><g class="highcharts-legend"  transform="translate(172,343)"><g ><g><g class="highcharts-legend-item"  transform="translate(8,3)"><text x="21" y="15" style="color:#189bd7;font-size:12px;cursor:pointer;font-family:arial;text-decoration:none;fill:#189bd7;" text-anchor="start" ><tspan x="21">Saudi production</tspan></text><rect x="0" y="4" width="16" height="12" rx="2" ry="2"  stroke-opacity="1" fill-opacity="1" fill="rgb(0,150,215)"></rect></g><g class="highcharts-legend-item"  transform="translate(127.078125,3)"><path fill="none" d="M 0 11 L 16 11" stroke-opacity="1" stroke="rgb(189,115,42)" stroke-width="2"></path><text x="21" y="15" style="color:#189bd7;font-size:12px;cursor:pointer;font-family:arial;text-decoration:none;fill:#189bd7;" text-anchor="start" ><tspan x="21">WTI percent change</tspan></text></g></g></g></g><g class="highcharts-axis-labels highcharts-xaxis-labels" ><text x="46.604961411845295" y="335" text-anchor="middle" style="color:black;cursor:default;font-size:11px;font-family:arial;fill:black;" opacity="1"><tspan x="46.604961411845295">2001</tspan></text><text x="83.5158430268119" y="335" text-anchor="middle" style="color:black;cursor:default;font-size:11px;font-family:arial;fill:black;" opacity="1"><tspan x="83.5158430268119">2002</tspan></text><text x="120.4267246417785" y="335" text-anchor="middle" style="color:black;cursor:default;font-size:11px;font-family:arial;fill:black;" opacity="1"><tspan x="120.4267246417785">2003</tspan></text><text x="157.33760625674512" y="335" text-anchor="middle" style="color:black;cursor:default;font-size:11px;font-family:arial;fill:black;" opacity="1"><tspan x="157.33760625674512">2004</tspan></text><text x="194.3496135747664" y="335" text-anchor="middle" style="color:black;cursor:default;font-size:11px;font-family:arial;fill:black;" opacity="1"><tspan x="194.3496135747664">2005</tspan></text><text x="231.260495189733" y="335" text-anchor="middle" style="color:black;cursor:default;font-size:11px;font-family:arial;fill:black;" opacity="1"><tspan x="231.260495189733">2006</tspan></text><text x="268.1713768046996" y="335" text-anchor="middle" style="color:black;cursor:default;font-size:11px;font-family:arial;fill:black;" opacity="1"><tspan x="268.1713768046996">2007</tspan></text><text x="305.0822584196662" y="335" text-anchor="middle" style="color:black;cursor:default;font-size:11px;font-family:arial;fill:black;" opacity="1"><tspan x="305.0822584196662">2008</tspan></text><text x="342.09426573768746" y="335" text-anchor="middle" style="color:black;cursor:default;font-size:11px;font-family:arial;fill:black;" opacity="1"><tspan x="342.09426573768746">2009</tspan></text><text x="379.0051473526541" y="335" text-anchor="middle" style="color:black;cursor:default;font-size:11px;font-family:arial;fill:black;" opacity="1"><tspan x="379.0051473526541">2010</tspan></text><text x="415.9160289676207" y="335" text-anchor="middle" style="color:black;cursor:default;font-size:11px;font-family:arial;fill:black;" opacity="1"><tspan x="415.9160289676207">2011</tspan></text><text x="452.8269105825873" y="335" text-anchor="middle" style="color:black;cursor:default;font-size:11px;font-family:arial;fill:black;" opacity="1"><tspan x="452.8269105825873">2012</tspan></text><text x="489.8389179006086" y="335" text-anchor="middle" style="color:black;cursor:default;font-size:11px;font-family:arial;fill:black;" opacity="1"><tspan x="489.8389179006086">2013</tspan></text><text x="526.7497995155752" y="335" text-anchor="middle" style="color:black;cursor:default;font-size:11px;font-family:arial;fill:black;" opacity="1"><tspan x="526.7497995155752">2014</tspan></text><text x="563.6606811305418" y="335" text-anchor="middle" style="color:black;cursor:default;font-size:11px;font-family:arial;fill:black;" opacity="1"><tspan x="563.6606811305418">2015</tspan></text></g><g class="highcharts-axis-labels highcharts-yaxis-labels" ><text x="29" y="321" text-anchor="end" style="width:178px;color:rgb(0, 150, 215);cursor:default;font-size:11px;font-family:arial;fill:rgb(0, 150, 215);" opacity="1"><tspan x="29">-1.5</tspan></text><text x="29" y="290.375" text-anchor="end" style="width:178px;color:rgb(0, 150, 215);cursor:default;font-size:11px;font-family:arial;fill:rgb(0, 150, 215);" opacity="1"><tspan x="29">-1</tspan></text><text x="29" y="259.75" text-anchor="end" style="width:178px;color:rgb(0, 150, 215);cursor:default;font-size:11px;font-family:arial;fill:rgb(0, 150, 215);" opacity="1"><tspan x="29">-0.5</tspan></text><text x="29" y="229.125" text-anchor="end" style="width:178px;color:rgb(0, 150, 215);cursor:default;font-size:11px;font-family:arial;fill:rgb(0, 150, 215);" opacity="1"><tspan x="29">0</tspan></text><text x="29" y="198.5" text-anchor="end" style="width:178px;color:rgb(0, 150, 215);cursor:default;font-size:11px;font-family:arial;fill:rgb(0, 150, 215);" opacity="1"><tspan x="29">0.5</tspan></text><text x="29" y="167.875" text-anchor="end" style="width:178px;color:rgb(0, 150, 215);cursor:default;font-size:11px;font-family:arial;fill:rgb(0, 150, 215);" opacity="1"><tspan x="29">1</tspan></text><text x="29" y="137.25" text-anchor="end" style="width:178px;color:rgb(0, 150, 215);cursor:default;font-size:11px;font-family:arial;fill:rgb(0, 150, 215);" opacity="1"><tspan x="29">1.5</tspan></text><text x="29" y="106.625" text-anchor="end" style="width:178px;color:rgb(0, 150, 215);cursor:default;font-size:11px;font-family:arial;fill:rgb(0, 150, 215);" opacity="1"><tspan x="29">2</tspan></text><text x="29" y="76" text-anchor="end" style="width:178px;color:rgb(0, 150, 215);cursor:default;font-size:11px;font-family:arial;fill:rgb(0, 150, 215);" opacity="1"><tspan x="29">2.5</tspan></text></g><g class="highcharts-axis-labels highcharts-yaxis-labels" ><text x="572" y="321" text-anchor="start" style="width:178px;color:rgb(189, 115, 42);cursor:default;font-size:11px;font-family:arial;fill:rgb(189, 115, 42);" opacity="1"><tspan x="572">-60</tspan></text><text x="572" y="290.375" text-anchor="start" style="width:178px;color:rgb(189, 115, 42);cursor:default;font-size:11px;font-family:arial;fill:rgb(189, 115, 42);" opacity="1"><tspan x="572">-40</tspan></text><text x="572" y="259.75" text-anchor="start" style="width:178px;color:rgb(189, 115, 42);cursor:default;font-size:11px;font-family:arial;fill:rgb(189, 115, 42);" opacity="1"><tspan x="572">-20</tspan></text><text x="572" y="229.125" text-anchor="start" style="width:178px;color:rgb(189, 115, 42);cursor:default;font-size:11px;font-family:arial;fill:rgb(189, 115, 42);" opacity="1"><tspan x="572">0</tspan></text><text x="572" y="198.5" text-anchor="start" style="width:178px;color:rgb(189, 115, 42);cursor:default;font-size:11px;font-family:arial;fill:rgb(189, 115, 42);" opacity="1"><tspan x="572">20</tspan></text><text x="572" y="167.875" text-anchor="start" style="width:178px;color:rgb(189, 115, 42);cursor:default;font-size:11px;font-family:arial;fill:rgb(189, 115, 42);" opacity="1"><tspan x="572">40</tspan></text><text x="572" y="137.25" text-anchor="start" style="width:178px;color:rgb(189, 115, 42);cursor:default;font-size:11px;font-family:arial;fill:rgb(189, 115, 42);" opacity="1"><tspan x="572">60</tspan></text><text x="572" y="106.625" text-anchor="start" style="width:178px;color:rgb(189, 115, 42);cursor:default;font-size:11px;font-family:arial;fill:rgb(189, 115, 42);" opacity="1"><tspan x="572">80</tspan></text><text x="572" y="76" text-anchor="start" style="width:178px;color:rgb(189, 115, 42);cursor:default;font-size:11px;font-family:arial;fill:rgb(189, 115, 42);" opacity="1"><tspan x="572">100</tspan></text></g><g class="highcharts-tooltip"  style="cursor:default;padding:0;white-space:nowrap;" transform="translate(0,-9999)"><rect x="0.5" y="0.5" width="10" height="10" fill="none" fill-opacity="0.85" rx="3" ry="3"  stroke="black" stroke-opacity="0.049999999999999996" stroke-width="5" transform="translate(1, 1)"></rect><rect x="0.5" y="0.5" width="10" height="10" fill="none" fill-opacity="0.85" rx="3" ry="3"  stroke="black" stroke-opacity="0.09999999999999999" stroke-width="3" transform="translate(1, 1)"></rect><rect x="0.5" y="0.5" width="10" height="10" fill="none" fill-opacity="0.85" rx="3" ry="3"  stroke="black" stroke-opacity="0.15" stroke-width="1" transform="translate(1, 1)"></rect><rect x="0.5" y="0.5" width="10" height="10" fill="rgb(255,255,255)" fill-opacity="0.85" rx="3" ry="3"></rect><text x="5" y="18"  style="font-size:12px;font-family:arial;color:#333333;fill:#333333;"></text></g></svg>