<?xml version="1.0" standalone="no"?><!DOCTYPE svg PUBLIC "-//W3C//DTD SVG 1.1//EN" "http://www.w3.org/Graphics/SVG/1.1/DTD/svg11.dtd"><svg xmlns:xlink="http://www.w3.org/1999/xlink" height="400" width="600" xmlns="http://www.w3.org/2000/svg" style="font-family:'lucida grande', 'lucida sans unicode', verdana, arial, helvetica, sans-serif;font-size:12px;" version="1.1"><desc>Created with Highcharts 3.0.10</desc><defs><clipPath id="highcharts-17"><rect height="270" width="556" y="0" x="0"></rect></clipPath></defs><rect class=" highcharts-background" fill="#FFFFFF" height="400" width="600" y="0" x="0"></rect><image xlink:href="../..//global/images/icons/icon_interactive.gif" height="17" width="69" y="23" x="625" preserveAspectRatio="none"></image><g  class="highcharts-grid"></g><g  class="highcharts-grid"><path opacity="1"  stroke-width="1" stroke="#C0C0C0" d="M 44 54.5 L 600 54.5" fill="none"></path><path opacity="1"  stroke-width="1" stroke="#C0C0C0" d="M 44 82.5 L 600 82.5" fill="none"></path><path opacity="1"  stroke-width="1" stroke="#C0C0C0" d="M 44 109.5 L 600 109.5" fill="none"></path><path opacity="1"  stroke-width="1" stroke="#C0C0C0" d="M 44 136.5 L 600 136.5" fill="none"></path><path opacity="1"  stroke-width="1" stroke="#C0C0C0" d="M 44 163.5 L 600 163.5" fill="none"></path><path opacity="1"  stroke-width="1" stroke="#C0C0C0" d="M 44 190.5 L 600 190.5" fill="none"></path><path opacity="1"  stroke-width="1" stroke="#C0C0C0" d="M 44 217.5 L 600 217.5" fill="none"></path><path opacity="1"  stroke-width="1" stroke="#C0C0C0" d="M 44 244.5 L 600 244.5" fill="none"></path><path opacity="1"  stroke-width="1" stroke="#C0C0C0" d="M 44 271.5 L 600 271.5" fill="none"></path><path opacity="1"  stroke-width="1" stroke="#C0C0C0" d="M 44 298.5 L 600 298.5" fill="none"></path><path opacity="1"  stroke-width="1" stroke="#C0C0C0" d="M 44 325.5 L 600 325.5" fill="none"></path></g><g  class="highcharts-axis"><path opacity="1" stroke-width="1" stroke="#C0D0E0" d="M 89.5 325 L 89.5 330" fill="none"></path><path opacity="1" stroke-width="1" stroke="#C0D0E0" d="M 126.5 325 L 126.5 330" fill="none"></path><path opacity="1" stroke-width="1" stroke="#C0D0E0" d="M 162.5 325 L 162.5 330" fill="none"></path><path opacity="1" stroke-width="1" stroke="#C0D0E0" d="M 198.5 325 L 198.5 330" fill="none"></path><path opacity="1" stroke-width="1" stroke="#C0D0E0" d="M 235.5 325 L 235.5 330" fill="none"></path><path opacity="1" stroke-width="1" stroke="#C0D0E0" d="M 271.5 325 L 271.5 330" fill="none"></path><path opacity="1" stroke-width="1" stroke="#C0D0E0" d="M 307.5 325 L 307.5 330" fill="none"></path><path opacity="1" stroke-width="1" stroke="#C0D0E0" d="M 344.5 325 L 344.5 330" fill="none"></path><path opacity="1" stroke-width="1" stroke="#C0D0E0" d="M 380.5 325 L 380.5 330" fill="none"></path><path opacity="1" stroke-width="1" stroke="#C0D0E0" d="M 417.5 325 L 417.5 330" fill="none"></path><path opacity="1" stroke-width="1" stroke="#C0D0E0" d="M 453.5 325 L 453.5 330" fill="none"></path><path opacity="1" stroke-width="1" stroke="#C0D0E0" d="M 489.5 325 L 489.5 330" fill="none"></path><path opacity="1" stroke-width="1" stroke="#C0D0E0" d="M 526.5 325 L 526.5 330" fill="none"></path><path opacity="1" stroke-width="1" stroke="#C0D0E0" d="M 562.5 325 L 562.5 330" fill="none"></path><path opacity="1" stroke-width="1" stroke="#C0D0E0" d="M 598.5 325 L 598.5 330" fill="none"></path><path opacity="1" stroke-width="1" stroke="#C0D0E0" d="M 53.5 325 L 53.5 330" fill="none"></path><path visibility="visible"  stroke-width="1" stroke="#000000" d="M 44 325.5 L 600 325.5" fill="none"></path></g><g  class="highcharts-axis"></g><text style="position:absolute;color:black;font-size:12px;font-family:arial;fill:black;"  y="42" x="9"><tspan x="9">number of contracts (thousands)</tspan></text><text style="position:absolute;color:gray;font-size:10px;font-family:arial;fill:gray;"  y="372" x="24"><tspan x="24">Source: </tspan><tspan dx="0">NYMEX CME Group</tspan><tspan dx="0">, Published by: </tspan><tspan dx="0">U.S. Energy Information Administration</tspan><tspan dx="0">.</tspan></text><text style="position:absolute;color:gray;font-size:10px;font-family:arial;fill:gray;"  y="384" x="24"><tspan x="24">Updated: Quarterly | Last Updated: 12/31/2014</tspan></text><g  class="highcharts-series-group"><g clip-path="url(#highcharts-17)" style="" transform="translate(44,55) scale(1 1)"  visibility="visible" class="highcharts-series highcharts-tracker"><rect ry="0" rx="0" fill="#BD732A" height="69" width="5" y="202" x="8"></rect><rect ry="0" rx="0" fill="#BD732A" height="62" width="5" y="209" x="17"></rect><rect ry="0" rx="0" fill="#BD732A" height="59" width="5" y="212" x="26"></rect><rect ry="0" rx="0" fill="#BD732A" height="63" width="5" y="208" x="35"></rect><rect ry="0" rx="0" fill="#BD732A" height="58" width="5" y="213" x="44"></rect><rect ry="0" rx="0" fill="#BD732A" height="59" width="5" y="212" x="53"></rect><rect ry="0" rx="0" fill="#BD732A" height="61" width="5" y="210" x="62"></rect><rect ry="0" rx="0" fill="#BD732A" height="58" width="5" y="213" x="71"></rect><rect ry="0" rx="0" fill="#BD732A" height="63" width="5" y="208" x="80"></rect><rect ry="0" rx="0" fill="#BD732A" height="66" width="5" y="205" x="89"></rect><rect ry="0" rx="0" fill="#BD732A" height="64" width="5" y="207" x="98"></rect><rect ry="0" rx="0" fill="#BD732A" height="70" width="5" y="201" x="108"></rect><rect ry="0" rx="0" fill="#BD732A" height="82" width="5" y="189" x="117"></rect><rect ry="0" rx="0" fill="#BD732A" height="66" width="5" y="205" x="126"></rect><rect ry="0" rx="0" fill="#BD732A" height="71" width="5" y="200" x="135"></rect><rect ry="0" rx="0" fill="#BD732A" height="75" width="5" y="196" x="144"></rect><rect ry="0" rx="0" fill="#BD732A" height="89" width="5" y="182" x="153"></rect><rect ry="0" rx="0" fill="#BD732A" height="95" width="5" y="176" x="162"></rect><rect ry="0" rx="0" fill="#BD732A" height="94" width="5" y="177" x="171"></rect><rect ry="0" rx="0" fill="#BD732A" height="94" width="5" y="177" x="180"></rect><rect ry="0" rx="0" fill="#BD732A" height="103" width="5" y="168" x="190"></rect><rect ry="0" rx="0" fill="#BD732A" height="109" width="5" y="162" x="199"></rect><rect ry="0" rx="0" fill="#BD732A" height="117" width="5" y="154" x="208"></rect><rect ry="0" rx="0" fill="#BD732A" height="113" width="5" y="158" x="217"></rect><rect ry="0" rx="0" fill="#BD732A" height="125" width="5" y="146" x="226"></rect><rect ry="0" rx="0" fill="#BD732A" height="138" width="5" y="133" x="235"></rect><rect ry="0" rx="0" fill="#BD732A" height="154" width="5" y="117" x="244"></rect><rect ry="0" rx="0" fill="#BD732A" height="160" width="5" y="111" x="253"></rect><rect ry="0" rx="0" fill="#BD732A" height="175" width="5" y="96" x="262"></rect><rect ry="0" rx="0" fill="#BD732A" height="187" width="5" y="84" x="271"></rect><rect ry="0" rx="0" fill="#BD732A" height="202" width="5" y="69" x="280"></rect><rect ry="0" rx="0" fill="#BD732A" height="192" width="5" y="79" x="289"></rect><rect ry="0" rx="0" fill="#BD732A" height="189" width="5" y="82" x="299"></rect><rect ry="0" rx="0" fill="#BD732A" height="186" width="5" y="85" x="308"></rect><rect ry="0" rx="0" fill="#BD732A" height="165" width="5" y="106" x="317"></rect><rect ry="0" rx="0" fill="#BD732A" height="152" width="5" y="119" x="326"></rect><rect ry="0" rx="0" fill="#BD732A" height="164" width="5" y="107" x="335"></rect><rect ry="0" rx="0" fill="#BD732A" height="158" width="5" y="113" x="344"></rect><rect ry="0" rx="0" fill="#BD732A" height="158" width="5" y="113" x="353"></rect><rect ry="0" rx="0" fill="#BD732A" height="164" width="5" y="107" x="362"></rect><rect ry="0" rx="0" fill="#BD732A" height="177" width="5" y="94" x="371"></rect><rect ry="0" rx="0" fill="#BD732A" height="184" width="5" y="87" x="380"></rect><rect ry="0" rx="0" fill="#BD732A" height="173" width="5" y="98" x="389"></rect><rect ry="0" rx="0" fill="#BD732A" height="190" width="5" y="81" x="399"></rect><rect ry="0" rx="0" fill="#BD732A" height="207" width="5" y="64" x="408"></rect><rect ry="0" rx="0" fill="#BD732A" height="211" width="5" y="60" x="417"></rect><rect ry="0" rx="0" fill="#BD732A" height="201" width="5" y="70" x="426"></rect><rect ry="0" rx="0" fill="#BD732A" height="183" width="5" y="88" x="435"></rect><rect ry="0" rx="0" fill="#BD732A" height="199" width="5" y="72" x="444"></rect><rect ry="0" rx="0" fill="#BD732A" height="204" width="5" y="67" x="453"></rect><rect ry="0" rx="0" fill="#BD732A" height="200" width="5" y="71" x="462"></rect><rect ry="0" rx="0" fill="#BD732A" height="209" width="5" y="62" x="471"></rect><rect ry="0" rx="0" fill="#BD732A" height="217" width="5" y="54" x="480"></rect><rect ry="0" rx="0" fill="#BD732A" height="239" width="5" y="32" x="489"></rect><rect ry="0" rx="0" fill="#BD732A" height="252" width="5" y="19" x="499"></rect><rect ry="0" rx="0" fill="#BD732A" height="232" width="5" y="39" x="508"></rect><rect ry="0" rx="0" fill="#BD732A" height="220" width="5" y="51" x="517"></rect><rect ry="0" rx="0" fill="#BD732A" height="225" width="5" y="46" x="526"></rect><rect ry="0" rx="0" fill="#BD732A" height="215" width="5" y="56" x="535"></rect><rect ry="0" rx="0" fill="#BD732A" height="199" width="5" y="72" x="544"></rect></g><g clip-path="none" transform="translate(44,55) scale(1 1)"  visibility="visible" class="highcharts-markers"></g></g><text style="color:black;font-size:16px;font-weight:bold;font-family:arial;fill:black;width:536px;"  class="highcharts-title" text-anchor="start" y="20" x="10"><tspan x="10">Average daily open interest in crude oil futures on U.S. exchanges</tspan></text><g  class="highcharts-axis-labels highcharts-xaxis-labels"><text opacity="1" style="color:black;cursor:default;font-size:11px;font-family:arial;fill:black;" text-anchor="middle" y="345" x="53.8204926683784"><tspan x="53.8204926683784">2000</tspan></text><text opacity="1" style="color:black;cursor:default;font-size:11px;font-family:arial;fill:black;" text-anchor="middle" y="345" x="90.25890643514738"><tspan x="90.25890643514738">2001</tspan></text><text opacity="1" style="color:black;cursor:default;font-size:11px;font-family:arial;fill:black;" text-anchor="middle" y="345" x="126.59776169435688"><tspan x="126.59776169435688">2002</tspan></text><text opacity="1" style="color:black;cursor:default;font-size:11px;font-family:arial;fill:black;" text-anchor="middle" y="345" x="162.93661695356639"><tspan x="162.93661695356639">2003</tspan></text><text opacity="1" style="color:black;cursor:default;font-size:11px;font-family:arial;fill:black;" text-anchor="middle" y="345" x="199.27547221277584"><tspan x="199.27547221277584">2004</tspan></text><text opacity="1" style="color:black;cursor:default;font-size:11px;font-family:arial;fill:black;" text-anchor="middle" y="345" x="235.7138859795448"><tspan x="235.7138859795448">2005</tspan></text><text opacity="1" style="color:black;cursor:default;font-size:11px;font-family:arial;fill:black;" text-anchor="middle" y="345" x="272.0527412387543"><tspan x="272.0527412387543">2006</tspan></text><text opacity="1" style="color:black;cursor:default;font-size:11px;font-family:arial;fill:black;" text-anchor="middle" y="345" x="308.3915964979638"><tspan x="308.3915964979638">2007</tspan></text><text opacity="1" style="color:black;cursor:default;font-size:11px;font-family:arial;fill:black;" text-anchor="middle" y="345" x="344.73045175717334"><tspan x="344.73045175717334">2008</tspan></text><text opacity="1" style="color:black;cursor:default;font-size:11px;font-family:arial;fill:black;" text-anchor="middle" y="345" x="381.1688655239423"><tspan x="381.1688655239423">2009</tspan></text><text opacity="1" style="color:black;cursor:default;font-size:11px;font-family:arial;fill:black;" text-anchor="middle" y="345" x="417.5077207831518"><tspan x="417.5077207831518">2010</tspan></text><text opacity="1" style="color:black;cursor:default;font-size:11px;font-family:arial;fill:black;" text-anchor="middle" y="345" x="453.8465760423613"><tspan x="453.8465760423613">2011</tspan></text><text opacity="1" style="color:black;cursor:default;font-size:11px;font-family:arial;fill:black;" text-anchor="middle" y="345" x="490.18543130157076"><tspan x="490.18543130157076">2012</tspan></text><text opacity="1" style="color:black;cursor:default;font-size:11px;font-family:arial;fill:black;" text-anchor="middle" y="345" x="526.6238450683397"><tspan x="526.6238450683397">2013</tspan></text><text opacity="1" style="color:black;cursor:default;font-size:11px;font-family:arial;fill:black;" text-anchor="middle" y="345" x="562.9627003275493"><tspan x="562.9627003275493">2014</tspan></text><text opacity="1" style="color:black;cursor:default;font-size:11px;font-family:arial;fill:black;" text-anchor="middle" y="345" x="586.7666664123535"><tspan x="586.7666664123535">2015</tspan></text></g><g  class="highcharts-axis-labels highcharts-yaxis-labels"><text opacity="1" style="width:178px;color:black;cursor:default;font-size:11px;font-family:arial;fill:black;" text-anchor="end" y="330.5" x="36"><tspan x="36">0</tspan></text><text opacity="1" style="width:178px;color:black;cursor:default;font-size:11px;font-family:arial;fill:black;" text-anchor="end" y="303.5" x="36"><tspan x="36">200</tspan></text><text opacity="1" style="width:178px;color:black;cursor:default;font-size:11px;font-family:arial;fill:black;" text-anchor="end" y="276.5" x="36"><tspan x="36">400</tspan></text><text opacity="1" style="width:178px;color:black;cursor:default;font-size:11px;font-family:arial;fill:black;" text-anchor="end" y="249.5" x="36"><tspan x="36">600</tspan></text><text opacity="1" style="width:178px;color:black;cursor:default;font-size:11px;font-family:arial;fill:black;" text-anchor="end" y="222.5" x="36"><tspan x="36">800</tspan></text><text opacity="1" style="width:178px;color:black;cursor:default;font-size:11px;font-family:arial;fill:black;" text-anchor="end" y="195.5" x="36"><tspan x="36">1000</tspan></text><text opacity="1" style="width:178px;color:black;cursor:default;font-size:11px;font-family:arial;fill:black;" text-anchor="end" y="168.5" x="36"><tspan x="36">1200</tspan></text><text opacity="1" style="width:178px;color:black;cursor:default;font-size:11px;font-family:arial;fill:black;" text-anchor="end" y="141.5" x="36"><tspan x="36">1400</tspan></text><text opacity="1" style="width:178px;color:black;cursor:default;font-size:11px;font-family:arial;fill:black;" text-anchor="end" y="114.5" x="36"><tspan x="36">1600</tspan></text><text opacity="1" style="width:178px;color:black;cursor:default;font-size:11px;font-family:arial;fill:black;" text-anchor="end" y="87.49999999999997" x="36"><tspan x="36">1800</tspan></text><text opacity="1" style="width:178px;color:black;cursor:default;font-size:11px;font-family:arial;fill:black;" text-anchor="end" y="60.5" x="36"><tspan x="36">2000</tspan></text></g><g transform="translate(0,-9999)" style="cursor:default;padding:0;white-space:nowrap;"  class="highcharts-tooltip"><rect transform="translate(1, 1)" stroke-width="5" stroke-opacity="0.049999999999999996" stroke="black"  ry="3" rx="3" fill-opacity="0.85" fill="none" height="10" width="10" y="0.5" x="0.5"></rect><rect transform="translate(1, 1)" stroke-width="3" stroke-opacity="0.09999999999999999" stroke="black"  ry="3" rx="3" fill-opacity="0.85" fill="none" height="10" width="10" y="0.5" x="0.5"></rect><rect transform="translate(1, 1)" stroke-width="1" stroke-opacity="0.15" stroke="black"  ry="3" rx="3" fill-opacity="0.85" fill="none" height="10" width="10" y="0.5" x="0.5"></rect><rect ry="3" rx="3" fill-opacity="0.85" fill="rgb(255,255,255)" height="10" width="10" y="0.5" x="0.5"></rect><text style="font-size:12px;font-family:arial;color:#333333;fill:#333333;"  y="18" x="5"></text></g></svg>